DINish-Italic.ufo
<glyph name="exclam" format="2">
  <advance width="244"/>
  <unicode hex="0021"/>
  <outline>
    <contour>
      <point x="82" y="201" type="line"/>
      <point x="138" y="201" type="line"/>
      <point x="261" y="707" type="line"/>
      <point x="175" y="707" type="line"/>
    </contour>
    <contour>
      <point x="22" y="0" type="line"/>
      <point x="113" y="0" type="line"/>
      <point x="133" y="95" type="line"/>
      <point x="42" y="95" type="line"/>
    </contour>
  </outline>
</glyph>
<glyph name="quotedbl" format="2">
  <advance width="315"/>
  <unicode hex="0022"/>
  <outline>
    <contour>
      <point x="98" y="471" type="line"/>
      <point x="166" y="471" type="line"/>
      <point x="216" y="707" type="line"/>
      <point x="148" y="707" type="line"/>
    </contour>
    <contour>
      <point x="238" y="471" type="line"/>
      <point x="306" y="471" type="line"/>
      <point x="355" y="707" type="line"/>
      <point x="288" y="707" type="line"/>
    </contour>
  </outline>
</glyph>
<glyph name="numbersign" format="2">
  <advance width="524"/>
  <unicode hex="0023"/>
  <outline>
    <contour>
      <point x="440" y="440" type="line"/>
      <point x="386" y="284" type="line"/>
      <point x="478" y="284" type="line"/>
      <point x="466" y="226" type="line"/>
      <point x="367" y="226" type="line"/>
      <point x="289" y="0" type="line"/>
      <point x="227" y="0" type="line"/>
      <point x="305" y="226" type="line"/>
      <point x="165" y="226" type="line"/>
      <point x="87" y="0" type="line"/>
      <point x="26" y="0" type="line"/>
      <point x="103" y="226" type="line"/>
      <point x="18" y="226" type="line"/>
      <point x="31" y="284" type="line"/>
      <point x="123" y="284" type="line"/>
      <point x="177" y="440" type="line"/>
      <point x="89" y="440" type="line"/>
      <point x="100" y="497" type="line"/>
      <point x="197" y="497" type="line"/>
      <point x="268" y="707" type="line"/>
      <point x="330" y="707" type="line"/>
      <point x="258" y="497" type="line"/>
      <point x="398" y="497" type="line"/>
      <point x="471" y="707" type="line"/>
      <point x="531" y="707" type="line"/>
      <point x="460" y="497" type="line"/>
      <point x="549" y="497" type="line"/>
      <point x="537" y="440" type="line"/>
    </contour>
    <contour>
      <point x="379" y="440" type="line"/>
      <point x="239" y="440" type="line"/>
      <point x="184" y="284" type="line"/>
      <point x="326" y="284" type="line"/>
    </contour>
  </outline>
</glyph>
<glyph name="percent" format="2">
  <advance width="911"/>
  <unicode hex="0025"/>
  <outline>
    <contour>
      <point x="187" y="273" type="curve" smooth="yes"/>
      <point x="230" y="273"/>
      <point x="264" y="286"/>
      <point x="289" y="311" type="curve" smooth="yes"/>
      <point x="314" y="336"/>
      <point x="331" y="374"/>
      <point x="341" y="425" type="curve" smooth="yes"/>
      <point x="371" y="567" type="line" smooth="yes"/>
      <point x="375" y="588"/>
      <point x="377" y="606"/>
      <point x="377" y="623" type="curve" smooth="yes"/>
      <point x="376" y="684"/>
      <point x="342" y="714"/>
      <point x="274" y="714" type="curve" smooth="yes"/>
      <point x="233" y="714"/>
      <point x="201" y="702"/>
      <point x="176" y="677" type="curve" smooth="yes"/>
      <point x="151" y="652"/>
      <point x="133" y="616"/>
      <point x="123" y="567" type="curve" smooth="yes"/>
      <point x="92" y="425" type="line" smooth="yes"/>
      <point x="87" y="406"/>
      <point x="85" y="386"/>
      <point x="85" y="367" type="curve" smooth="yes"/>
      <point x="85" y="305"/>
      <point x="119" y="274"/>
    </contour>
    <contour>
      <point x="675" y="-6" type="curve" smooth="yes"/>
      <point x="718" y="-6"/>
      <point x="751" y="7"/>
      <point x="776" y="32" type="curve" smooth="yes"/>
      <point x="801" y="57"/>
      <point x="818" y="94"/>
      <point x="828" y="145" type="curve" smooth="yes"/>
      <point x="858" y="288" type="line" smooth="yes"/>
      <point x="862" y="308"/>
      <point x="864" y="326"/>
      <point x="864" y="343" type="curve" smooth="yes"/>
      <point x="864" y="404"/>
      <point x="830" y="434"/>
      <point x="762" y="434" type="curve" smooth="yes"/>
      <point x="721" y="434"/>
      <point x="688" y="422"/>
      <point x="663" y="398" type="curve" smooth="yes"/>
      <point x="638" y="373"/>
      <point x="620" y="337"/>
      <point x="610" y="288" type="curve" smooth="yes"/>
      <point x="580" y="145" type="line" smooth="yes"/>
      <point x="575" y="126"/>
      <point x="572" y="106"/>
      <point x="572" y="87" type="curve" smooth="yes"/>
      <point x="572" y="25"/>
      <point x="606" y="-6"/>
    </contour>
    <contour>
      <point x="177" y="0" type="line"/>
      <point x="242" y="0" type="line"/>
      <point x="774" y="707" type="line"/>
      <point x="711" y="707" type="line"/>
    </contour>
    <contour>
      <point x="654" y="63" type="curve" smooth="yes"/>
      <point x="647" y="70"/>
      <point x="643" y="81"/>
      <point x="643" y="96" type="curve" smooth="yes"/>
      <point x="643" y="107"/>
      <point x="645" y="124"/>
      <point x="650" y="148" type="curve" smooth="yes"/>
      <point x="679" y="282" type="line" smooth="yes"/>
      <point x="686" y="315"/>
      <point x="694" y="339"/>
      <point x="705" y="353" type="curve" smooth="yes"/>
      <point x="715" y="367"/>
      <point x="730" y="374"/>
      <point x="751" y="374" type="curve" smooth="yes"/>
      <point x="766" y="374"/>
      <point x="777" y="371"/>
      <point x="784" y="364" type="curve" smooth="yes"/>
      <point x="791" y="357"/>
      <point x="794" y="347"/>
      <point x="794" y="332" type="curve" smooth="yes"/>
      <point x="793" y="323"/>
      <point x="791" y="306"/>
      <point x="786" y="282" type="curve" smooth="yes"/>
      <point x="759" y="148" type="line" smooth="yes"/>
      <point x="752" y="113"/>
      <point x="744" y="89"/>
      <point x="734" y="75" type="curve" smooth="yes"/>
      <point x="723" y="60"/>
      <point x="707" y="53"/>
      <point x="686" y="53" type="curve" smooth="yes"/>
      <point x="671" y="53"/>
      <point x="661" y="56"/>
    </contour>
    <contour>
      <point x="166" y="343" type="curve" smooth="yes"/>
      <point x="159" y="350"/>
      <point x="156" y="361"/>
      <point x="156" y="376" type="curve" smooth="yes"/>
      <point x="156" y="387"/>
      <point x="158" y="404"/>
      <point x="163" y="428" type="curve" smooth="yes"/>
      <point x="191" y="561" type="line" smooth="yes"/>
      <point x="198" y="594"/>
      <point x="207" y="618"/>
      <point x="217" y="632" type="curve" smooth="yes"/>
      <point x="227" y="646"/>
      <point x="242" y="653"/>
      <point x="263" y="653" type="curve" smooth="yes"/>
      <point x="278" y="653"/>
      <point x="289" y="650"/>
      <point x="296" y="643" type="curve" smooth="yes"/>
      <point x="303" y="636"/>
      <point x="306" y="626"/>
      <point x="306" y="611" type="curve" smooth="yes"/>
      <point x="306" y="602"/>
      <point x="304" y="585"/>
      <point x="299" y="561" type="curve" smooth="yes"/>
      <point x="271" y="428" type="line" smooth="yes"/>
      <point x="264" y="393"/>
      <point x="256" y="369"/>
      <point x="246" y="355" type="curve" smooth="yes"/>
      <point x="235" y="340"/>
      <point x="220" y="333"/>
      <point x="199" y="333" type="curve" smooth="yes"/>
      <point x="184" y="333"/>
      <point x="173" y="336"/>
    </contour>
  </outline>
</glyph>
<glyph name="ampersand" format="2">
  <advance width="614"/>
  <unicode hex="0026"/>
  <outline>
    <contour>
      <point x="489" y="67" type="curve" smooth="yes"/>
      <point x="513" y="67" type="line"/>
      <point x="499" y="0" type="line"/>
      <point x="464" y="0" type="line" smooth="yes"/>
      <point x="446" y="0"/>
      <point x="432" y="3"/>
      <point x="423" y="10" type="curve" smooth="yes"/>
      <point x="414" y="16"/>
      <point x="404" y="28"/>
      <point x="395" y="46" type="curve" smooth="yes"/>
      <point x="376" y="86" type="line"/>
      <point x="342" y="52"/>
      <point x="309" y="28"/>
      <point x="278" y="13" type="curve" smooth="yes"/>
      <point x="246" y="-2"/>
      <point x="213" y="-10"/>
      <point x="179" y="-10" type="curve" smooth="yes"/>
      <point x="134" y="-10"/>
      <point x="100" y="3"/>
      <point x="76" y="29" type="curve" smooth="yes"/>
      <point x="51" y="55"/>
      <point x="39" y="90"/>
      <point x="39" y="133" type="curve" smooth="yes"/>
      <point x="39" y="179"/>
      <point x="53" y="222"/>
      <point x="82" y="261" type="curve" smooth="yes"/>
      <point x="110" y="300"/>
      <point x="158" y="344"/>
      <point x="226" y="393" type="curve"/>
      <point x="207" y="431"/>
      <point x="194" y="461"/>
      <point x="187" y="484" type="curve" smooth="yes"/>
      <point x="179" y="507"/>
      <point x="175" y="528"/>
      <point x="175" y="547" type="curve" smooth="yes"/>
      <point x="175" y="579"/>
      <point x="183" y="608"/>
      <point x="198" y="634" type="curve" smooth="yes"/>
      <point x="213" y="660"/>
      <point x="233" y="680"/>
      <point x="259" y="695" type="curve" smooth="yes"/>
      <point x="285" y="710"/>
      <point x="314" y="717"/>
      <point x="345" y="717" type="curve" smooth="yes"/>
      <point x="385" y="717"/>
      <point x="417" y="706"/>
      <point x="442" y="685" type="curve" smooth="yes"/>
      <point x="466" y="663"/>
      <point x="478" y="634"/>
      <point x="478" y="597" type="curve" smooth="yes"/>
      <point x="478" y="559"/>
      <point x="466" y="524"/>
      <point x="441" y="493" type="curve" smooth="yes"/>
      <point x="416" y="462"/>
      <point x="373" y="424"/>
      <point x="311" y="380" type="curve"/>
      <point x="399" y="198" type="line"/>
      <point x="498" y="299" type="line"/>
      <point x="538" y="257" type="line"/>
      <point x="427" y="140" type="line"/>
      <point x="450" y="94" type="line" smooth="yes"/>
      <point x="455" y="85"/>
      <point x="460" y="79"/>
      <point x="467" y="74" type="curve" smooth="yes"/>
      <point x="474" y="69"/>
      <point x="481" y="67"/>
    </contour>
    <contour>
      <point x="348" y="143" type="curve"/>
      <point x="253" y="338" type="line"/>
      <point x="201" y="300"/>
      <point x="164" y="267"/>
      <point x="143" y="238" type="curve" smooth="yes"/>
      <point x="122" y="209"/>
      <point x="111" y="177"/>
      <point x="111" y="142" type="curve" smooth="yes"/>
      <point x="111" y="115"/>
      <point x="119" y="94"/>
      <point x="134" y="79" type="curve" smooth="yes"/>
      <point x="149" y="63"/>
      <point x="169" y="55"/>
      <point x="196" y="55" type="curve" smooth="yes"/>
      <point x="219" y="55"/>
      <point x="242" y="62"/>
      <point x="265" y="75" type="curve" smooth="yes"/>
      <point x="288" y="88"/>
      <point x="315" y="111"/>
    </contour>
    <contour>
      <point x="247" y="557" type="curve" smooth="yes"/>
      <point x="247" y="544"/>
      <point x="250" y="528"/>
      <point x="255" y="510" type="curve" smooth="yes"/>
      <point x="260" y="492"/>
      <point x="270" y="467"/>
      <point x="285" y="435" type="curve"/>
      <point x="318" y="459"/>
      <point x="344" y="479"/>
      <point x="361" y="495" type="curve" smooth="yes"/>
      <point x="378" y="510"/>
      <point x="390" y="525"/>
      <point x="398" y="540" type="curve" smooth="yes"/>
      <point x="405" y="555"/>
      <point x="409" y="572"/>
      <point x="409" y="591" type="curve" smooth="yes"/>
      <point x="409" y="610"/>
      <point x="403" y="626"/>
      <point x="390" y="638" type="curve" smooth="yes"/>
      <point x="377" y="649"/>
      <point x="360" y="655"/>
      <point x="339" y="655" type="curve" smooth="yes"/>
      <point x="312" y="655"/>
      <point x="290" y="646"/>
      <point x="273" y="628" type="curve" smooth="yes"/>
      <point x="256" y="609"/>
      <point x="247" y="586"/>
    </contour>
  </outline>
</glyph>
<glyph name="parenleft" format="2">
  <advance width="295"/>
  <unicode hex="0028"/>
  <outline>
    <contour>
      <point x="109" y="-86" type="curve"/>
      <point x="162" y="-86" type="line"/>
      <point x="139" y="-13"/>
      <point x="128" y="65"/>
      <point x="128" y="148" type="curve" smooth="yes"/>
      <point x="128" y="213"/>
      <point x="134" y="276"/>
      <point x="147" y="336" type="curve" smooth="yes"/>
      <point x="162" y="407"/>
      <point x="186" y="478"/>
      <point x="219" y="550" type="curve" smooth="yes"/>
      <point x="252" y="622"/>
      <point x="292" y="691"/>
      <point x="341" y="758" type="curve"/>
      <point x="288" y="758" type="line"/>
      <point x="178" y="624"/>
      <point x="108" y="483"/>
      <point x="77" y="336" type="curve" smooth="yes"/>
      <point x="65" y="280"/>
      <point x="59" y="226"/>
      <point x="59" y="173" type="curve" smooth="yes"/>
      <point x="59" y="84"/>
      <point x="76" y="-2"/>
    </contour>
  </outline>
</glyph>
<glyph name="parenright" format="2">
  <advance width="295"/>
  <unicode hex="0029"/>
  <outline>
    <contour>
      <point x="-13" y="-86" type="curve"/>
      <point x="40" y="-86" type="line"/>
      <point x="151" y="49"/>
      <point x="222" y="190"/>
      <point x="252" y="336" type="curve" smooth="yes"/>
      <point x="263" y="393"/>
      <point x="269" y="447"/>
      <point x="269" y="498" type="curve" smooth="yes"/>
      <point x="269" y="589"/>
      <point x="252" y="676"/>
      <point x="219" y="758" type="curve"/>
      <point x="166" y="758" type="line"/>
      <point x="189" y="682"/>
      <point x="201" y="603"/>
      <point x="201" y="520" type="curve" smooth="yes"/>
      <point x="200" y="461"/>
      <point x="194" y="399"/>
      <point x="181" y="336" type="curve" smooth="yes"/>
      <point x="167" y="265"/>
      <point x="143" y="194"/>
      <point x="110" y="122" type="curve" smooth="yes"/>
      <point x="76" y="49"/>
      <point x="35" y="-20"/>
    </contour>
  </outline>
</glyph>
<glyph name="asterisk" format="2">
  <advance width="387"/>
  <unicode hex="002A"/>
  <outline>
    <contour>
      <point x="205" y="425" type="line"/>
      <point x="252" y="425" type="line"/>
      <point x="274" y="530" type="line"/>
      <point x="352" y="480" type="line"/>
      <point x="381" y="517" type="line"/>
      <point x="302" y="569" type="line"/>
      <point x="402" y="621" type="line"/>
      <point x="389" y="657" type="line"/>
      <point x="291" y="607" type="line"/>
      <point x="312" y="707" type="line"/>
      <point x="265" y="707" type="line"/>
      <point x="244" y="606" type="line"/>
      <point x="166" y="657" type="line"/>
      <point x="137" y="621" type="line"/>
      <point x="216" y="569" type="line"/>
      <point x="115" y="517" type="line"/>
      <point x="129" y="480" type="line"/>
      <point x="227" y="530" type="line"/>
    </contour>
  </outline>
</glyph>
<glyph name="comma" format="2">
  <advance width="178"/>
  <unicode hex="002C"/>
  <outline>
    <contour>
      <point x="-32" y="-140" type="line"/>
      <point x="52" y="-77" type="line"/>
      <point x="88" y="95" type="line"/>
      <point x="20" y="95" type="line"/>
    </contour>
  </outline>
</glyph>
<glyph name="hyphen" format="2">
  <advance width="402"/>
  <unicode hex="002D"/>
  <outline>
    <contour>
      <point x="75" y="322" type="line"/>
      <point x="356" y="322" type="line"/>
      <point x="370" y="389" type="line"/>
      <point x="88" y="389" type="line"/>
    </contour>
  </outline>
</glyph>
<glyph name="period" format="2">
  <advance width="244"/>
  <unicode hex="002E"/>
  <outline>
    <contour>
      <point x="23" y="0" type="line"/>
      <point x="113" y="0" type="line"/>
      <point x="133" y="94" type="line"/>
      <point x="42" y="94" type="line"/>
    </contour>
  </outline>
</glyph>
<glyph name="slash" format="2">
  <advance width="401"/>
  <unicode hex="002F"/>
  <outline>
    <contour>
      <point x="3" y="-10" type="line"/>
      <point x="65" y="-10" type="line"/>
      <point x="436" y="707" type="line"/>
      <point x="375" y="707" type="line"/>
    </contour>
  </outline>
</glyph>
<glyph name="one" format="2">
  <advance width="336"/>
  <unicode hex="0031"/>
  <outline>
    <contour>
      <point x="118" y="0" type="line"/>
      <point x="191" y="0" type="line"/>
      <point x="342" y="707" type="line"/>
      <point x="267" y="707" type="line"/>
      <point x="126" y="613" type="line"/>
      <point x="109" y="529" type="line"/>
      <point x="250" y="621" type="line"/>
    </contour>
  </outline>
</glyph>
<glyph name="two" format="2">
  <advance width="480"/>
  <unicode hex="0032"/>
  <outline>
    <contour>
      <point x="6" y="0" type="line"/>
      <point x="365" y="0" type="line"/>
      <point x="379" y="67" type="line"/>
      <point x="114" y="67" type="line"/>
      <point x="381" y="361" type="line" smooth="yes"/>
      <point x="408" y="392"/>
      <point x="430" y="419"/>
      <point x="445" y="444" type="curve" smooth="yes"/>
      <point x="460" y="469"/>
      <point x="471" y="495"/>
      <point x="476" y="524" type="curve" smooth="yes"/>
      <point x="481" y="550"/>
      <point x="483" y="569"/>
      <point x="483" y="580" type="curve" smooth="yes"/>
      <point x="483" y="620"/>
      <point x="469" y="653"/>
      <point x="442" y="679" type="curve" smooth="yes"/>
      <point x="415" y="704"/>
      <point x="377" y="717"/>
      <point x="330" y="717" type="curve" smooth="yes"/>
      <point x="275" y="717"/>
      <point x="229" y="701"/>
      <point x="191" y="669" type="curve" smooth="yes"/>
      <point x="153" y="637"/>
      <point x="129" y="594"/>
      <point x="120" y="540" type="curve" smooth="yes"/>
      <point x="116" y="517" type="line"/>
      <point x="190" y="517" type="line"/>
      <point x="195" y="536" type="line" smooth="yes"/>
      <point x="204" y="573"/>
      <point x="219" y="602"/>
      <point x="241" y="621" type="curve" smooth="yes"/>
      <point x="262" y="640"/>
      <point x="289" y="650"/>
      <point x="321" y="650" type="curve" smooth="yes"/>
      <point x="347" y="650"/>
      <point x="368" y="643"/>
      <point x="384" y="629" type="curve" smooth="yes"/>
      <point x="399" y="614"/>
      <point x="407" y="594"/>
      <point x="407" y="569" type="curve" smooth="yes"/>
      <point x="406" y="562"/>
      <point x="404" y="547"/>
      <point x="400" y="523" type="curve" smooth="yes"/>
      <point x="394" y="486"/>
      <point x="370" y="445"/>
      <point x="329" y="400" type="curve" smooth="yes"/>
      <point x="18" y="60" type="line"/>
    </contour>
  </outline>
</glyph>
<glyph name="four" format="2">
  <advance width="510"/>
  <unicode hex="0034"/>
  <outline>
    <contour>
      <point x="257" y="0" type="line"/>
      <point x="332" y="0" type="line"/>
      <point x="361" y="138" type="line"/>
      <point x="438" y="138" type="line"/>
      <point x="453" y="206" type="line"/>
      <point x="376" y="206" type="line"/>
      <point x="417" y="398" type="line"/>
      <point x="342" y="398" type="line"/>
      <point x="301" y="206" type="line"/>
      <point x="117" y="206" type="line"/>
      <point x="435" y="707" type="line"/>
      <point x="354" y="707" type="line"/>
      <point x="37" y="206" type="line"/>
      <point x="22" y="138" type="line"/>
      <point x="287" y="138" type="line"/>
    </contour>
  </outline>
</glyph>
<glyph name="eight" format="2">
  <advance width="524"/>
  <unicode hex="0038"/>
  <outline>
    <contour>
      <point x="212" y="-10" type="curve" smooth="yes"/>
      <point x="269" y="-10"/>
      <point x="318" y="7"/>
      <point x="359" y="42" type="curve" smooth="yes"/>
      <point x="400" y="77"/>
      <point x="427" y="124"/>
      <point x="440" y="183" type="curve" smooth="yes"/>
      <point x="443" y="198"/>
      <point x="446" y="210"/>
      <point x="448" y="221" type="curve" smooth="yes"/>
      <point x="450" y="232"/>
      <point x="451" y="242"/>
      <point x="451" y="251" type="curve" smooth="yes"/>
      <point x="451" y="278"/>
      <point x="445" y="303"/>
      <point x="434" y="324" type="curve" smooth="yes"/>
      <point x="423" y="345"/>
      <point x="405" y="361"/>
      <point x="382" y="372" type="curve"/>
      <point x="411" y="384"/>
      <point x="436" y="403"/>
      <point x="457" y="429" type="curve" smooth="yes"/>
      <point x="478" y="454"/>
      <point x="492" y="484"/>
      <point x="498" y="518" type="curve" smooth="yes"/>
      <point x="502" y="540" type="line" smooth="yes"/>
      <point x="504" y="552"/>
      <point x="505" y="564"/>
      <point x="505" y="575" type="curve" smooth="yes"/>
      <point x="505" y="618"/>
      <point x="491" y="652"/>
      <point x="464" y="678" type="curve" smooth="yes"/>
      <point x="437" y="704"/>
      <point x="399" y="717"/>
      <point x="351" y="717" type="curve" smooth="yes"/>
      <point x="297" y="717"/>
      <point x="251" y="701"/>
      <point x="213" y="668" type="curve" smooth="yes"/>
      <point x="174" y="635"/>
      <point x="150" y="592"/>
      <point x="141" y="541" type="curve" smooth="yes"/>
      <point x="140" y="533"/>
      <point x="138" y="524"/>
      <point x="136" y="515" type="curve" smooth="yes"/>
      <point x="134" y="505"/>
      <point x="133" y="494"/>
      <point x="133" y="481" type="curve" smooth="yes"/>
      <point x="133" y="430"/>
      <point x="152" y="394"/>
      <point x="190" y="373" type="curve"/>
      <point x="156" y="358"/>
      <point x="127" y="337"/>
      <point x="103" y="308" type="curve" smooth="yes"/>
      <point x="79" y="279"/>
      <point x="64" y="246"/>
      <point x="57" y="209" type="curve" smooth="yes"/>
      <point x="51" y="176"/>
      <point x="48" y="152"/>
      <point x="48" y="139" type="curve" smooth="yes"/>
      <point x="48" y="94"/>
      <point x="63" y="58"/>
      <point x="93" y="31" type="curve" smooth="yes"/>
      <point x="122" y="4"/>
      <point x="162" y="-10"/>
    </contour>
    <contour>
      <point x="149" y="83" type="curve" smooth="yes"/>
      <point x="132" y="101"/>
      <point x="123" y="125"/>
      <point x="123" y="155" type="curve" smooth="yes"/>
      <point x="123" y="164"/>
      <point x="126" y="183"/>
      <point x="132" y="211" type="curve" smooth="yes"/>
      <point x="140" y="249"/>
      <point x="157" y="280"/>
      <point x="184" y="303" type="curve" smooth="yes"/>
      <point x="211" y="326"/>
      <point x="242" y="338"/>
      <point x="278" y="338" type="curve" smooth="yes"/>
      <point x="309" y="338"/>
      <point x="333" y="329"/>
      <point x="350" y="312" type="curve" smooth="yes"/>
      <point x="367" y="295"/>
      <point x="375" y="271"/>
      <point x="375" y="242" type="curve" smooth="yes"/>
      <point x="375" y="233"/>
      <point x="374" y="225"/>
      <point x="373" y="218" type="curve" smooth="yes"/>
      <point x="372" y="210"/>
      <point x="369" y="199"/>
      <point x="366" y="184" type="curve" smooth="yes"/>
      <point x="357" y="145"/>
      <point x="339" y="114"/>
      <point x="314" y="91" type="curve" smooth="yes"/>
      <point x="288" y="68"/>
      <point x="257" y="56"/>
      <point x="221" y="56" type="curve" smooth="yes"/>
      <point x="190" y="56"/>
      <point x="166" y="65"/>
    </contour>
    <contour>
      <point x="232" y="427" type="curve" smooth="yes"/>
      <point x="216" y="442"/>
      <point x="208" y="463"/>
      <point x="208" y="489" type="curve" smooth="yes"/>
      <point x="208" y="496"/>
      <point x="210" y="513"/>
      <point x="215" y="540" type="curve" smooth="yes"/>
      <point x="220" y="572"/>
      <point x="235" y="598"/>
      <point x="259" y="619" type="curve" smooth="yes"/>
      <point x="283" y="640"/>
      <point x="311" y="650"/>
      <point x="342" y="650" type="curve" smooth="yes"/>
      <point x="369" y="650"/>
      <point x="391" y="643"/>
      <point x="407" y="628" type="curve" smooth="yes"/>
      <point x="422" y="613"/>
      <point x="430" y="592"/>
      <point x="430" y="567" type="curve" smooth="yes"/>
      <point x="430" y="559"/>
      <point x="429" y="550"/>
      <point x="427" y="541" type="curve" smooth="yes"/>
      <point x="423" y="518" type="line" smooth="yes"/>
      <point x="417" y="485"/>
      <point x="402" y="457"/>
      <point x="379" y="436" type="curve" smooth="yes"/>
      <point x="356" y="415"/>
      <point x="328" y="404"/>
      <point x="295" y="404" type="curve" smooth="yes"/>
      <point x="268" y="404"/>
      <point x="247" y="412"/>
    </contour>
  </outline>
</glyph>
<glyph name="nine" format="2">
  <advance width="505"/>
  <unicode hex="0039"/>
  <outline>
    <contour>
      <point x="105" y="0" type="line"/>
      <point x="187" y="0" type="line"/>
      <point x="422" y="333" type="line" smooth="yes"/>
      <point x="441" y="360"/>
      <point x="457" y="386"/>
      <point x="469" y="409" type="curve" smooth="yes"/>
      <point x="480" y="432"/>
      <point x="488" y="456"/>
      <point x="493" y="481" type="curve" smooth="yes"/>
      <point x="497" y="503"/>
      <point x="500" y="521"/>
      <point x="502" y="534" type="curve" smooth="yes"/>
      <point x="504" y="547"/>
      <point x="505" y="558"/>
      <point x="505" y="567" type="curve" smooth="yes"/>
      <point x="505" y="614"/>
      <point x="490" y="650"/>
      <point x="461" y="677" type="curve" smooth="yes"/>
      <point x="431" y="704"/>
      <point x="391" y="717"/>
      <point x="340" y="717" type="curve" smooth="yes"/>
      <point x="284" y="717"/>
      <point x="236" y="700"/>
      <point x="195" y="666" type="curve" smooth="yes"/>
      <point x="154" y="631"/>
      <point x="128" y="583"/>
      <point x="116" y="521" type="curve" smooth="yes"/>
      <point x="115" y="516"/>
      <point x="113" y="508"/>
      <point x="111" y="497" type="curve" smooth="yes"/>
      <point x="105" y="465" type="line" smooth="yes"/>
      <point x="103" y="454"/>
      <point x="102" y="444"/>
      <point x="102" y="433" type="curve" smooth="yes"/>
      <point x="102" y="388"/>
      <point x="115" y="353"/>
      <point x="140" y="328" type="curve" smooth="yes"/>
      <point x="165" y="302"/>
      <point x="199" y="289"/>
      <point x="243" y="289" type="curve" smooth="yes"/>
      <point x="258" y="289"/>
      <point x="273" y="291"/>
      <point x="288" y="295" type="curve" smooth="yes"/>
      <point x="303" y="299"/>
      <point x="315" y="304"/>
      <point x="324" y="310" type="curve"/>
    </contour>
    <contour>
      <point x="204" y="381" type="curve" smooth="yes"/>
      <point x="187" y="398"/>
      <point x="179" y="421"/>
      <point x="179" y="450" type="curve" smooth="yes"/>
      <point x="179" y="461"/>
      <point x="183" y="485"/>
      <point x="190" y="520" type="curve" smooth="yes"/>
      <point x="199" y="561"/>
      <point x="216" y="593"/>
      <point x="242" y="616" type="curve" smooth="yes"/>
      <point x="267" y="639"/>
      <point x="298" y="650"/>
      <point x="333" y="650" type="curve" smooth="yes"/>
      <point x="363" y="650"/>
      <point x="387" y="642"/>
      <point x="404" y="625" type="curve" smooth="yes"/>
      <point x="421" y="608"/>
      <point x="429" y="585"/>
      <point x="429" y="556" type="curve" smooth="yes"/>
      <point x="429" y="545"/>
      <point x="425" y="520"/>
      <point x="418" y="483" type="curve" smooth="yes"/>
      <point x="411" y="444"/>
      <point x="394" y="414"/>
      <point x="368" y="391" type="curve" smooth="yes"/>
      <point x="342" y="368"/>
      <point x="311" y="356"/>
      <point x="274" y="356" type="curve" smooth="yes"/>
      <point x="244" y="356"/>
      <point x="221" y="364"/>
    </contour>
  </outline>
</glyph>
<glyph name="colon" format="2">
  <advance width="198"/>
  <unicode hex="003A"/>
  <outline>
    <contour>
      <point x="-1" y="0" type="line"/>
      <point x="89" y="0" type="line"/>
      <point x="110" y="94" type="line"/>
      <point x="18" y="94" type="line"/>
    </contour>
    <contour>
      <point x="73" y="346" type="line"/>
      <point x="163" y="346" type="line"/>
      <point x="183" y="440" type="line"/>
      <point x="92" y="440" type="line"/>
    </contour>
  </outline>
</glyph>
<glyph name="semicolon" format="2">
  <advance width="199"/>
  <unicode hex="003B"/>
  <outline>
    <contour>
      <point x="-10" y="-140" type="line"/>
      <point x="74" y="-77" type="line"/>
      <point x="110" y="95" type="line"/>
      <point x="42" y="95" type="line"/>
    </contour>
    <contour>
      <point x="73" y="346" type="line"/>
      <point x="163" y="346" type="line"/>
      <point x="183" y="440" type="line"/>
      <point x="92" y="440" type="line"/>
    </contour>
  </outline>
</glyph>
<glyph name="less" format="2">
  <advance width="524"/>
  <unicode hex="003C"/>
  <outline>
    <contour>
      <point x="453" y="86" type="line"/>
      <point x="453" y="159" type="line"/>
      <point x="140" y="283" type="line"/>
      <point x="453" y="407" type="line"/>
      <point x="453" y="479" type="line"/>
      <point x="45" y="313" type="line"/>
      <point x="45" y="253" type="line"/>
    </contour>
  </outline>
</glyph>
<glyph name="equal" format="2">
  <advance width="524"/>
  <unicode hex="003D"/>
  <outline>
    <contour>
      <point x="62" y="346" type="line"/>
      <point x="470" y="346" type="line"/>
      <point x="470" y="415" type="line"/>
      <point x="62" y="415" type="line"/>
    </contour>
    <contour>
      <point x="62" y="151" type="line"/>
      <point x="470" y="151" type="line"/>
      <point x="470" y="218" type="line"/>
      <point x="62" y="218" type="line"/>
    </contour>
  </outline>
</glyph>
<glyph name="question" format="2">
  <advance width="440"/>
  <unicode hex="003F"/>
  <outline>
    <contour>
      <point x="173" y="243" type="line" smooth="yes"/>
      <point x="178" y="268"/>
      <point x="185" y="288"/>
      <point x="193" y="303" type="curve" smooth="yes"/>
      <point x="201" y="318"/>
      <point x="215" y="336"/>
      <point x="236" y="357" type="curve" smooth="yes"/>
      <point x="306" y="432" type="line" smooth="yes"/>
      <point x="330" y="457"/>
      <point x="347" y="478"/>
      <point x="357" y="494" type="curve" smooth="yes"/>
      <point x="367" y="509"/>
      <point x="374" y="527"/>
      <point x="378" y="546" type="curve" smooth="yes"/>
      <point x="380" y="556"/>
      <point x="381" y="565"/>
      <point x="381" y="574" type="curve" smooth="yes"/>
      <point x="381" y="598"/>
      <point x="374" y="617"/>
      <point x="360" y="630" type="curve" smooth="yes"/>
      <point x="345" y="643"/>
      <point x="324" y="649"/>
      <point x="297" y="649" type="curve" smooth="yes"/>
      <point x="231" y="649"/>
      <point x="189" y="612"/>
      <point x="172" y="538" type="curve"/>
      <point x="97" y="538" type="line"/>
      <point x="110" y="596"/>
      <point x="136" y="640"/>
      <point x="173" y="671" type="curve" smooth="yes"/>
      <point x="210" y="702"/>
      <point x="256" y="717"/>
      <point x="313" y="717" type="curve" smooth="yes"/>
      <point x="359" y="717"/>
      <point x="395" y="705"/>
      <point x="420" y="682" type="curve" smooth="yes"/>
      <point x="445" y="659"/>
      <point x="457" y="627"/>
      <point x="457" y="588" type="curve" smooth="yes"/>
      <point x="457" y="573"/>
      <point x="456" y="559"/>
      <point x="453" y="546" type="curve" smooth="yes"/>
      <point x="448" y="521"/>
      <point x="440" y="499"/>
      <point x="427" y="478" type="curve" smooth="yes"/>
      <point x="414" y="457"/>
      <point x="396" y="434"/>
      <point x="371" y="409" type="curve" smooth="yes"/>
      <point x="295" y="327" type="line" smooth="yes"/>
      <point x="280" y="311"/>
      <point x="269" y="297"/>
      <point x="263" y="286" type="curve" smooth="yes"/>
      <point x="257" y="274"/>
      <point x="252" y="259"/>
      <point x="248" y="242" type="curve" smooth="yes"/>
      <point x="234" y="182" type="line"/>
      <point x="160" y="182" type="line"/>
    </contour>
    <contour>
      <point x="133" y="95" type="line"/>
      <point x="224" y="95" type="line"/>
      <point x="204" y="0" type="line"/>
      <point x="113" y="0" type="line"/>
    </contour>
  </outline>
</glyph>
<glyph name="at" format="2">
  <advance width="892"/>
  <unicode hex="0040"/>
  <outline>
    <contour>
      <point x="49" y="165" type="curve" smooth="yes"/>
      <point x="49" y="195"/>
      <point x="52" y="225"/>
      <point x="59" y="255" type="curve" smooth="yes"/>
      <point x="75" y="325" type="line" smooth="yes"/>
      <point x="92" y="402"/>
      <point x="121" y="469"/>
      <point x="161" y="526" type="curve" smooth="yes"/>
      <point x="200" y="583"/>
      <point x="251" y="627"/>
      <point x="314" y="659" type="curve" smooth="yes"/>
      <point x="376" y="691"/>
      <point x="446" y="707"/>
      <point x="525" y="707" type="curve" smooth="yes"/>
      <point x="590" y="707"/>
      <point x="648" y="695"/>
      <point x="698" y="670" type="curve" smooth="yes"/>
      <point x="748" y="645"/>
      <point x="787" y="611"/>
      <point x="815" y="566" type="curve" smooth="yes"/>
      <point x="842" y="521"/>
      <point x="856" y="469"/>
      <point x="856" y="410" type="curve" smooth="yes"/>
      <point x="856" y="383"/>
      <point x="853" y="356"/>
      <point x="847" y="327" type="curve" smooth="yes"/>
      <point x="833" y="258" type="line" smooth="yes"/>
      <point x="818" y="191"/>
      <point x="793" y="141"/>
      <point x="758" y="108" type="curve" smooth="yes"/>
      <point x="723" y="74"/>
      <point x="682" y="57"/>
      <point x="636" y="57" type="curve" smooth="yes"/>
      <point x="608" y="57"/>
      <point x="585" y="63"/>
      <point x="568" y="76" type="curve" smooth="yes"/>
      <point x="550" y="89"/>
      <point x="538" y="107"/>
      <point x="532" y="130" type="curve"/>
      <point x="501" y="81"/>
      <point x="455" y="57"/>
      <point x="394" y="57" type="curve" smooth="yes"/>
      <point x="352" y="57"/>
      <point x="320" y="68"/>
      <point x="299" y="91" type="curve" smooth="yes"/>
      <point x="277" y="114"/>
      <point x="266" y="145"/>
      <point x="266" y="185" type="curve" smooth="yes"/>
      <point x="266" y="203"/>
      <point x="268" y="222"/>
      <point x="272" y="243" type="curve" smooth="yes"/>
      <point x="290" y="325" type="line" smooth="yes"/>
      <point x="317" y="449"/>
      <point x="379" y="511"/>
      <point x="478" y="511" type="curve" smooth="yes"/>
      <point x="504" y="511"/>
      <point x="526" y="506"/>
      <point x="544" y="496" type="curve" smooth="yes"/>
      <point x="561" y="486"/>
      <point x="574" y="472"/>
      <point x="583" y="455" type="curve"/>
      <point x="592" y="501" type="line"/>
      <point x="659" y="501" type="line"/>
      <point x="596" y="205" type="line" smooth="yes"/>
      <point x="594" y="194"/>
      <point x="593" y="184"/>
      <point x="593" y="175" type="curve" smooth="yes"/>
      <point x="593" y="155"/>
      <point x="598" y="140"/>
      <point x="609" y="131" type="curve" smooth="yes"/>
      <point x="619" y="121"/>
      <point x="632" y="116"/>
      <point x="649" y="116" type="curve" smooth="yes"/>
      <point x="675" y="116"/>
      <point x="697" y="127"/>
      <point x="715" y="149" type="curve" smooth="yes"/>
      <point x="732" y="170"/>
      <point x="747" y="206"/>
      <point x="759" y="257" type="curve" smooth="yes"/>
      <point x="774" y="326" type="line" smooth="yes"/>
      <point x="780" y="355"/>
      <point x="783" y="382"/>
      <point x="783" y="407" type="curve" smooth="yes"/>
      <point x="783" y="480"/>
      <point x="760" y="538"/>
      <point x="715" y="579" type="curve" smooth="yes"/>
      <point x="670" y="620"/>
      <point x="606" y="641"/>
      <point x="524" y="641" type="curve" smooth="yes"/>
      <point x="421" y="641"/>
      <point x="337" y="613"/>
      <point x="274" y="558" type="curve" smooth="yes"/>
      <point x="210" y="502"/>
      <point x="168" y="425"/>
      <point x="147" y="327" type="curve" smooth="yes"/>
      <point x="132" y="254" type="line" smooth="yes"/>
      <point x="126" y="225"/>
      <point x="123" y="198"/>
      <point x="123" y="172" type="curve" smooth="yes"/>
      <point x="123" y="99"/>
      <point x="146" y="42"/>
      <point x="191" y="-1" type="curve" smooth="yes"/>
      <point x="236" y="-44"/>
      <point x="300" y="-65"/>
      <point x="381" y="-65" type="curve" smooth="yes"/>
      <point x="426" y="-65"/>
      <point x="467" y="-61"/>
      <point x="503" y="-52" type="curve" smooth="yes"/>
      <point x="539" y="-43"/>
      <point x="576" y="-30"/>
      <point x="613" y="-12" type="curve"/>
      <point x="633" y="-71" type="line"/>
      <point x="592" y="-92"/>
      <point x="551" y="-108"/>
      <point x="510" y="-117" type="curve" smooth="yes"/>
      <point x="469" y="-126"/>
      <point x="424" y="-131"/>
      <point x="375" y="-131" type="curve" smooth="yes"/>
      <point x="310" y="-131"/>
      <point x="253" y="-119"/>
      <point x="204" y="-94" type="curve" smooth="yes"/>
      <point x="155" y="-70"/>
      <point x="117" y="-36"/>
      <point x="90" y="9" type="curve" smooth="yes"/>
      <point x="63" y="54"/>
      <point x="49" y="106"/>
    </contour>
    <contour>
      <point x="535" y="243" type="curve" smooth="yes"/>
      <point x="553" y="327" type="line" smooth="yes"/>
      <point x="556" y="342"/>
      <point x="558" y="357"/>
      <point x="558" y="373" type="curve" smooth="yes"/>
      <point x="558" y="426"/>
      <point x="533" y="452"/>
      <point x="483" y="452" type="curve" smooth="yes"/>
      <point x="418" y="452"/>
      <point x="377" y="409"/>
      <point x="359" y="324" type="curve" smooth="yes"/>
      <point x="343" y="248" type="line" smooth="yes"/>
      <point x="339" y="229"/>
      <point x="337" y="211"/>
      <point x="337" y="196" type="curve" smooth="yes"/>
      <point x="337" y="143"/>
      <point x="362" y="117"/>
      <point x="413" y="117" type="curve" smooth="yes"/>
      <point x="476" y="117"/>
      <point x="516" y="159"/>
    </contour>
  </outline>
</glyph>
<glyph name="A" format="2">
  <advance width="583"/>
  <unicode hex="0041"/>
  <anchor x="370" y="692" name="top"/>
  <outline>
    <contour>
      <point x="-51" y="0" type="line"/>
      <point x="28" y="0" type="line"/>
      <point x="123" y="170" type="line"/>
      <point x="423" y="170" type="line"/>
      <point x="446" y="0" type="line"/>
      <point x="524" y="0" type="line"/>
      <point x="419" y="707" type="line"/>
      <point x="355" y="707" type="line"/>
    </contour>
    <contour>
      <point x="159" y="233" type="line"/>
      <point x="365" y="602" type="line"/>
      <point x="415" y="233" type="line"/>
    </contour>
  </outline>
</glyph>
<glyph name="B" format="2">
  <advance width="631"/>
  <unicode hex="0042"/>
  <outline>
    <contour>
      <point x="27" y="0" type="line"/>
      <point x="292" y="0" type="line" smooth="yes"/>
      <point x="342" y="0"/>
      <point x="387" y="9"/>
      <point x="426" y="28" type="curve" smooth="yes"/>
      <point x="465" y="47"/>
      <point x="496" y="74"/>
      <point x="519" y="109" type="curve" smooth="yes"/>
      <point x="542" y="144"/>
      <point x="553" y="185"/>
      <point x="553" y="233" type="curve" smooth="yes"/>
      <point x="553" y="265"/>
      <point x="545" y="292"/>
      <point x="530" y="315" type="curve" smooth="yes"/>
      <point x="515" y="338"/>
      <point x="492" y="354"/>
      <point x="463" y="364" type="curve"/>
      <point x="507" y="377"/>
      <point x="543" y="401"/>
      <point x="570" y="438" type="curve" smooth="yes"/>
      <point x="597" y="474"/>
      <point x="611" y="515"/>
      <point x="611" y="560" type="curve" smooth="yes"/>
      <point x="611" y="607"/>
      <point x="596" y="643"/>
      <point x="565" y="669" type="curve" smooth="yes"/>
      <point x="534" y="694"/>
      <point x="489" y="707"/>
      <point x="431" y="707" type="curve" smooth="yes"/>
      <point x="177" y="707" type="line"/>
    </contour>
    <contour>
      <point x="116" y="67" type="line"/>
      <point x="171" y="328" type="line"/>
      <point x="356" y="328" type="line" smooth="yes"/>
      <point x="396" y="328"/>
      <point x="426" y="320"/>
      <point x="447" y="303" type="curve" smooth="yes"/>
      <point x="467" y="286"/>
      <point x="477" y="261"/>
      <point x="477" y="228" type="curve" smooth="yes"/>
      <point x="477" y="179"/>
      <point x="460" y="140"/>
      <point x="427" y="111" type="curve" smooth="yes"/>
      <point x="394" y="82"/>
      <point x="349" y="67"/>
      <point x="293" y="67" type="curve" smooth="yes"/>
    </contour>
    <contour>
      <point x="185" y="394" type="line"/>
      <point x="238" y="640" type="line"/>
      <point x="417" y="640" type="line" smooth="yes"/>
      <point x="496" y="640"/>
      <point x="535" y="609"/>
      <point x="535" y="547" type="curve" smooth="yes"/>
      <point x="535" y="499"/>
      <point x="518" y="462"/>
      <point x="483" y="435" type="curve" smooth="yes"/>
      <point x="448" y="408"/>
      <point x="403" y="394"/>
      <point x="350" y="394" type="curve" smooth="yes"/>
    </contour>
  </outline>
</glyph>
<glyph name="C" format="2">
  <advance width="624"/>
  <unicode hex="0043"/>
  <outline>
    <contour>
      <point x="59" y="179" type="curve" smooth="yes"/>
      <point x="59" y="204"/>
      <point x="62" y="231"/>
      <point x="69" y="262" type="curve" smooth="yes"/>
      <point x="108" y="445" type="line" smooth="yes"/>
      <point x="128" y="540"/>
      <point x="164" y="609"/>
      <point x="215" y="652" type="curve" smooth="yes"/>
      <point x="266" y="695"/>
      <point x="329" y="716"/>
      <point x="404" y="716" type="curve" smooth="yes"/>
      <point x="470" y="716"/>
      <point x="521" y="700"/>
      <point x="557" y="667" type="curve" smooth="yes"/>
      <point x="592" y="634"/>
      <point x="610" y="588"/>
      <point x="610" y="530" type="curve" smooth="yes"/>
      <point x="610" y="519"/>
      <point x="609" y="508"/>
      <point x="607" y="497" type="curve"/>
      <point x="532" y="497" type="line"/>
      <point x="533" y="503"/>
      <point x="534" y="511"/>
      <point x="535" y="522" type="curve" smooth="yes"/>
      <point x="535" y="562"/>
      <point x="523" y="593"/>
      <point x="500" y="615" type="curve" smooth="yes"/>
      <point x="476" y="637"/>
      <point x="441" y="648"/>
      <point x="395" y="648" type="curve" smooth="yes"/>
      <point x="339" y="648"/>
      <point x="294" y="632"/>
      <point x="259" y="600" type="curve" smooth="yes"/>
      <point x="224" y="568"/>
      <point x="198" y="515"/>
      <point x="182" y="442" type="curve" smooth="yes"/>
      <point x="142" y="258" type="line" smooth="yes"/>
      <point x="137" y="232"/>
      <point x="134" y="210"/>
      <point x="134" y="193" type="curve" smooth="yes"/>
      <point x="134" y="148"/>
      <point x="147" y="114"/>
      <point x="173" y="93" type="curve" smooth="yes"/>
      <point x="199" y="71"/>
      <point x="235" y="60"/>
      <point x="282" y="60" type="curve" smooth="yes"/>
      <point x="333" y="60"/>
      <point x="374" y="73"/>
      <point x="406" y="99" type="curve" smooth="yes"/>
      <point x="438" y="125"/>
      <point x="460" y="161"/>
      <point x="471" y="208" type="curve" smooth="yes"/>
      <point x="472" y="212" type="line"/>
      <point x="545" y="212" type="line"/>
      <point x="544" y="208" type="line" smooth="yes"/>
      <point x="527" y="141"/>
      <point x="494" y="89"/>
      <point x="447" y="50" type="curve" smooth="yes"/>
      <point x="400" y="11"/>
      <point x="340" y="-8"/>
      <point x="268" y="-8" type="curve" smooth="yes"/>
      <point x="205" y="-8"/>
      <point x="154" y="7"/>
      <point x="116" y="38" type="curve" smooth="yes"/>
      <point x="78" y="68"/>
      <point x="59" y="115"/>
    </contour>
  </outline>
</glyph>
<glyph name="D" format="2">
  <advance width="634"/>
  <unicode hex="0044"/>
  <outline>
    <contour>
      <point x="27" y="0" type="line"/>
      <point x="268" y="0" type="line" smooth="yes"/>
      <point x="343" y="0"/>
      <point x="407" y="22"/>
      <point x="460" y="65" type="curve" smooth="yes"/>
      <point x="513" y="108"/>
      <point x="549" y="176"/>
      <point x="569" y="269" type="curve" smooth="yes"/>
      <point x="605" y="437" type="line" smooth="yes"/>
      <point x="612" y="468"/>
      <point x="615" y="498"/>
      <point x="615" y="525" type="curve" smooth="yes"/>
      <point x="615" y="588"/>
      <point x="597" y="635"/>
      <point x="562" y="664" type="curve" smooth="yes"/>
      <point x="527" y="693"/>
      <point x="478" y="707"/>
      <point x="417" y="707" type="curve" smooth="yes"/>
      <point x="177" y="707" type="line"/>
    </contour>
    <contour>
      <point x="117" y="68" type="line"/>
      <point x="238" y="639" type="line"/>
      <point x="408" y="639" type="line" smooth="yes"/>
      <point x="451" y="639"/>
      <point x="483" y="629"/>
      <point x="506" y="610" type="curve" smooth="yes"/>
      <point x="529" y="590"/>
      <point x="540" y="558"/>
      <point x="540" y="515" type="curve" smooth="yes"/>
      <point x="539" y="495"/>
      <point x="536" y="468"/>
      <point x="529" y="434" type="curve" smooth="yes"/>
      <point x="494" y="265" type="line" smooth="yes"/>
      <point x="466" y="134"/>
      <point x="396" y="68"/>
      <point x="283" y="68" type="curve" smooth="yes"/>
    </contour>
  </outline>
</glyph>
<glyph name="F" format="2">
  <advance width="551"/>
  <unicode hex="0046"/>
  <outline>
    <contour>
      <point x="27" y="0" type="line"/>
      <point x="101" y="0" type="line"/>
      <point x="170" y="324" type="line"/>
      <point x="473" y="324" type="line"/>
      <point x="487" y="391" type="line"/>
      <point x="184" y="391" type="line"/>
      <point x="238" y="639" type="line"/>
      <point x="592" y="639" type="line"/>
      <point x="606" y="707" type="line"/>
      <point x="177" y="707" type="line"/>
    </contour>
  </outline>
</glyph>
<glyph name="G" format="2">
  <advance width="624"/>
  <unicode hex="0047"/>
  <outline>
    <contour>
      <point x="269" y="-8" type="curve" smooth="yes"/>
      <point x="424" y="-8"/>
      <point x="519" y="78"/>
      <point x="555" y="251" type="curve" smooth="yes"/>
      <point x="579" y="364" type="line"/>
      <point x="336" y="364" type="line"/>
      <point x="322" y="299" type="line"/>
      <point x="490" y="299" type="line"/>
      <point x="477" y="238" type="line" smooth="yes"/>
      <point x="464" y="176"/>
      <point x="441" y="131"/>
      <point x="408" y="103" type="curve" smooth="yes"/>
      <point x="374" y="74"/>
      <point x="330" y="60"/>
      <point x="275" y="60" type="curve" smooth="yes"/>
      <point x="181" y="60"/>
      <point x="134" y="103"/>
      <point x="134" y="188" type="curve" smooth="yes"/>
      <point x="134" y="207"/>
      <point x="137" y="231"/>
      <point x="142" y="258" type="curve" smooth="yes"/>
      <point x="182" y="442" type="line" smooth="yes"/>
      <point x="198" y="515"/>
      <point x="224" y="567"/>
      <point x="259" y="600" type="curve" smooth="yes"/>
      <point x="294" y="632"/>
      <point x="340" y="648"/>
      <point x="397" y="648" type="curve" smooth="yes"/>
      <point x="443" y="648"/>
      <point x="477" y="637"/>
      <point x="499" y="616" type="curve" smooth="yes"/>
      <point x="521" y="595"/>
      <point x="532" y="564"/>
      <point x="532" y="525" type="curve" smooth="yes"/>
      <point x="531" y="498" type="line"/>
      <point x="606" y="498" type="line"/>
      <point x="606" y="506"/>
      <point x="606" y="513"/>
      <point x="607" y="519" type="curve" smooth="yes"/>
      <point x="608" y="524"/>
      <point x="608" y="529"/>
      <point x="608" y="532" type="curve" smooth="yes"/>
      <point x="608" y="589"/>
      <point x="590" y="634"/>
      <point x="555" y="667" type="curve" smooth="yes"/>
      <point x="520" y="700"/>
      <point x="469" y="716"/>
      <point x="403" y="716" type="curve" smooth="yes"/>
      <point x="329" y="716"/>
      <point x="266" y="694"/>
      <point x="215" y="651" type="curve" smooth="yes"/>
      <point x="164" y="608"/>
      <point x="128" y="539"/>
      <point x="108" y="445" type="curve" smooth="yes"/>
      <point x="69" y="262" type="line" smooth="yes"/>
      <point x="62" y="231"/>
      <point x="59" y="204"/>
      <point x="59" y="180" type="curve" smooth="yes"/>
      <point x="59" y="115"/>
      <point x="78" y="68"/>
      <point x="116" y="38" type="curve" smooth="yes"/>
      <point x="154" y="7"/>
      <point x="205" y="-8"/>
    </contour>
  </outline>
</glyph>
<glyph name="H" format="2">
  <advance width="644"/>
  <unicode hex="0048"/>
  <outline>
    <contour>
      <point x="27" y="0" type="line"/>
      <point x="101" y="0" type="line"/>
      <point x="171" y="328" type="line"/>
      <point x="502" y="328" type="line"/>
      <point x="432" y="0" type="line"/>
      <point x="507" y="0" type="line"/>
      <point x="657" y="707" type="line"/>
      <point x="583" y="707" type="line"/>
      <point x="516" y="395" type="line"/>
      <point x="185" y="395" type="line"/>
      <point x="252" y="707" type="line"/>
      <point x="177" y="707" type="line"/>
    </contour>
  </outline>
</glyph>
<glyph name="J" format="2">
  <advance width="320"/>
  <unicode hex="004A"/>
  <anchor x="340" y="707" name="top"/>
  <outline>
    <contour>
      <point x="-22" y="0" type="line"/>
      <point x="47" y="0" type="line" smooth="yes"/>
      <point x="89" y="0"/>
      <point x="124" y="12"/>
      <point x="150" y="35" type="curve" smooth="yes"/>
      <point x="177" y="58"/>
      <point x="194" y="92"/>
      <point x="203" y="136" type="curve" smooth="yes"/>
      <point x="322" y="707" type="line"/>
      <point x="248" y="707" type="line"/>
      <point x="131" y="145" type="line" smooth="yes"/>
      <point x="126" y="118"/>
      <point x="116" y="98"/>
      <point x="104" y="86" type="curve" smooth="yes"/>
      <point x="91" y="74"/>
      <point x="73" y="68"/>
      <point x="50" y="68" type="curve" smooth="yes"/>
      <point x="-8" y="68" type="line"/>
    </contour>
  </outline>
</glyph>
<glyph name="K" format="2">
  <advance width="606"/>
  <unicode hex="004B"/>
  <outline>
    <contour>
      <point x="27" y="0" type="line"/>
      <point x="101" y="0" type="line"/>
      <point x="143" y="195" type="line"/>
      <point x="325" y="373" type="line"/>
      <point x="463" y="0" type="line"/>
      <point x="543" y="0" type="line"/>
      <point x="381" y="427" type="line"/>
      <point x="668" y="707" type="line"/>
      <point x="577" y="707" type="line"/>
      <point x="166" y="304" type="line"/>
      <point x="252" y="707" type="line"/>
      <point x="177" y="707" type="line"/>
    </contour>
  </outline>
</glyph>
<glyph name="L" format="2">
  <advance width="542"/>
  <unicode hex="004C"/>
  <outline>
    <contour>
      <point x="28" y="0" type="line"/>
      <point x="455" y="0" type="line"/>
      <point x="469" y="68" type="line"/>
      <point x="117" y="68" type="line"/>
      <point x="252" y="707" type="line"/>
      <point x="177" y="707" type="line"/>
    </contour>
  </outline>
</glyph>
<glyph name="P" format="2">
  <advance width="592"/>
  <unicode hex="0050"/>
  <outline>
    <contour>
      <point x="27" y="0" type="line"/>
      <point x="101" y="0" type="line"/>
      <point x="163" y="287" type="line"/>
      <point x="340" y="287" type="line" smooth="yes"/>
      <point x="393" y="287"/>
      <point x="441" y="298"/>
      <point x="483" y="319" type="curve" smooth="yes"/>
      <point x="524" y="340"/>
      <point x="556" y="369"/>
      <point x="579" y="407" type="curve" smooth="yes"/>
      <point x="602" y="445"/>
      <point x="613" y="489"/>
      <point x="613" y="539" type="curve" smooth="yes"/>
      <point x="613" y="590"/>
      <point x="597" y="630"/>
      <point x="565" y="659" type="curve" smooth="yes"/>
      <point x="532" y="687"/>
      <point x="487" y="701"/>
      <point x="429" y="701" type="curve" smooth="yes"/>
      <point x="176" y="701" type="line"/>
    </contour>
    <contour>
      <point x="177" y="353" type="line"/>
      <point x="237" y="634" type="line"/>
      <point x="410" y="634" type="line" smooth="yes"/>
      <point x="495" y="633"/>
      <point x="538" y="598"/>
      <point x="538" y="528" type="curve" smooth="yes"/>
      <point x="538" y="471"/>
      <point x="521" y="428"/>
      <point x="486" y="398" type="curve" smooth="yes"/>
      <point x="451" y="368"/>
      <point x="405" y="353"/>
      <point x="347" y="353" type="curve" smooth="yes"/>
    </contour>
  </outline>
</glyph>
<glyph name="Q" format="2">
  <advance width="623"/>
  <unicode hex="0051"/>
  <anchor x="396" y="707" name="top"/>
  <outline>
    <contour>
      <point x="381" y="-155" type="line"/>
      <point x="446" y="-122" type="line"/>
      <point x="399" y="20" type="line"/>
      <point x="478" y="60"/>
      <point x="531" y="141"/>
      <point x="557" y="262" type="curve" smooth="yes"/>
      <point x="596" y="445" type="line" smooth="yes"/>
      <point x="602" y="476"/>
      <point x="605" y="503"/>
      <point x="605" y="528" type="curve" smooth="yes"/>
      <point x="605" y="593"/>
      <point x="586" y="640"/>
      <point x="549" y="671" type="curve" smooth="yes"/>
      <point x="512" y="701"/>
      <point x="461" y="716"/>
      <point x="398" y="716" type="curve" smooth="yes"/>
      <point x="243" y="715"/>
      <point x="146" y="625"/>
      <point x="108" y="445" type="curve" smooth="yes"/>
      <point x="69" y="262" type="line" smooth="yes"/>
      <point x="62" y="231"/>
      <point x="59" y="204"/>
      <point x="59" y="179" type="curve" smooth="yes"/>
      <point x="59" y="115"/>
      <point x="78" y="68"/>
      <point x="116" y="38" type="curve" smooth="yes"/>
      <point x="153" y="7"/>
      <point x="204" y="-8"/>
      <point x="268" y="-8" type="curve" smooth="yes"/>
      <point x="287" y="-8"/>
      <point x="308" y="-6"/>
      <point x="331" y="-3" type="curve"/>
    </contour>
    <contour>
      <point x="134" y="190" type="curve" smooth="yes"/>
      <point x="134" y="209"/>
      <point x="137" y="232"/>
      <point x="142" y="258" type="curve" smooth="yes"/>
      <point x="182" y="442" type="line" smooth="yes"/>
      <point x="198" y="515"/>
      <point x="223" y="568"/>
      <point x="256" y="600" type="curve" smooth="yes"/>
      <point x="289" y="632"/>
      <point x="334" y="648"/>
      <point x="389" y="648" type="curve" smooth="yes"/>
      <point x="482" y="648"/>
      <point x="529" y="604"/>
      <point x="529" y="515" type="curve" smooth="yes"/>
      <point x="529" y="491"/>
      <point x="526" y="467"/>
      <point x="521" y="442" type="curve" smooth="yes"/>
      <point x="481" y="258" type="line" smooth="yes"/>
      <point x="466" y="189"/>
      <point x="442" y="139"/>
      <point x="409" y="108" type="curve" smooth="yes"/>
      <point x="376" y="76"/>
      <point x="332" y="60"/>
      <point x="279" y="60" type="curve" smooth="yes"/>
      <point x="182" y="60"/>
      <point x="134" y="103"/>
    </contour>
  </outline>
</glyph>
<glyph name="R" format="2">
  <advance width="613"/>
  <unicode hex="0052"/>
  <outline>
    <contour>
      <point x="27" y="0" type="line"/>
      <point x="101" y="0" type="line"/>
      <point x="168" y="310" type="line"/>
      <point x="338" y="310" type="line"/>
      <point x="432" y="0" type="line"/>
      <point x="517" y="0" type="line"/>
      <point x="416" y="317" type="line"/>
      <point x="478" y="330"/>
      <point x="527" y="358"/>
      <point x="563" y="401" type="curve" smooth="yes"/>
      <point x="598" y="443"/>
      <point x="616" y="494"/>
      <point x="616" y="553" type="curve" smooth="yes"/>
      <point x="616" y="602"/>
      <point x="600" y="640"/>
      <point x="569" y="667" type="curve" smooth="yes"/>
      <point x="537" y="694"/>
      <point x="493" y="707"/>
      <point x="437" y="707" type="curve" smooth="yes"/>
      <point x="177" y="707" type="line"/>
    </contour>
    <contour>
      <point x="181" y="375" type="line"/>
      <point x="238" y="639" type="line"/>
      <point x="420" y="639" type="line" smooth="yes"/>
      <point x="459" y="639"/>
      <point x="488" y="631"/>
      <point x="509" y="614" type="curve" smooth="yes"/>
      <point x="530" y="597"/>
      <point x="540" y="573"/>
      <point x="540" y="540" type="curve" smooth="yes"/>
      <point x="540" y="489"/>
      <point x="523" y="448"/>
      <point x="489" y="419" type="curve" smooth="yes"/>
      <point x="455" y="390"/>
      <point x="411" y="375"/>
      <point x="358" y="375" type="curve" smooth="yes"/>
    </contour>
  </outline>
</glyph>
<glyph name="S" format="2">
  <advance width="563"/>
  <unicode hex="0053"/>
  <anchor x="349" y="707" name="top"/>
  <outline>
    <contour>
      <point x="227" y="-6" type="curve" smooth="yes"/>
      <point x="313" y="-6"/>
      <point x="381" y="15"/>
      <point x="430" y="58" type="curve" smooth="yes"/>
      <point x="479" y="100"/>
      <point x="504" y="159"/>
      <point x="504" y="236" type="curve" smooth="yes"/>
      <point x="504" y="279"/>
      <point x="491" y="312"/>
      <point x="466" y="337" type="curve" smooth="yes"/>
      <point x="441" y="361"/>
      <point x="404" y="377"/>
      <point x="355" y="386" type="curve" smooth="yes"/>
      <point x="273" y="401" type="line" smooth="yes"/>
      <point x="239" y="408"/>
      <point x="214" y="419"/>
      <point x="197" y="435" type="curve" smooth="yes"/>
      <point x="180" y="450"/>
      <point x="172" y="471"/>
      <point x="172" y="498" type="curve" smooth="yes"/>
      <point x="172" y="543"/>
      <point x="189" y="579"/>
      <point x="222" y="608" type="curve" smooth="yes"/>
      <point x="255" y="637"/>
      <point x="300" y="651"/>
      <point x="357" y="651" type="curve" smooth="yes"/>
      <point x="442" y="651"/>
      <point x="484" y="616"/>
      <point x="484" y="545" type="curve" smooth="yes"/>
      <point x="484" y="540"/>
      <point x="483" y="531"/>
      <point x="482" y="519" type="curve"/>
      <point x="556" y="519" type="line"/>
      <point x="557" y="526"/>
      <point x="557" y="535"/>
      <point x="557" y="546" type="curve" smooth="yes"/>
      <point x="557" y="603"/>
      <point x="539" y="645"/>
      <point x="504" y="674" type="curve" smooth="yes"/>
      <point x="468" y="702"/>
      <point x="421" y="716"/>
      <point x="362" y="716" type="curve" smooth="yes"/>
      <point x="311" y="716"/>
      <point x="265" y="707"/>
      <point x="225" y="688" type="curve" smooth="yes"/>
      <point x="184" y="669"/>
      <point x="153" y="642"/>
      <point x="131" y="607" type="curve" smooth="yes"/>
      <point x="108" y="572"/>
      <point x="97" y="531"/>
      <point x="97" y="483" type="curve" smooth="yes"/>
      <point x="98" y="404"/>
      <point x="146" y="356"/>
      <point x="242" y="337" type="curve" smooth="yes"/>
      <point x="322" y="322" type="line" smooth="yes"/>
      <point x="358" y="315"/>
      <point x="385" y="303"/>
      <point x="402" y="287" type="curve" smooth="yes"/>
      <point x="419" y="271"/>
      <point x="428" y="249"/>
      <point x="428" y="220" type="curve" smooth="yes"/>
      <point x="428" y="170"/>
      <point x="411" y="131"/>
      <point x="378" y="102" type="curve" smooth="yes"/>
      <point x="344" y="73"/>
      <point x="296" y="59"/>
      <point x="233" y="59" type="curve" smooth="yes"/>
      <point x="140" y="59"/>
      <point x="93" y="98"/>
      <point x="93" y="176" type="curve" smooth="yes"/>
      <point x="93" y="187"/>
      <point x="93" y="195"/>
      <point x="94" y="200" type="curve"/>
      <point x="22" y="200" type="line"/>
      <point x="20" y="192"/>
      <point x="19" y="180"/>
      <point x="19" y="165" type="curve" smooth="yes"/>
      <point x="19" y="110"/>
      <point x="37" y="67"/>
      <point x="74" y="38" type="curve" smooth="yes"/>
      <point x="110" y="9"/>
      <point x="161" y="-6"/>
    </contour>
  </outline>
</glyph>
<glyph name="V" format="2">
  <advance width="528"/>
  <unicode hex="0056"/>
  <outline>
    <contour>
      <point x="178" y="0" type="line"/>
      <point x="239" y="0" type="line"/>
      <point x="620" y="707" type="line"/>
      <point x="541" y="707" type="line"/>
      <point x="234" y="121" type="line"/>
      <point x="176" y="707" type="line"/>
      <point x="99" y="707" type="line"/>
    </contour>
  </outline>
</glyph>
<glyph name="W" format="2">
  <advance width="807"/>
  <unicode hex="0057"/>
  <outline>
    <contour>
      <point x="129" y="0" type="line"/>
      <point x="196" y="0" type="line"/>
      <point x="479" y="613" type="line"/>
      <point x="506" y="0" type="line"/>
      <point x="572" y="0" type="line"/>
      <point x="899" y="707" type="line"/>
      <point x="830" y="707" type="line"/>
      <point x="566" y="121" type="line"/>
      <point x="547" y="707" type="line"/>
      <point x="453" y="707" type="line"/>
      <point x="190" y="121" type="line"/>
      <point x="171" y="707" type="line"/>
      <point x="99" y="707" type="line"/>
    </contour>
  </outline>
</glyph>
<glyph name="Y" format="2">
  <advance width="503"/>
  <unicode hex="0059"/>
  <anchor x="340" y="707" name="top"/>
  <outline>
    <contour>
      <point x="160" y="0" type="line"/>
      <point x="233" y="0" type="line"/>
      <point x="297" y="295" type="line"/>
      <point x="595" y="707" type="line"/>
      <point x="514" y="707" type="line"/>
      <point x="274" y="366" type="line"/>
      <point x="179" y="707" type="line"/>
      <point x="99" y="707" type="line"/>
      <point x="222" y="297" type="line"/>
    </contour>
  </outline>
</glyph>
<glyph name="bracketleft" format="2">
  <advance width="302"/>
  <unicode hex="005B"/>
  <outline>
    <contour>
      <point x="8" y="-86" type="line"/>
      <point x="168" y="-86" type="line"/>
      <point x="182" y="-18" type="line"/>
      <point x="98" y="-18" type="line"/>
      <point x="249" y="690" type="line"/>
      <point x="333" y="690" type="line"/>
      <point x="347" y="758" type="line"/>
      <point x="187" y="758" type="line"/>
    </contour>
  </outline>
</glyph>
<glyph name="backslash" format="2">
  <advance width="401"/>
  <unicode hex="005C"/>
  <outline>
    <contour>
      <point x="222" y="-10" type="line"/>
      <point x="284" y="-10" type="line"/>
      <point x="217" y="707" type="line"/>
      <point x="156" y="707" type="line"/>
    </contour>
  </outline>
</glyph>
<glyph name="asciicircum" format="2">
  <advance width="524"/>
  <unicode hex="005E"/>
  <outline>
    <contour>
      <point x="61" y="292" type="line"/>
      <point x="123" y="292" type="line"/>
      <point x="269" y="641" type="line"/>
      <point x="416" y="292" type="line"/>
      <point x="476" y="292" type="line"/>
      <point x="300" y="707" type="line"/>
      <point x="239" y="707" type="line"/>
    </contour>
  </outline>
</glyph>
<glyph name="underscore" format="2">
  <advance width="467"/>
  <unicode hex="005F"/>
  <outline>
    <contour>
      <point x="-78" y="-106" type="line"/>
      <point x="391" y="-106" type="line"/>
      <point x="401" y="-55" type="line"/>
      <point x="-67" y="-55" type="line"/>
    </contour>
  </outline>
</glyph>
<glyph name="a" format="2">
  <advance width="522"/>
  <unicode hex="0061"/>
  <anchor x="301" y="519" name="top"/>
  <outline>
    <contour>
      <point x="41" y="137" type="curve" smooth="yes"/>
      <point x="41" y="156"/>
      <point x="44" y="180"/>
      <point x="49" y="207" type="curve" smooth="yes"/>
      <point x="72" y="313" type="line" smooth="yes"/>
      <point x="88" y="386"/>
      <point x="116" y="440"/>
      <point x="155" y="474" type="curve" smooth="yes"/>
      <point x="194" y="508"/>
      <point x="240" y="525"/>
      <point x="293" y="525" type="curve" smooth="yes"/>
      <point x="324" y="525"/>
      <point x="349" y="518"/>
      <point x="370" y="505" type="curve" smooth="yes"/>
      <point x="391" y="492"/>
      <point x="406" y="472"/>
      <point x="416" y="446" type="curve"/>
      <point x="431" y="519" type="line"/>
      <point x="501" y="519" type="line"/>
      <point x="390" y="0" type="line"/>
      <point x="322" y="0" type="line"/>
      <point x="337" y="70" type="line"/>
      <point x="300" y="19"/>
      <point x="248" y="-6"/>
      <point x="182" y="-6" type="curve" smooth="yes"/>
      <point x="141" y="-6"/>
      <point x="107" y="6"/>
      <point x="81" y="29" type="curve" smooth="yes"/>
      <point x="54" y="52"/>
      <point x="41" y="88"/>
    </contour>
    <contour>
      <point x="366" y="212" type="curve" smooth="yes"/>
      <point x="385" y="303" type="line" smooth="yes"/>
      <point x="388" y="319"/>
      <point x="390" y="336"/>
      <point x="390" y="354" type="curve" smooth="yes"/>
      <point x="390" y="388"/>
      <point x="382" y="415"/>
      <point x="366" y="434" type="curve" smooth="yes"/>
      <point x="349" y="453"/>
      <point x="324" y="463"/>
      <point x="291" y="463" type="curve" smooth="yes"/>
      <point x="214" y="463"/>
      <point x="164" y="411"/>
      <point x="141" y="308" type="curve" smooth="yes"/>
      <point x="120" y="210" type="line" smooth="yes"/>
      <point x="116" y="193"/>
      <point x="114" y="174"/>
      <point x="114" y="153" type="curve" smooth="yes"/>
      <point x="114" y="89"/>
      <point x="145" y="57"/>
      <point x="206" y="56" type="curve" smooth="yes"/>
      <point x="249" y="56"/>
      <point x="284" y="70"/>
      <point x="311" y="99" type="curve" smooth="yes"/>
      <point x="338" y="128"/>
      <point x="356" y="165"/>
    </contour>
  </outline>
</glyph>
<glyph name="b" format="2">
  <advance width="522"/>
  <unicode hex="0062"/>
  <outline>
    <contour>
      <point x="236" y="-6" type="curve" smooth="yes"/>
      <point x="286" y="-6"/>
      <point x="331" y="11"/>
      <point x="370" y="45" type="curve" smooth="yes"/>
      <point x="409" y="78"/>
      <point x="436" y="132"/>
      <point x="451" y="206" type="curve" smooth="yes"/>
      <point x="473" y="313" type="line" smooth="yes"/>
      <point x="478" y="336"/>
      <point x="480" y="359"/>
      <point x="480" y="381" type="curve" smooth="yes"/>
      <point x="480" y="431"/>
      <point x="467" y="468"/>
      <point x="441" y="491" type="curve" smooth="yes"/>
      <point x="414" y="514"/>
      <point x="379" y="526"/>
      <point x="334" y="526" type="curve" smooth="yes"/>
      <point x="273" y="526"/>
      <point x="224" y="499"/>
      <point x="186" y="446" type="curve"/>
      <point x="242" y="707" type="line"/>
      <point x="172" y="707" type="line"/>
      <point x="22" y="0" type="line"/>
      <point x="91" y="0" type="line"/>
      <point x="105" y="69" type="line"/>
      <point x="116" y="44"/>
      <point x="132" y="26"/>
      <point x="154" y="13" type="curve" smooth="yes"/>
      <point x="175" y="0"/>
      <point x="203" y="-6"/>
    </contour>
    <contour>
      <point x="158" y="86" type="curve" smooth="yes"/>
      <point x="140" y="105"/>
      <point x="131" y="132"/>
      <point x="131" y="165" type="curve" smooth="yes"/>
      <point x="131" y="178"/>
      <point x="133" y="193"/>
      <point x="136" y="212" type="curve" smooth="yes"/>
      <point x="156" y="302" type="line" smooth="yes"/>
      <point x="167" y="351"/>
      <point x="185" y="391"/>
      <point x="212" y="420" type="curve" smooth="yes"/>
      <point x="239" y="449"/>
      <point x="272" y="463"/>
      <point x="313" y="463" type="curve" smooth="yes"/>
      <point x="377" y="463"/>
      <point x="409" y="431"/>
      <point x="409" y="367" type="curve" smooth="yes"/>
      <point x="408" y="346"/>
      <point x="406" y="326"/>
      <point x="402" y="309" type="curve" smooth="yes"/>
      <point x="381" y="211" type="line" smooth="yes"/>
      <point x="368" y="155"/>
      <point x="350" y="115"/>
      <point x="325" y="92" type="curve" smooth="yes"/>
      <point x="300" y="68"/>
      <point x="271" y="56"/>
      <point x="237" y="56" type="curve" smooth="yes"/>
      <point x="202" y="56"/>
      <point x="175" y="66"/>
    </contour>
  </outline>
</glyph>
<glyph name="d" format="2">
  <advance width="523"/>
  <unicode hex="0064"/>
  <outline>
    <contour>
      <point x="182" y="-6" type="curve" smooth="yes"/>
      <point x="248" y="-6"/>
      <point x="299" y="19"/>
      <point x="336" y="69" type="curve"/>
      <point x="321" y="0" type="line"/>
      <point x="391" y="0" type="line"/>
      <point x="541" y="707" type="line"/>
      <point x="470" y="707" type="line"/>
      <point x="416" y="446" type="line"/>
      <point x="394" y="499"/>
      <point x="352" y="525"/>
      <point x="290" y="525" type="curve" smooth="yes"/>
      <point x="238" y="525"/>
      <point x="193" y="508"/>
      <point x="154" y="474" type="curve" smooth="yes"/>
      <point x="115" y="440"/>
      <point x="88" y="386"/>
      <point x="72" y="313" type="curve" smooth="yes"/>
      <point x="49" y="207" type="line" smooth="yes"/>
      <point x="44" y="180"/>
      <point x="41" y="156"/>
      <point x="41" y="137" type="curve" smooth="yes"/>
      <point x="41" y="88"/>
      <point x="54" y="52"/>
      <point x="81" y="29" type="curve" smooth="yes"/>
      <point x="107" y="6"/>
      <point x="141" y="-6"/>
    </contour>
    <contour>
      <point x="207" y="56" type="curve" smooth="yes"/>
      <point x="145" y="57"/>
      <point x="114" y="89"/>
      <point x="114" y="154" type="curve" smooth="yes"/>
      <point x="114" y="175"/>
      <point x="116" y="194"/>
      <point x="120" y="211" type="curve" smooth="yes"/>
      <point x="141" y="308" type="line" smooth="yes"/>
      <point x="164" y="411"/>
      <point x="214" y="463"/>
      <point x="291" y="463" type="curve" smooth="yes"/>
      <point x="324" y="463"/>
      <point x="349" y="453"/>
      <point x="366" y="434" type="curve" smooth="yes"/>
      <point x="382" y="415"/>
      <point x="390" y="388"/>
      <point x="390" y="354" type="curve" smooth="yes"/>
      <point x="390" y="335"/>
      <point x="388" y="318"/>
      <point x="385" y="302" type="curve" smooth="yes"/>
      <point x="366" y="212" type="line" smooth="yes"/>
      <point x="356" y="165"/>
      <point x="338" y="128"/>
      <point x="311" y="99" type="curve" smooth="yes"/>
      <point x="284" y="70"/>
      <point x="249" y="56"/>
    </contour>
  </outline>
</glyph>
<glyph name="f" format="2">
  <advance width="335"/>
  <unicode hex="0066"/>
  <outline>
    <contour>
      <point x="62" y="0" type="line"/>
      <point x="132" y="0" type="line"/>
      <point x="231" y="464" type="line"/>
      <point x="340" y="464" type="line"/>
      <point x="351" y="519" type="line"/>
      <point x="243" y="519" type="line"/>
      <point x="256" y="581" type="line" smooth="yes"/>
      <point x="265" y="628"/>
      <point x="292" y="652"/>
      <point x="336" y="651" type="curve" smooth="yes"/>
      <point x="379" y="651" type="line"/>
      <point x="391" y="707" type="line"/>
      <point x="337" y="707" type="line" smooth="yes"/>
      <point x="298" y="707"/>
      <point x="265" y="695"/>
      <point x="238" y="672" type="curve" smooth="yes"/>
      <point x="210" y="649"/>
      <point x="192" y="617"/>
      <point x="184" y="578" type="curve" smooth="yes"/>
      <point x="172" y="519" type="line"/>
      <point x="106" y="519" type="line"/>
      <point x="94" y="464" type="line"/>
      <point x="161" y="464" type="line"/>
    </contour>
  </outline>
</glyph>
<glyph name="h" format="2">
  <advance width="534"/>
  <unicode hex="0068"/>
  <outline>
    <contour>
      <point x="172" y="707" type="line"/>
      <point x="242" y="707" type="line"/>
      <point x="188" y="456" type="line"/>
      <point x="225" y="503"/>
      <point x="275" y="526"/>
      <point x="338" y="525" type="curve" smooth="yes"/>
      <point x="383" y="525"/>
      <point x="419" y="514"/>
      <point x="444" y="491" type="curve" smooth="yes"/>
      <point x="469" y="468"/>
      <point x="481" y="436"/>
      <point x="481" y="393" type="curve" smooth="yes"/>
      <point x="481" y="376"/>
      <point x="479" y="359"/>
      <point x="475" y="341" type="curve" smooth="yes"/>
      <point x="402" y="0" type="line"/>
      <point x="333" y="0" type="line"/>
      <point x="402" y="331" type="line" smooth="yes"/>
      <point x="405" y="348"/>
      <point x="407" y="362"/>
      <point x="408" y="373" type="curve" smooth="yes"/>
      <point x="408" y="402"/>
      <point x="399" y="425"/>
      <point x="382" y="440" type="curve" smooth="yes"/>
      <point x="365" y="455"/>
      <point x="341" y="463"/>
      <point x="310" y="463" type="curve" smooth="yes"/>
      <point x="273" y="463"/>
      <point x="241" y="452"/>
      <point x="215" y="429" type="curve" smooth="yes"/>
      <point x="188" y="406"/>
      <point x="171" y="373"/>
      <point x="162" y="331" type="curve" smooth="yes"/>
      <point x="91" y="0" type="line"/>
      <point x="22" y="0" type="line"/>
    </contour>
  </outline>
</glyph>
<glyph name="i" format="2">
  <advance width="223"/>
  <unicode hex="0069"/>
  <anchor x="167" y="519" name="top"/>
  <outline>
    <contour>
      <point x="23" y="0" type="line"/>
      <point x="91" y="0" type="line"/>
      <point x="202" y="519" type="line"/>
      <point x="132" y="519" type="line"/>
    </contour>
    <contour>
      <point x="148" y="604" type="line"/>
      <point x="222" y="604" type="line"/>
      <point x="242" y="696" type="line"/>
      <point x="168" y="696" type="line"/>
    </contour>
  </outline>
</glyph>
<glyph name="j" format="2">
  <advance width="241"/>
  <unicode hex="006A"/>
  <outline>
    <contour>
      <point x="-110" y="-156" type="line"/>
      <point x="-60" y="-156" type="line" smooth="yes"/>
      <point x="-19" y="-156"/>
      <point x="15" y="-144"/>
      <point x="42" y="-121" type="curve" smooth="yes"/>
      <point x="69" y="-98"/>
      <point x="87" y="-64"/>
      <point x="96" y="-19" type="curve" smooth="yes"/>
      <point x="211" y="519" type="line"/>
      <point x="141" y="519" type="line"/>
      <point x="28" y="-15" type="line" smooth="yes"/>
      <point x="22" y="-42"/>
      <point x="13" y="-61"/>
      <point x="0" y="-73" type="curve" smooth="yes"/>
      <point x="-13" y="-86"/>
      <point x="-31" y="-92"/>
      <point x="-54" y="-92" type="curve" smooth="yes"/>
      <point x="-96" y="-92" type="line"/>
    </contour>
    <contour>
      <point x="159" y="614" type="line"/>
      <point x="232" y="614" type="line"/>
      <point x="252" y="707" type="line"/>
      <point x="178" y="707" type="line"/>
    </contour>
  </outline>
</glyph>
<glyph name="k" format="2">
  <advance width="500"/>
  <unicode hex="006B"/>
  <outline>
    <contour>
      <point x="22" y="0" type="line"/>
      <point x="91" y="0" type="line"/>
      <point x="124" y="154" type="line"/>
      <point x="246" y="268" type="line"/>
      <point x="349" y="0" type="line"/>
      <point x="426" y="0" type="line"/>
      <point x="299" y="318" type="line"/>
      <point x="512" y="519" type="line"/>
      <point x="424" y="519" type="line"/>
      <point x="145" y="254" type="line"/>
      <point x="242" y="707" type="line"/>
      <point x="172" y="707" type="line"/>
    </contour>
  </outline>
</glyph>
<glyph name="n" format="2">
  <advance width="535"/>
  <unicode hex="006E"/>
  <anchor x="318" y="519" name="top"/>
  <outline>
    <contour>
      <point x="23" y="0" type="line"/>
      <point x="92" y="0" type="line"/>
      <point x="163" y="331" type="line" smooth="yes"/>
      <point x="172" y="373"/>
      <point x="190" y="406"/>
      <point x="217" y="429" type="curve" smooth="yes"/>
      <point x="244" y="452"/>
      <point x="277" y="463"/>
      <point x="314" y="463" type="curve" smooth="yes"/>
      <point x="344" y="463"/>
      <point x="367" y="456"/>
      <point x="384" y="441" type="curve" smooth="yes"/>
      <point x="401" y="426"/>
      <point x="409" y="403"/>
      <point x="409" y="374" type="curve" smooth="yes"/>
      <point x="408" y="363"/>
      <point x="406" y="349"/>
      <point x="403" y="330" type="curve" smooth="yes"/>
      <point x="334" y="0" type="line"/>
      <point x="403" y="0" type="line"/>
      <point x="476" y="341" type="line" smooth="yes"/>
      <point x="480" y="359"/>
      <point x="482" y="377"/>
      <point x="482" y="394" type="curve" smooth="yes"/>
      <point x="482" y="436"/>
      <point x="470" y="468"/>
      <point x="446" y="491" type="curve" smooth="yes"/>
      <point x="421" y="514"/>
      <point x="386" y="525"/>
      <point x="340" y="525" type="curve" smooth="yes"/>
      <point x="310" y="525"/>
      <point x="282" y="519"/>
      <point x="256" y="508" type="curve" smooth="yes"/>
      <point x="229" y="497"/>
      <point x="206" y="479"/>
      <point x="187" y="456" type="curve"/>
      <point x="202" y="519" type="line"/>
      <point x="132" y="519" type="line"/>
    </contour>
  </outline>
</glyph>
<glyph name="o" format="2">
  <advance width="517"/>
  <unicode hex="006F"/>
  <anchor x="309" y="519" name="top"/>
  <outline>
    <contour>
      <point x="209" y="-6" type="curve" smooth="yes"/>
      <point x="268" y="-6"/>
      <point x="318" y="11"/>
      <point x="359" y="45" type="curve" smooth="yes"/>
      <point x="400" y="78"/>
      <point x="429" y="132"/>
      <point x="445" y="207" type="curve" smooth="yes"/>
      <point x="468" y="313" type="line" smooth="yes"/>
      <point x="473" y="339"/>
      <point x="476" y="361"/>
      <point x="476" y="380" type="curve" smooth="yes"/>
      <point x="476" y="430"/>
      <point x="461" y="467"/>
      <point x="431" y="491" type="curve" smooth="yes"/>
      <point x="401" y="514"/>
      <point x="361" y="526"/>
      <point x="311" y="526" type="curve" smooth="yes"/>
      <point x="251" y="526"/>
      <point x="200" y="509"/>
      <point x="159" y="475" type="curve" smooth="yes"/>
      <point x="117" y="441"/>
      <point x="88" y="387"/>
      <point x="72" y="313" type="curve" smooth="yes"/>
      <point x="49" y="207" type="line" smooth="yes"/>
      <point x="44" y="184"/>
      <point x="42" y="162"/>
      <point x="42" y="141" type="curve" smooth="yes"/>
      <point x="42" y="90"/>
      <point x="57" y="53"/>
      <point x="87" y="30" type="curve" smooth="yes"/>
      <point x="117" y="6"/>
      <point x="158" y="-6"/>
    </contour>
    <contour>
      <point x="142" y="79" type="curve" smooth="yes"/>
      <point x="123" y="94"/>
      <point x="114" y="119"/>
      <point x="114" y="155" type="curve" smooth="yes"/>
      <point x="114" y="170"/>
      <point x="116" y="189"/>
      <point x="120" y="210" type="curve" smooth="yes"/>
      <point x="140" y="309" type="line" smooth="yes"/>
      <point x="153" y="366"/>
      <point x="173" y="406"/>
      <point x="200" y="429" type="curve" smooth="yes"/>
      <point x="227" y="452"/>
      <point x="261" y="463"/>
      <point x="301" y="463" type="curve" smooth="yes"/>
      <point x="369" y="463"/>
      <point x="403" y="431"/>
      <point x="403" y="367" type="curve" smooth="yes"/>
      <point x="403" y="350"/>
      <point x="401" y="330"/>
      <point x="396" y="309" type="curve" smooth="yes"/>
      <point x="376" y="211" type="line" smooth="yes"/>
      <point x="364" y="154"/>
      <point x="345" y="114"/>
      <point x="318" y="91" type="curve" smooth="yes"/>
      <point x="291" y="68"/>
      <point x="258" y="56"/>
      <point x="219" y="56" type="curve" smooth="yes"/>
      <point x="186" y="56"/>
      <point x="161" y="64"/>
    </contour>
  </outline>
</glyph>
<glyph name="p" format="2">
  <advance width="524"/>
  <unicode hex="0070"/>
  <outline>
    <contour>
      <point x="-10" y="-156" type="line"/>
      <point x="59" y="-156" type="line"/>
      <point x="108" y="73" type="line"/>
      <point x="132" y="20"/>
      <point x="175" y="-6"/>
      <point x="237" y="-6" type="curve" smooth="yes"/>
      <point x="287" y="-6"/>
      <point x="331" y="11"/>
      <point x="370" y="44" type="curve" smooth="yes"/>
      <point x="409" y="77"/>
      <point x="436" y="129"/>
      <point x="452" y="202" type="curve" smooth="yes"/>
      <point x="475" y="313" type="line" smooth="yes"/>
      <point x="480" y="336"/>
      <point x="482" y="359"/>
      <point x="482" y="380" type="curve" smooth="yes"/>
      <point x="482" y="429"/>
      <point x="469" y="466"/>
      <point x="443" y="490" type="curve" smooth="yes"/>
      <point x="417" y="513"/>
      <point x="382" y="525"/>
      <point x="338" y="525" type="curve" smooth="yes"/>
      <point x="308" y="525"/>
      <point x="280" y="518"/>
      <point x="255" y="505" type="curve" smooth="yes"/>
      <point x="229" y="492"/>
      <point x="206" y="472"/>
      <point x="187" y="446" type="curve"/>
      <point x="203" y="519" type="line"/>
      <point x="132" y="519" type="line"/>
    </contour>
    <contour>
      <point x="158" y="86" type="curve" smooth="yes"/>
      <point x="141" y="105"/>
      <point x="132" y="132"/>
      <point x="132" y="166" type="curve" smooth="yes"/>
      <point x="132" y="181"/>
      <point x="134" y="198"/>
      <point x="138" y="217" type="curve" smooth="yes"/>
      <point x="157" y="303" type="line" smooth="yes"/>
      <point x="167" y="352"/>
      <point x="186" y="391"/>
      <point x="213" y="420" type="curve" smooth="yes"/>
      <point x="240" y="449"/>
      <point x="274" y="463"/>
      <point x="315" y="463" type="curve" smooth="yes"/>
      <point x="343" y="463"/>
      <point x="366" y="455"/>
      <point x="384" y="440" type="curve" smooth="yes"/>
      <point x="401" y="425"/>
      <point x="410" y="399"/>
      <point x="410" y="364" type="curve" smooth="yes"/>
      <point x="409" y="349"/>
      <point x="407" y="330"/>
      <point x="403" y="308" type="curve" smooth="yes"/>
      <point x="383" y="210" type="line" smooth="yes"/>
      <point x="362" y="107"/>
      <point x="313" y="56"/>
      <point x="237" y="56" type="curve" smooth="yes"/>
      <point x="202" y="56"/>
      <point x="175" y="66"/>
    </contour>
  </outline>
</glyph>
<glyph name="q" format="2">
  <advance width="522"/>
  <unicode hex="0071"/>
  <outline>
    <contour>
      <point x="336" y="69" type="line"/>
      <point x="299" y="19"/>
      <point x="248" y="-6"/>
      <point x="182" y="-6" type="curve" smooth="yes"/>
      <point x="141" y="-6"/>
      <point x="107" y="6"/>
      <point x="81" y="29" type="curve" smooth="yes"/>
      <point x="54" y="52"/>
      <point x="41" y="88"/>
      <point x="41" y="137" type="curve" smooth="yes"/>
      <point x="41" y="156"/>
      <point x="44" y="180"/>
      <point x="49" y="207" type="curve" smooth="yes"/>
      <point x="72" y="313" type="line" smooth="yes"/>
      <point x="88" y="386"/>
      <point x="116" y="440"/>
      <point x="155" y="474" type="curve" smooth="yes"/>
      <point x="194" y="508"/>
      <point x="239" y="525"/>
      <point x="290" y="525" type="curve" smooth="yes"/>
      <point x="354" y="525"/>
      <point x="396" y="499"/>
      <point x="416" y="446" type="curve"/>
      <point x="431" y="519" type="line"/>
      <point x="501" y="519" type="line"/>
      <point x="357" y="-156" type="line"/>
      <point x="288" y="-156" type="line"/>
    </contour>
    <contour>
      <point x="366" y="212" type="curve" smooth="yes"/>
      <point x="385" y="302" type="line" smooth="yes"/>
      <point x="388" y="318"/>
      <point x="390" y="335"/>
      <point x="390" y="353" type="curve" smooth="yes"/>
      <point x="390" y="387"/>
      <point x="382" y="414"/>
      <point x="365" y="434" type="curve" smooth="yes"/>
      <point x="348" y="453"/>
      <point x="322" y="463"/>
      <point x="289" y="463" type="curve" smooth="yes"/>
      <point x="214" y="463"/>
      <point x="164" y="411"/>
      <point x="141" y="308" type="curve" smooth="yes"/>
      <point x="120" y="211" type="line" smooth="yes"/>
      <point x="116" y="194"/>
      <point x="114" y="175"/>
      <point x="114" y="154" type="curve" smooth="yes"/>
      <point x="114" y="89"/>
      <point x="145" y="57"/>
      <point x="206" y="56" type="curve" smooth="yes"/>
      <point x="249" y="56"/>
      <point x="284" y="70"/>
      <point x="311" y="99" type="curve" smooth="yes"/>
      <point x="338" y="128"/>
      <point x="356" y="165"/>
    </contour>
  </outline>
</glyph>
<glyph name="t" format="2">
  <advance width="359"/>
  <unicode hex="0074"/>
  <outline>
    <contour>
      <point x="190" y="0" type="curve" smooth="yes"/>
      <point x="243" y="0" type="line"/>
      <point x="256" y="61" type="line"/>
      <point x="215" y="61" type="line" smooth="yes"/>
      <point x="179" y="62"/>
      <point x="161" y="78"/>
      <point x="161" y="109" type="curve" smooth="yes"/>
      <point x="161" y="119"/>
      <point x="162" y="127"/>
      <point x="163" y="132" type="curve" smooth="yes"/>
      <point x="233" y="464" type="line"/>
      <point x="351" y="464" type="line"/>
      <point x="362" y="519" type="line"/>
      <point x="245" y="519" type="line"/>
      <point x="278" y="671" type="line"/>
      <point x="201" y="638" type="line"/>
      <point x="175" y="519" type="line"/>
      <point x="94" y="519" type="line"/>
      <point x="83" y="464" type="line"/>
      <point x="164" y="464" type="line"/>
      <point x="92" y="129" type="line" smooth="yes"/>
      <point x="89" y="117"/>
      <point x="88" y="105"/>
      <point x="88" y="92" type="curve" smooth="yes"/>
      <point x="88" y="63"/>
      <point x="97" y="41"/>
      <point x="115" y="25" type="curve" smooth="yes"/>
      <point x="132" y="8"/>
      <point x="157" y="0"/>
    </contour>
  </outline>
</glyph>
<glyph name="u" format="2">
  <advance width="535"/>
  <unicode hex="0075"/>
  <anchor x="323" y="519" name="top"/>
  <outline>
    <contour>
      <point x="444" y="190" type="curve" smooth="yes"/>
      <point x="514" y="519" type="line"/>
      <point x="444" y="519" type="line"/>
      <point x="376" y="200" type="line" smooth="yes"/>
      <point x="365" y="150"/>
      <point x="349" y="114"/>
      <point x="326" y="91" type="curve" smooth="yes"/>
      <point x="303" y="68"/>
      <point x="269" y="56"/>
      <point x="225" y="56" type="curve" smooth="yes"/>
      <point x="191" y="56"/>
      <point x="166" y="63"/>
      <point x="151" y="78" type="curve" smooth="yes"/>
      <point x="135" y="92"/>
      <point x="127" y="113"/>
      <point x="127" y="142" type="curve" smooth="yes"/>
      <point x="127" y="156"/>
      <point x="129" y="175"/>
      <point x="134" y="199" type="curve" smooth="yes"/>
      <point x="203" y="519" type="line"/>
      <point x="132" y="519" type="line"/>
      <point x="63" y="194" type="line" smooth="yes"/>
      <point x="58" y="169"/>
      <point x="56" y="148"/>
      <point x="56" y="133" type="curve" smooth="yes"/>
      <point x="56" y="88"/>
      <point x="70" y="54"/>
      <point x="98" y="30" type="curve" smooth="yes"/>
      <point x="125" y="6"/>
      <point x="166" y="-6"/>
      <point x="219" y="-6" type="curve" smooth="yes"/>
      <point x="341" y="-7"/>
      <point x="416" y="59"/>
    </contour>
  </outline>
</glyph>
<glyph name="v" format="2">
  <advance width="449"/>
  <unicode hex="0076"/>
  <outline>
    <contour>
      <point x="138" y="0" type="line"/>
      <point x="201" y="0" type="line"/>
      <point x="490" y="519" type="line"/>
      <point x="415" y="519" type="line"/>
      <point x="190" y="102" type="line"/>
      <point x="143" y="519" type="line"/>
      <point x="70" y="519" type="line"/>
    </contour>
  </outline>
</glyph>
<glyph name="w" format="2">
  <advance width="731"/>
  <unicode hex="0077"/>
  <outline>
    <contour>
      <point x="117" y="0" type="line"/>
      <point x="180" y="0" type="line"/>
      <point x="398" y="419" type="line"/>
      <point x="440" y="0" type="line"/>
      <point x="504" y="0" type="line"/>
      <point x="772" y="519" type="line"/>
      <point x="697" y="519" type="line"/>
      <point x="492" y="103" type="line"/>
      <point x="452" y="519" type="line"/>
      <point x="388" y="519" type="line"/>
      <point x="172" y="103" type="line"/>
      <point x="143" y="519" type="line"/>
      <point x="70" y="519" type="line"/>
    </contour>
  </outline>
</glyph>
<glyph name="x" format="2">
  <advance width="434"/>
  <unicode hex="0078"/>
  <outline>
    <contour>
      <point x="-40" y="0" type="line"/>
      <point x="40" y="0" type="line"/>
      <point x="208" y="211" type="line"/>
      <point x="292" y="0" type="line"/>
      <point x="364" y="0" type="line"/>
      <point x="257" y="270" type="line"/>
      <point x="466" y="519" type="line"/>
      <point x="387" y="519" type="line"/>
      <point x="234" y="326" type="line"/>
      <point x="158" y="519" type="line"/>
      <point x="84" y="519" type="line"/>
      <point x="184" y="269" type="line"/>
    </contour>
  </outline>
</glyph>
<glyph name="y" format="2">
  <advance width="450"/>
  <unicode hex="0079"/>
  <anchor x="271" y="519" name="top"/>
  <outline>
    <contour>
      <point x="-19" y="-156" type="line"/>
      <point x="11" y="-156" type="line" smooth="yes"/>
      <point x="47" y="-156"/>
      <point x="77" y="-148"/>
      <point x="102" y="-132" type="curve" smooth="yes"/>
      <point x="127" y="-116"/>
      <point x="149" y="-91"/>
      <point x="169" y="-56" type="curve" smooth="yes"/>
      <point x="492" y="519" type="line"/>
      <point x="417" y="519" type="line"/>
      <point x="193" y="108" type="line"/>
      <point x="144" y="519" type="line"/>
      <point x="70" y="519" type="line"/>
      <point x="138" y="7" type="line"/>
      <point x="120" y="-27" type="line" smooth="yes"/>
      <point x="107" y="-50"/>
      <point x="93" y="-67"/>
      <point x="78" y="-77" type="curve" smooth="yes"/>
      <point x="63" y="-87"/>
      <point x="43" y="-92"/>
      <point x="18" y="-92" type="curve" smooth="yes"/>
      <point x="-6" y="-92" type="line"/>
    </contour>
  </outline>
</glyph>
<glyph name="z" format="2">
  <advance width="467"/>
  <unicode hex="007A"/>
  <anchor x="267" y="519" name="top"/>
  <outline>
    <contour>
      <point x="5" y="0" type="line"/>
      <point x="352" y="0" type="line"/>
      <point x="366" y="65" type="line"/>
      <point x="100" y="65" type="line"/>
      <point x="449" y="455" type="line"/>
      <point x="462" y="519" type="line"/>
      <point x="116" y="519" type="line"/>
      <point x="102" y="455" type="line"/>
      <point x="367" y="455" type="line"/>
      <point x="19" y="65" type="line"/>
    </contour>
  </outline>
</glyph>
<glyph name="braceleft" format="2">
  <advance width="348"/>
  <unicode hex="007B"/>
  <outline>
    <contour>
      <point x="163" y="-86" type="curve" smooth="yes"/>
      <point x="214" y="-86" type="line"/>
      <point x="226" y="-24" type="line"/>
      <point x="190" y="-24" type="line" smooth="yes"/>
      <point x="165" y="-24"/>
      <point x="153" y="-13"/>
      <point x="153" y="9" type="curve" smooth="yes"/>
      <point x="153" y="17"/>
      <point x="154" y="24"/>
      <point x="155" y="29" type="curve" smooth="yes"/>
      <point x="195" y="217" type="line" smooth="yes"/>
      <point x="200" y="238"/>
      <point x="202" y="257"/>
      <point x="202" y="274" type="curve" smooth="yes"/>
      <point x="202" y="291"/>
      <point x="199" y="305"/>
      <point x="192" y="315" type="curve" smooth="yes"/>
      <point x="185" y="325"/>
      <point x="174" y="333"/>
      <point x="159" y="338" type="curve"/>
      <point x="184" y="346"/>
      <point x="203" y="359"/>
      <point x="216" y="377" type="curve" smooth="yes"/>
      <point x="229" y="394"/>
      <point x="239" y="422"/>
      <point x="247" y="460" type="curve" smooth="yes"/>
      <point x="286" y="643" type="line" smooth="yes"/>
      <point x="290" y="662"/>
      <point x="297" y="675"/>
      <point x="306" y="683" type="curve" smooth="yes"/>
      <point x="315" y="691"/>
      <point x="327" y="695"/>
      <point x="343" y="695" type="curve" smooth="yes"/>
      <point x="380" y="695" type="line"/>
      <point x="393" y="758" type="line"/>
      <point x="342" y="758" type="line" smooth="yes"/>
      <point x="272" y="758"/>
      <point x="229" y="720"/>
      <point x="213" y="645" type="curve" smooth="yes"/>
      <point x="173" y="455" type="line" smooth="yes"/>
      <point x="167" y="426"/>
      <point x="157" y="405"/>
      <point x="144" y="392" type="curve" smooth="yes"/>
      <point x="130" y="379"/>
      <point x="110" y="373"/>
      <point x="84" y="372" type="curve"/>
      <point x="70" y="305" type="line"/>
      <point x="89" y="304"/>
      <point x="104" y="300"/>
      <point x="113" y="293" type="curve" smooth="yes"/>
      <point x="122" y="286"/>
      <point x="127" y="273"/>
      <point x="127" y="256" type="curve" smooth="yes"/>
      <point x="127" y="245"/>
      <point x="126" y="233"/>
      <point x="123" y="222" type="curve" smooth="yes"/>
      <point x="82" y="27" type="line" smooth="yes"/>
      <point x="79" y="14"/>
      <point x="78" y="1"/>
      <point x="78" y="-12" type="curve" smooth="yes"/>
      <point x="78" y="-61"/>
      <point x="106" y="-86"/>
    </contour>
  </outline>
</glyph>
<glyph name="bar" format="2">
  <advance width="489"/>
  <unicode hex="007C"/>
  <outline>
    <contour>
      <point x="226" y="-85" type="line"/>
      <point x="295" y="-85" type="line"/>
      <point x="295" y="758" type="line"/>
      <point x="226" y="758" type="line"/>
    </contour>
  </outline>
</glyph>
<glyph name="braceright" format="2">
  <advance width="470"/>
  <unicode hex="007D"/>
  <outline>
    <contour>
      <point x="60" y="-24" type="line"/>
      <point x="96" y="-24" type="line" smooth="yes"/>
      <point x="112" y="-24"/>
      <point x="125" y="-20"/>
      <point x="134" y="-11" type="curve" smooth="yes"/>
      <point x="143" y="-3"/>
      <point x="150" y="10"/>
      <point x="155" y="29" type="curve" smooth="yes"/>
      <point x="195" y="217" type="line" smooth="yes"/>
      <point x="203" y="254"/>
      <point x="213" y="282"/>
      <point x="226" y="300" type="curve" smooth="yes"/>
      <point x="239" y="317"/>
      <point x="257" y="330"/>
      <point x="282" y="338" type="curve"/>
      <point x="267" y="343"/>
      <point x="256" y="351"/>
      <point x="250" y="361" type="curve" smooth="yes"/>
      <point x="243" y="371"/>
      <point x="240" y="385"/>
      <point x="240" y="402" type="curve" smooth="yes"/>
      <point x="240" y="419"/>
      <point x="242" y="438"/>
      <point x="247" y="460" type="curve" smooth="yes"/>
      <point x="286" y="643" type="line" smooth="yes"/>
      <point x="287" y="648"/>
      <point x="288" y="654"/>
      <point x="288" y="663" type="curve" smooth="yes"/>
      <point x="288" y="672"/>
      <point x="286" y="680"/>
      <point x="281" y="685" type="curve" smooth="yes"/>
      <point x="275" y="692"/>
      <point x="264" y="695"/>
      <point x="250" y="695" type="curve" smooth="yes"/>
      <point x="213" y="695" type="line"/>
      <point x="226" y="758" type="line"/>
      <point x="278" y="758" type="line" smooth="yes"/>
      <point x="335" y="758"/>
      <point x="364" y="733"/>
      <point x="364" y="682" type="curve" smooth="yes"/>
      <point x="364" y="669"/>
      <point x="362" y="657"/>
      <point x="359" y="645" type="curve" smooth="yes"/>
      <point x="318" y="455" type="line" smooth="yes"/>
      <point x="315" y="444"/>
      <point x="314" y="432"/>
      <point x="314" y="421" type="curve" smooth="yes"/>
      <point x="314" y="404"/>
      <point x="319" y="391"/>
      <point x="328" y="384" type="curve" smooth="yes"/>
      <point x="337" y="377"/>
      <point x="352" y="373"/>
      <point x="373" y="372" type="curve"/>
      <point x="357" y="305" type="line"/>
      <point x="332" y="304"/>
      <point x="312" y="298"/>
      <point x="299" y="285" type="curve" smooth="yes"/>
      <point x="285" y="272"/>
      <point x="275" y="251"/>
      <point x="268" y="222" type="curve" smooth="yes"/>
      <point x="227" y="27" type="line" smooth="yes"/>
      <point x="211" y="-48"/>
      <point x="168" y="-86"/>
      <point x="98" y="-86" type="curve" smooth="yes"/>
      <point x="47" y="-86" type="line"/>
    </contour>
  </outline>
</glyph>
<glyph name="asciitilde" format="2">
  <advance width="524"/>
  <unicode hex="007E"/>
  <outline>
    <contour>
      <point x="347" y="217" type="curve" smooth="yes"/>
      <point x="374" y="217"/>
      <point x="399" y="225"/>
      <point x="422" y="242" type="curve" smooth="yes"/>
      <point x="444" y="258"/>
      <point x="463" y="281"/>
      <point x="478" y="312" type="curve"/>
      <point x="428" y="344" type="line"/>
      <point x="415" y="321"/>
      <point x="403" y="306"/>
      <point x="391" y="297" type="curve" smooth="yes"/>
      <point x="379" y="288"/>
      <point x="365" y="283"/>
      <point x="348" y="283" type="curve" smooth="yes"/>
      <point x="337" y="283"/>
      <point x="326" y="285"/>
      <point x="316" y="290" type="curve" smooth="yes"/>
      <point x="306" y="295"/>
      <point x="293" y="302"/>
      <point x="276" y="311" type="curve" smooth="yes"/>
      <point x="257" y="323"/>
      <point x="241" y="332"/>
      <point x="228" y="338" type="curve" smooth="yes"/>
      <point x="214" y="344"/>
      <point x="198" y="347"/>
      <point x="181" y="347" type="curve" smooth="yes"/>
      <point x="154" y="347"/>
      <point x="129" y="339"/>
      <point x="107" y="323" type="curve" smooth="yes"/>
      <point x="84" y="307"/>
      <point x="66" y="283"/>
      <point x="51" y="252" type="curve"/>
      <point x="101" y="221" type="line"/>
      <point x="114" y="244"/>
      <point x="127" y="261"/>
      <point x="139" y="270" type="curve" smooth="yes"/>
      <point x="150" y="279"/>
      <point x="164" y="283"/>
      <point x="181" y="283" type="curve" smooth="yes"/>
      <point x="193" y="283"/>
      <point x="204" y="281"/>
      <point x="214" y="276" type="curve" smooth="yes"/>
      <point x="223" y="271"/>
      <point x="236" y="263"/>
      <point x="252" y="253" type="curve" smooth="yes"/>
      <point x="270" y="242"/>
      <point x="286" y="233"/>
      <point x="300" y="227" type="curve" smooth="yes"/>
      <point x="314" y="220"/>
      <point x="330" y="217"/>
    </contour>
  </outline>
</glyph>
<glyph name="cent" format="2">
  <advance width="516"/>
  <unicode hex="00A2"/>
  <outline>
    <contour>
      <point x="147" y="-102" type="line"/>
      <point x="207" y="-102" type="line"/>
      <point x="227" y="-6" type="line"/>
      <point x="286" y="-5"/>
      <point x="333" y="12"/>
      <point x="370" y="43" type="curve" smooth="yes"/>
      <point x="407" y="74"/>
      <point x="428" y="117"/>
      <point x="434" y="171" type="curve"/>
      <point x="368" y="171" type="line"/>
      <point x="362" y="137"/>
      <point x="348" y="110"/>
      <point x="327" y="91" type="curve" smooth="yes"/>
      <point x="306" y="71"/>
      <point x="277" y="60"/>
      <point x="241" y="57" type="curve"/>
      <point x="328" y="462" type="line"/>
      <point x="381" y="456"/>
      <point x="408" y="424"/>
      <point x="408" y="366" type="curve" smooth="yes"/>
      <point x="407" y="348" type="line"/>
      <point x="474" y="348" type="line"/>
      <point x="475" y="354"/>
      <point x="475" y="363"/>
      <point x="475" y="374" type="curve" smooth="yes"/>
      <point x="475" y="418"/>
      <point x="464" y="453"/>
      <point x="441" y="479" type="curve" smooth="yes"/>
      <point x="418" y="504"/>
      <point x="385" y="519"/>
      <point x="341" y="524" type="curve"/>
      <point x="361" y="622" type="line"/>
      <point x="302" y="622" type="line"/>
      <point x="282" y="525" type="line"/>
      <point x="170" y="515"/>
      <point x="100" y="444"/>
      <point x="72" y="313" type="curve" smooth="yes"/>
      <point x="50" y="213" type="line" smooth="yes"/>
      <point x="45" y="190"/>
      <point x="43" y="168"/>
      <point x="43" y="147" type="curve" smooth="yes"/>
      <point x="43" y="104"/>
      <point x="54" y="70"/>
      <point x="77" y="45" type="curve" smooth="yes"/>
      <point x="100" y="20"/>
      <point x="130" y="5"/>
      <point x="169" y="-2" type="curve"/>
    </contour>
    <contour>
      <point x="182" y="60" type="line"/>
      <point x="161" y="66"/>
      <point x="144" y="77"/>
      <point x="132" y="92" type="curve" smooth="yes"/>
      <point x="120" y="107"/>
      <point x="114" y="129"/>
      <point x="114" y="158" type="curve" smooth="yes"/>
      <point x="114" y="176"/>
      <point x="116" y="196"/>
      <point x="121" y="217" type="curve" smooth="yes"/>
      <point x="140" y="309" type="line" smooth="yes"/>
      <point x="151" y="357"/>
      <point x="167" y="393"/>
      <point x="188" y="417" type="curve" smooth="yes"/>
      <point x="209" y="440"/>
      <point x="236" y="455"/>
      <point x="267" y="460" type="curve"/>
    </contour>
  </outline>
</glyph>
<glyph name="sterling" format="2">
  <advance width="446"/>
  <unicode hex="00A3"/>
  <outline>
    <contour>
      <point x="0" y="0" type="line"/>
      <point x="357" y="0" type="line"/>
      <point x="373" y="70" type="line"/>
      <point x="102" y="70" type="line"/>
      <point x="117" y="83"/>
      <point x="130" y="98"/>
      <point x="139" y="115" type="curve" smooth="yes"/>
      <point x="148" y="132"/>
      <point x="155" y="153"/>
      <point x="160" y="178" type="curve" smooth="yes"/>
      <point x="184" y="297" type="line"/>
      <point x="327" y="297" type="line"/>
      <point x="341" y="365" type="line"/>
      <point x="199" y="365" type="line"/>
      <point x="239" y="552" type="line" smooth="yes"/>
      <point x="246" y="583"/>
      <point x="258" y="607"/>
      <point x="275" y="623" type="curve" smooth="yes"/>
      <point x="292" y="639"/>
      <point x="314" y="647"/>
      <point x="339" y="647" type="curve" smooth="yes"/>
      <point x="359" y="647"/>
      <point x="374" y="642"/>
      <point x="385" y="632" type="curve" smooth="yes"/>
      <point x="396" y="621"/>
      <point x="401" y="606"/>
      <point x="401" y="587" type="curve" smooth="yes"/>
      <point x="401" y="579"/>
      <point x="400" y="570"/>
      <point x="398" y="561" type="curve"/>
      <point x="472" y="561" type="line"/>
      <point x="475" y="578"/>
      <point x="477" y="593"/>
      <point x="477" y="604" type="curve" smooth="yes"/>
      <point x="477" y="640"/>
      <point x="466" y="668"/>
      <point x="445" y="688" type="curve" smooth="yes"/>
      <point x="423" y="707"/>
      <point x="393" y="717"/>
      <point x="354" y="717" type="curve" smooth="yes"/>
      <point x="305" y="717"/>
      <point x="264" y="702"/>
      <point x="230" y="671" type="curve" smooth="yes"/>
      <point x="195" y="640"/>
      <point x="172" y="596"/>
      <point x="161" y="541" type="curve" smooth="yes"/>
      <point x="124" y="365" type="line"/>
      <point x="56" y="365" type="line"/>
      <point x="42" y="297" type="line"/>
      <point x="110" y="297" type="line"/>
      <point x="83" y="169" type="line" smooth="yes"/>
      <point x="78" y="142"/>
      <point x="70" y="120"/>
      <point x="59" y="103" type="curve" smooth="yes"/>
      <point x="48" y="86"/>
      <point x="33" y="73"/>
      <point x="14" y="63" type="curve"/>
    </contour>
  </outline>
</glyph>
<glyph name="currency" format="2">
  <advance width="627"/>
  <unicode hex="00A4"/>
  <outline>
    <contour>
      <point x="469" y="97" type="line"/>
      <point x="527" y="146" type="line"/>
      <point x="470" y="218" type="line"/>
      <point x="491" y="240"/>
      <point x="507" y="265"/>
      <point x="519" y="294" type="curve" smooth="yes"/>
      <point x="531" y="322"/>
      <point x="537" y="350"/>
      <point x="537" y="379" type="curve" smooth="yes"/>
      <point x="536" y="406"/>
      <point x="530" y="431"/>
      <point x="519" y="453" type="curve"/>
      <point x="607" y="524" type="line"/>
      <point x="569" y="572" type="line"/>
      <point x="482" y="501" type="line"/>
      <point x="451" y="525"/>
      <point x="415" y="537"/>
      <point x="373" y="537" type="curve" smooth="yes"/>
      <point x="329" y="537"/>
      <point x="288" y="525"/>
      <point x="249" y="501" type="curve"/>
      <point x="191" y="572" type="line"/>
      <point x="133" y="524" type="line"/>
      <point x="190" y="452" type="line"/>
      <point x="170" y="430"/>
      <point x="154" y="405"/>
      <point x="142" y="376" type="curve" smooth="yes"/>
      <point x="130" y="347"/>
      <point x="124" y="318"/>
      <point x="124" y="290" type="curve" smooth="yes"/>
      <point x="124" y="265"/>
      <point x="129" y="241"/>
      <point x="140" y="218" type="curve"/>
      <point x="53" y="147" type="line"/>
      <point x="90" y="98" type="line"/>
      <point x="177" y="170" type="line"/>
      <point x="206" y="145"/>
      <point x="243" y="133"/>
      <point x="288" y="133" type="curve" smooth="yes"/>
      <point x="333" y="133"/>
      <point x="374" y="145"/>
      <point x="412" y="170" type="curve"/>
    </contour>
    <contour>
      <point x="220" y="225" type="curve" smooth="yes"/>
      <point x="200" y="244"/>
      <point x="190" y="270"/>
      <point x="190" y="301" type="curve" smooth="yes"/>
      <point x="190" y="330"/>
      <point x="198" y="358"/>
      <point x="213" y="385" type="curve" smooth="yes"/>
      <point x="228" y="412"/>
      <point x="249" y="433"/>
      <point x="275" y="450" type="curve" smooth="yes"/>
      <point x="300" y="466"/>
      <point x="328" y="474"/>
      <point x="359" y="474" type="curve" smooth="yes"/>
      <point x="393" y="474"/>
      <point x="420" y="464"/>
      <point x="440" y="444" type="curve" smooth="yes"/>
      <point x="459" y="424"/>
      <point x="469" y="398"/>
      <point x="469" y="367" type="curve" smooth="yes"/>
      <point x="469" y="337"/>
      <point x="461" y="309"/>
      <point x="446" y="283" type="curve" smooth="yes"/>
      <point x="430" y="256"/>
      <point x="409" y="235"/>
      <point x="383" y="220" type="curve" smooth="yes"/>
      <point x="357" y="204"/>
      <point x="329" y="196"/>
      <point x="300" y="196" type="curve" smooth="yes"/>
      <point x="267" y="196"/>
      <point x="240" y="206"/>
    </contour>
  </outline>
</glyph>
<glyph name="dieresis" format="2">
  <advance width="512"/>
  <unicode hex="00A8"/>
  <outline>
    <contour>
      <point x="200" y="592" type="line"/>
      <point x="278" y="592" type="line"/>
      <point x="296" y="680" type="line"/>
      <point x="218" y="680" type="line"/>
    </contour>
    <contour>
      <point x="375" y="592" type="line"/>
      <point x="453" y="592" type="line"/>
      <point x="471" y="680" type="line"/>
      <point x="393" y="680" type="line"/>
    </contour>
  </outline>
</glyph>
<glyph name="copyright" format="2">
  <advance width="859"/>
  <unicode hex="00A9"/>
  <outline>
    <contour>
      <point x="96" y="348" type="curve" smooth="yes"/>
      <point x="96" y="417"/>
      <point x="111" y="479"/>
      <point x="141" y="534" type="curve" smooth="yes"/>
      <point x="170" y="588"/>
      <point x="212" y="630"/>
      <point x="265" y="661" type="curve" smooth="yes"/>
      <point x="318" y="692"/>
      <point x="380" y="707"/>
      <point x="449" y="707" type="curve" smooth="yes"/>
      <point x="518" y="707"/>
      <point x="579" y="692"/>
      <point x="632" y="661" type="curve" smooth="yes"/>
      <point x="685" y="630"/>
      <point x="727" y="588"/>
      <point x="757" y="534" type="curve" smooth="yes"/>
      <point x="786" y="480"/>
      <point x="801" y="418"/>
      <point x="801" y="348" type="curve" smooth="yes"/>
      <point x="801" y="279"/>
      <point x="786" y="217"/>
      <point x="757" y="163" type="curve" smooth="yes"/>
      <point x="727" y="108"/>
      <point x="685" y="66"/>
      <point x="632" y="36" type="curve" smooth="yes"/>
      <point x="579" y="5"/>
      <point x="518" y="-10"/>
      <point x="449" y="-10" type="curve" smooth="yes"/>
      <point x="380" y="-10"/>
      <point x="318" y="5"/>
      <point x="265" y="36" type="curve" smooth="yes"/>
      <point x="211" y="66"/>
      <point x="169" y="108"/>
      <point x="140" y="163" type="curve" smooth="yes"/>
      <point x="111" y="217"/>
      <point x="96" y="279"/>
    </contour>
    <contour>
      <point x="742" y="348" type="curve" smooth="yes"/>
      <point x="742" y="409"/>
      <point x="730" y="462"/>
      <point x="706" y="508" type="curve" smooth="yes"/>
      <point x="682" y="554"/>
      <point x="648" y="590"/>
      <point x="604" y="615" type="curve" smooth="yes"/>
      <point x="559" y="640"/>
      <point x="508" y="652"/>
      <point x="449" y="652" type="curve" smooth="yes"/>
      <point x="390" y="652"/>
      <point x="339" y="640"/>
      <point x="294" y="615" type="curve" smooth="yes"/>
      <point x="249" y="590"/>
      <point x="214" y="554"/>
      <point x="190" y="508" type="curve" smooth="yes"/>
      <point x="166" y="462"/>
      <point x="154" y="409"/>
      <point x="154" y="348" type="curve" smooth="yes"/>
      <point x="154" y="287"/>
      <point x="166" y="234"/>
      <point x="190" y="189" type="curve" smooth="yes"/>
      <point x="214" y="143"/>
      <point x="248" y="107"/>
      <point x="293" y="82" type="curve" smooth="yes"/>
      <point x="338" y="57"/>
      <point x="390" y="44"/>
      <point x="449" y="44" type="curve" smooth="yes"/>
      <point x="508" y="44"/>
      <point x="559" y="57"/>
      <point x="604" y="82" type="curve" smooth="yes"/>
      <point x="648" y="107"/>
      <point x="682" y="143"/>
      <point x="706" y="189" type="curve" smooth="yes"/>
      <point x="730" y="234"/>
      <point x="742" y="287"/>
    </contour>
    <contour>
      <point x="300" y="311" type="curve" smooth="yes"/>
      <point x="300" y="390" type="line" smooth="yes"/>
      <point x="300" y="446"/>
      <point x="314" y="487"/>
      <point x="341" y="512" type="curve" smooth="yes"/>
      <point x="368" y="537"/>
      <point x="405" y="550"/>
      <point x="452" y="550" type="curve" smooth="yes"/>
      <point x="497" y="550"/>
      <point x="532" y="538"/>
      <point x="558" y="515" type="curve" smooth="yes"/>
      <point x="583" y="492"/>
      <point x="596" y="460"/>
      <point x="596" y="421" type="curve" smooth="yes"/>
      <point x="596" y="416" type="line"/>
      <point x="543" y="416" type="line"/>
      <point x="543" y="419" type="line" smooth="yes"/>
      <point x="543" y="445"/>
      <point x="535" y="465"/>
      <point x="519" y="479" type="curve" smooth="yes"/>
      <point x="503" y="493"/>
      <point x="481" y="500"/>
      <point x="454" y="500" type="curve" smooth="yes"/>
      <point x="423" y="500"/>
      <point x="398" y="492"/>
      <point x="381" y="475" type="curve" smooth="yes"/>
      <point x="364" y="458"/>
      <point x="355" y="429"/>
      <point x="355" y="387" type="curve" smooth="yes"/>
      <point x="355" y="314" type="line" smooth="yes"/>
      <point x="355" y="272"/>
      <point x="364" y="243"/>
      <point x="381" y="226" type="curve" smooth="yes"/>
      <point x="398" y="209"/>
      <point x="423" y="201"/>
      <point x="454" y="201" type="curve" smooth="yes"/>
      <point x="481" y="201"/>
      <point x="503" y="208"/>
      <point x="519" y="223" type="curve" smooth="yes"/>
      <point x="535" y="237"/>
      <point x="543" y="257"/>
      <point x="543" y="282" type="curve" smooth="yes"/>
      <point x="543" y="286" type="line"/>
      <point x="596" y="286" type="line"/>
      <point x="596" y="281" type="line" smooth="yes"/>
      <point x="596" y="242"/>
      <point x="583" y="210"/>
      <point x="557" y="187" type="curve" smooth="yes"/>
      <point x="531" y="164"/>
      <point x="496" y="152"/>
      <point x="453" y="152" type="curve" smooth="yes"/>
      <point x="406" y="152"/>
      <point x="368" y="165"/>
      <point x="341" y="190" type="curve" smooth="yes"/>
      <point x="314" y="215"/>
      <point x="300" y="255"/>
    </contour>
  </outline>
</glyph>
<glyph name="ordfeminine" format="2">
  <advance width="339"/>
  <unicode hex="00AA"/>
  <outline>
    <contour>
      <point x="102" y="525" type="curve" smooth="yes"/>
      <point x="102" y="536"/>
      <point x="104" y="551"/>
      <point x="108" y="568" type="curve" smooth="yes"/>
      <point x="121" y="634" type="line" smooth="yes"/>
      <point x="130" y="679"/>
      <point x="146" y="712"/>
      <point x="169" y="734" type="curve" smooth="yes"/>
      <point x="192" y="755"/>
      <point x="220" y="766"/>
      <point x="251" y="766" type="curve" smooth="yes"/>
      <point x="286" y="766"/>
      <point x="311" y="750"/>
      <point x="326" y="719" type="curve"/>
      <point x="335" y="762" type="line"/>
      <point x="398" y="762" type="line"/>
      <point x="331" y="440" type="line"/>
      <point x="264" y="440" type="line"/>
      <point x="273" y="478" type="line"/>
      <point x="254" y="450"/>
      <point x="225" y="436"/>
      <point x="188" y="436" type="curve" smooth="yes"/>
      <point x="163" y="436"/>
      <point x="142" y="443"/>
      <point x="126" y="458" type="curve" smooth="yes"/>
      <point x="110" y="473"/>
      <point x="102" y="495"/>
    </contour>
    <contour>
      <point x="293" y="571" type="curve" smooth="yes"/>
      <point x="305" y="629" type="line" smooth="yes"/>
      <point x="307" y="638"/>
      <point x="308" y="647"/>
      <point x="308" y="654" type="curve" smooth="yes"/>
      <point x="308" y="670"/>
      <point x="304" y="683"/>
      <point x="296" y="693" type="curve" smooth="yes"/>
      <point x="288" y="702"/>
      <point x="276" y="707"/>
      <point x="259" y="707" type="curve" smooth="yes"/>
      <point x="222" y="707"/>
      <point x="197" y="682"/>
      <point x="186" y="632" type="curve" smooth="yes"/>
      <point x="173" y="569" type="line" smooth="yes"/>
      <point x="171" y="560"/>
      <point x="170" y="552"/>
      <point x="170" y="544" type="curve" smooth="yes"/>
      <point x="170" y="527"/>
      <point x="174" y="515"/>
      <point x="183" y="508" type="curve" smooth="yes"/>
      <point x="192" y="500"/>
      <point x="203" y="496"/>
      <point x="217" y="496" type="curve" smooth="yes"/>
      <point x="238" y="496"/>
      <point x="254" y="503"/>
      <point x="267" y="517" type="curve" smooth="yes"/>
      <point x="280" y="530"/>
      <point x="288" y="548"/>
    </contour>
  </outline>
</glyph>
<glyph name="macron" format="2">
  <advance width="498"/>
  <unicode hex="00AF"/>
  <outline>
    <contour>
      <point x="196" y="604" type="line"/>
      <point x="462" y="604" type="line"/>
      <point x="475" y="668" type="line"/>
      <point x="209" y="668" type="line"/>
    </contour>
  </outline>
</glyph>
<glyph name="degree" format="2">
  <advance width="375"/>
  <unicode hex="00B0"/>
  <outline>
    <contour>
      <point x="255" y="430" type="curve" smooth="yes"/>
      <point x="295" y="430"/>
      <point x="329" y="444"/>
      <point x="357" y="471" type="curve" smooth="yes"/>
      <point x="384" y="498"/>
      <point x="398" y="532"/>
      <point x="398" y="573" type="curve" smooth="yes"/>
      <point x="398" y="614"/>
      <point x="384" y="649"/>
      <point x="357" y="676" type="curve" smooth="yes"/>
      <point x="329" y="703"/>
      <point x="295" y="717"/>
      <point x="255" y="717" type="curve" smooth="yes"/>
      <point x="214" y="717"/>
      <point x="180" y="703"/>
      <point x="153" y="676" type="curve" smooth="yes"/>
      <point x="126" y="648"/>
      <point x="112" y="614"/>
      <point x="112" y="573" type="curve" smooth="yes"/>
      <point x="112" y="532"/>
      <point x="126" y="498"/>
      <point x="153" y="471" type="curve" smooth="yes"/>
      <point x="180" y="444"/>
      <point x="214" y="430"/>
    </contour>
    <contour>
      <point x="190" y="507" type="curve" smooth="yes"/>
      <point x="173" y="524"/>
      <point x="164" y="546"/>
      <point x="164" y="573" type="curve" smooth="yes"/>
      <point x="164" y="600"/>
      <point x="173" y="623"/>
      <point x="190" y="641" type="curve" smooth="yes"/>
      <point x="207" y="659"/>
      <point x="228" y="668"/>
      <point x="255" y="668" type="curve" smooth="yes"/>
      <point x="282" y="668"/>
      <point x="303" y="659"/>
      <point x="320" y="641" type="curve" smooth="yes"/>
      <point x="337" y="623"/>
      <point x="345" y="600"/>
      <point x="345" y="573" type="curve" smooth="yes"/>
      <point x="345" y="547"/>
      <point x="337" y="525"/>
      <point x="320" y="507" type="curve" smooth="yes"/>
      <point x="303" y="489"/>
      <point x="281" y="480"/>
      <point x="255" y="480" type="curve" smooth="yes"/>
      <point x="228" y="480"/>
      <point x="207" y="489"/>
    </contour>
  </outline>
</glyph>
<glyph name="plusminus" format="2">
  <advance width="524"/>
  <unicode hex="00B1"/>
  <outline>
    <contour>
      <point x="210" y="116" type="line"/>
      <point x="278" y="116" type="line"/>
      <point x="278" y="286" type="line"/>
      <point x="447" y="286" type="line"/>
      <point x="447" y="353" type="line"/>
      <point x="278" y="353" type="line"/>
      <point x="278" y="523" type="line"/>
      <point x="210" y="523" type="line"/>
      <point x="210" y="353" type="line"/>
      <point x="40" y="353" type="line"/>
      <point x="40" y="286" type="line"/>
      <point x="210" y="286" type="line"/>
    </contour>
    <contour>
      <point x="40" y="-4" type="line"/>
      <point x="447" y="-4" type="line"/>
      <point x="447" y="63" type="line"/>
      <point x="40" y="63" type="line"/>
    </contour>
  </outline>
</glyph>
<glyph name="acute" format="2">
  <advance width="512"/>
  <unicode hex="00B4"/>
  <outline>
    <contour>
      <point x="231" y="586" type="line"/>
      <point x="296" y="586" type="line"/>
      <point x="445" y="714" type="line"/>
      <point x="359" y="714" type="line"/>
    </contour>
  </outline>
</glyph>
<glyph name="paragraph" format="2">
  <advance width="585"/>
  <unicode hex="00B6"/>
  <outline>
    <contour>
      <point x="278" y="279" type="line"/>
      <point x="229" y="282"/>
      <point x="192" y="299"/>
      <point x="165" y="328" type="curve" smooth="yes"/>
      <point x="138" y="357"/>
      <point x="125" y="394"/>
      <point x="125" y="439" type="curve" smooth="yes"/>
      <point x="125" y="456"/>
      <point x="127" y="474"/>
      <point x="131" y="493" type="curve" smooth="yes"/>
      <point x="139" y="533"/>
      <point x="155" y="569"/>
      <point x="180" y="602" type="curve" smooth="yes"/>
      <point x="204" y="634"/>
      <point x="235" y="660"/>
      <point x="273" y="679" type="curve" smooth="yes"/>
      <point x="310" y="698"/>
      <point x="352" y="707"/>
      <point x="398" y="707" type="curve" smooth="yes"/>
      <point x="599" y="707" type="line"/>
      <point x="416" y="-156" type="line"/>
      <point x="347" y="-156" type="line"/>
      <point x="516" y="640" type="line"/>
      <point x="423" y="640" type="line"/>
      <point x="254" y="-156" type="line"/>
      <point x="185" y="-156" type="line"/>
    </contour>
  </outline>
</glyph>
<glyph name="periodcentered" format="2">
  <advance width="244"/>
  <unicode hex="00B7"/>
  <outline>
    <contour>
      <point x="91" y="324" type="line"/>
      <point x="181" y="324" type="line"/>
      <point x="162" y="228" type="line"/>
      <point x="71" y="228" type="line"/>
    </contour>
  </outline>
</glyph>
<glyph name="onequarter" format="2">
  <advance width="747"/>
  <unicode hex="00BC"/>
  <outline>
    <contour>
      <point x="177" y="632" type="line"/>
      <point x="92" y="575" type="line"/>
      <point x="107" y="651" type="line"/>
      <point x="193" y="707" type="line"/>
      <point x="264" y="707" type="line"/>
      <point x="175" y="280" type="line"/>
      <point x="104" y="280" type="line"/>
    </contour>
    <contour>
      <point x="677" y="77" type="line"/>
      <point x="637" y="77" type="line"/>
      <point x="621" y="0" type="line"/>
      <point x="550" y="0" type="line"/>
      <point x="566" y="77" type="line"/>
      <point x="405" y="77" type="line"/>
      <point x="417" y="137" type="line"/>
      <point x="598" y="427" type="line"/>
      <point x="668" y="427" type="line"/>
      <point x="488" y="137" type="line"/>
      <point x="578" y="137" type="line"/>
      <point x="599" y="238" type="line"/>
      <point x="670" y="238" type="line"/>
      <point x="649" y="137" type="line"/>
      <point x="689" y="137" type="line"/>
    </contour>
    <contour>
      <point x="568" y="707" type="line"/>
      <point x="633" y="707" type="line"/>
      <point x="104" y="0" type="line"/>
      <point x="39" y="0" type="line"/>
    </contour>
  </outline>
</glyph>
<glyph name="onehalf" format="2">
  <advance width="736"/>
  <unicode hex="00BD"/>
  <outline>
    <contour>
      <point x="177" y="632" type="line"/>
      <point x="92" y="575" type="line"/>
      <point x="107" y="651" type="line"/>
      <point x="193" y="707" type="line"/>
      <point x="264" y="707" type="line"/>
      <point x="175" y="280" type="line"/>
      <point x="104" y="280" type="line"/>
    </contour>
    <contour>
      <point x="410" y="53" type="line"/>
      <point x="592" y="246" type="line" smooth="yes"/>
      <point x="604" y="258"/>
      <point x="612" y="270"/>
      <point x="618" y="280" type="curve" smooth="yes"/>
      <point x="624" y="290"/>
      <point x="629" y="300"/>
      <point x="632" y="312" type="curve" smooth="yes"/>
      <point x="634" y="321" type="line" smooth="yes"/>
      <point x="637" y="339"/>
      <point x="635" y="352"/>
      <point x="628" y="362" type="curve" smooth="yes"/>
      <point x="621" y="372"/>
      <point x="609" y="377"/>
      <point x="593" y="377" type="curve" smooth="yes"/>
      <point x="577" y="377"/>
      <point x="563" y="371"/>
      <point x="552" y="361" type="curve" smooth="yes"/>
      <point x="541" y="351"/>
      <point x="533" y="335"/>
      <point x="528" y="315" type="curve" smooth="yes"/>
      <point x="526" y="304" type="line"/>
      <point x="459" y="304" type="line"/>
      <point x="462" y="319" type="line" smooth="yes"/>
      <point x="470" y="354"/>
      <point x="486" y="382"/>
      <point x="513" y="403" type="curve" smooth="yes"/>
      <point x="539" y="424"/>
      <point x="570" y="434"/>
      <point x="607" y="434" type="curve" smooth="yes"/>
      <point x="643" y="434"/>
      <point x="670" y="423"/>
      <point x="688" y="403" type="curve" smooth="yes"/>
      <point x="706" y="383"/>
      <point x="711" y="357"/>
      <point x="704" y="324" type="curve" smooth="yes"/>
      <point x="702" y="312" type="line" smooth="yes"/>
      <point x="698" y="294"/>
      <point x="691" y="277"/>
      <point x="681" y="261" type="curve" smooth="yes"/>
      <point x="672" y="245"/>
      <point x="659" y="229"/>
      <point x="641" y="211" type="curve" smooth="yes"/>
      <point x="500" y="60" type="line"/>
      <point x="650" y="60" type="line"/>
      <point x="638" y="0" type="line"/>
      <point x="399" y="0" type="line"/>
    </contour>
    <contour>
      <point x="568" y="707" type="line"/>
      <point x="633" y="707" type="line"/>
      <point x="104" y="0" type="line"/>
      <point x="39" y="0" type="line"/>
    </contour>
  </outline>
</glyph>
<glyph name="threequarters" format="2">
  <advance width="846"/>
  <unicode hex="00BE"/>
  <outline>
    <contour>
      <point x="162" y="273" type="curve" smooth="yes"/>
      <point x="199" y="273"/>
      <point x="230" y="285"/>
      <point x="258" y="307" type="curve" smooth="yes"/>
      <point x="285" y="329"/>
      <point x="303" y="358"/>
      <point x="311" y="393" type="curve" smooth="yes"/>
      <point x="313" y="406" type="line" smooth="yes"/>
      <point x="318" y="430"/>
      <point x="317" y="450"/>
      <point x="310" y="468" type="curve" smooth="yes"/>
      <point x="304" y="486"/>
      <point x="292" y="498"/>
      <point x="275" y="506" type="curve"/>
      <point x="293" y="514"/>
      <point x="307" y="526"/>
      <point x="320" y="541" type="curve" smooth="yes"/>
      <point x="334" y="556"/>
      <point x="342" y="574"/>
      <point x="347" y="594" type="curve" smooth="yes"/>
      <point x="349" y="604" type="line" smooth="yes"/>
      <point x="355" y="637"/>
      <point x="350" y="664"/>
      <point x="333" y="684" type="curve" smooth="yes"/>
      <point x="316" y="704"/>
      <point x="289" y="714"/>
      <point x="253" y="714" type="curve" smooth="yes"/>
      <point x="217" y="714"/>
      <point x="186" y="704"/>
      <point x="161" y="684" type="curve" smooth="yes"/>
      <point x="136" y="664"/>
      <point x="119" y="637"/>
      <point x="113" y="604" type="curve" smooth="yes"/>
      <point x="110" y="593" type="line"/>
      <point x="172" y="593" type="line"/>
      <point x="174" y="603" type="line" smooth="yes"/>
      <point x="178" y="619"/>
      <point x="185" y="632"/>
      <point x="196" y="642" type="curve" smooth="yes"/>
      <point x="208" y="652"/>
      <point x="222" y="656"/>
      <point x="239" y="656" type="curve" smooth="yes"/>
      <point x="255" y="656"/>
      <point x="267" y="651"/>
      <point x="274" y="641" type="curve" smooth="yes"/>
      <point x="281" y="631"/>
      <point x="283" y="616"/>
      <point x="279" y="598" type="curve" smooth="yes"/>
      <point x="277" y="588" type="line" smooth="yes"/>
      <point x="274" y="570"/>
      <point x="266" y="556"/>
      <point x="253" y="545" type="curve" smooth="yes"/>
      <point x="241" y="534"/>
      <point x="227" y="529"/>
      <point x="210" y="529" type="curve" smooth="yes"/>
      <point x="188" y="529" type="line"/>
      <point x="176" y="472" type="line"/>
      <point x="198" y="472" type="line" smooth="yes"/>
      <point x="217" y="472"/>
      <point x="231" y="466"/>
      <point x="239" y="454" type="curve" smooth="yes"/>
      <point x="248" y="442"/>
      <point x="251" y="427"/>
      <point x="247" y="407" type="curve" smooth="yes"/>
      <point x="244" y="393" type="line" smooth="yes"/>
      <point x="240" y="373"/>
      <point x="231" y="358"/>
      <point x="219" y="347" type="curve" smooth="yes"/>
      <point x="207" y="336"/>
      <point x="191" y="330"/>
      <point x="173" y="330" type="curve" smooth="yes"/>
      <point x="155" y="330"/>
      <point x="142" y="335"/>
      <point x="134" y="345" type="curve" smooth="yes"/>
      <point x="126" y="355"/>
      <point x="123" y="368"/>
      <point x="126" y="384" type="curve" smooth="yes"/>
      <point x="128" y="394" type="line"/>
      <point x="67" y="394" type="line"/>
      <point x="65" y="383" type="line" smooth="yes"/>
      <point x="58" y="349"/>
      <point x="63" y="322"/>
      <point x="80" y="303" type="curve" smooth="yes"/>
      <point x="97" y="284"/>
      <point x="124" y="273"/>
    </contour>
    <contour>
      <point x="650" y="0" type="line"/>
      <point x="720" y="0" type="line"/>
      <point x="736" y="77" type="line"/>
      <point x="776" y="77" type="line"/>
      <point x="788" y="137" type="line"/>
      <point x="748" y="137" type="line"/>
      <point x="769" y="238" type="line"/>
      <point x="699" y="238" type="line"/>
      <point x="678" y="137" type="line"/>
      <point x="587" y="137" type="line"/>
      <point x="767" y="427" type="line"/>
      <point x="698" y="427" type="line"/>
      <point x="517" y="137" type="line"/>
      <point x="505" y="77" type="line"/>
      <point x="666" y="77" type="line"/>
    </contour>
    <contour>
      <point x="139" y="0" type="line"/>
      <point x="203" y="0" type="line"/>
      <point x="732" y="707" type="line"/>
      <point x="667" y="707" type="line"/>
    </contour>
  </outline>
</glyph>
<glyph name="questiondown" format="2">
  <advance width="440"/>
  <unicode hex="00BF"/>
  <outline>
    <contour>
      <point x="138" y="-166" type="curve" smooth="yes"/>
      <point x="195" y="-166"/>
      <point x="241" y="-150"/>
      <point x="278" y="-119" type="curve" smooth="yes"/>
      <point x="314" y="-88"/>
      <point x="337" y="-44"/>
      <point x="348" y="13" type="curve"/>
      <point x="273" y="13" type="line"/>
      <point x="260" y="-62"/>
      <point x="219" y="-99"/>
      <point x="152" y="-99" type="curve" smooth="yes"/>
      <point x="123" y="-99"/>
      <point x="102" y="-93"/>
      <point x="88" y="-80" type="curve" smooth="yes"/>
      <point x="73" y="-67"/>
      <point x="66" y="-49"/>
      <point x="66" y="-25" type="curve" smooth="yes"/>
      <point x="66" y="2"/>
      <point x="72" y="26"/>
      <point x="84" y="49" type="curve" smooth="yes"/>
      <point x="95" y="71"/>
      <point x="114" y="94"/>
      <point x="139" y="119" type="curve" smooth="yes"/>
      <point x="200" y="178" type="line" smooth="yes"/>
      <point x="222" y="201"/>
      <point x="237" y="220"/>
      <point x="246" y="237" type="curve" smooth="yes"/>
      <point x="255" y="253"/>
      <point x="262" y="275"/>
      <point x="269" y="303" type="curve" smooth="yes"/>
      <point x="279" y="340" type="line"/>
      <point x="204" y="340" type="line"/>
      <point x="196" y="304" type="line" smooth="yes"/>
      <point x="191" y="282"/>
      <point x="185" y="265"/>
      <point x="179" y="254" type="curve" smooth="yes"/>
      <point x="172" y="242"/>
      <point x="160" y="227"/>
      <point x="142" y="209" type="curve" smooth="yes"/>
      <point x="81" y="147" type="line" smooth="yes"/>
      <point x="50" y="116"/>
      <point x="28" y="87"/>
      <point x="13" y="59" type="curve" smooth="yes"/>
      <point x="-2" y="31"/>
      <point x="-10" y="-1"/>
      <point x="-10" y="-37" type="curve" smooth="yes"/>
      <point x="-10" y="-76"/>
      <point x="3" y="-108"/>
      <point x="30" y="-131" type="curve" smooth="yes"/>
      <point x="56" y="-154"/>
      <point x="92" y="-166"/>
    </contour>
    <contour>
      <point x="215" y="424" type="line"/>
      <point x="306" y="424" type="line"/>
      <point x="327" y="519" type="line"/>
      <point x="236" y="519" type="line"/>
    </contour>
  </outline>
</glyph>
<glyph name="Aring" format="2">
  <advance width="583"/>
  <unicode hex="00C5"/>
  <anchor x="370" y="692" name="top"/>
  <outline>
    <contour>
      <point x="-51" y="0" type="line"/>
      <point x="28" y="0" type="line"/>
      <point x="123" y="170" type="line"/>
      <point x="423" y="170" type="line"/>
      <point x="446" y="0" type="line"/>
      <point x="524" y="0" type="line"/>
      <point x="420" y="698" type="line"/>
      <point x="441" y="704"/>
      <point x="458" y="715"/>
      <point x="471" y="732" type="curve" smooth="yes"/>
      <point x="484" y="748"/>
      <point x="490" y="767"/>
      <point x="490" y="790" type="curve" smooth="yes"/>
      <point x="490" y="817"/>
      <point x="481" y="839"/>
      <point x="464" y="857" type="curve" smooth="yes"/>
      <point x="446" y="875"/>
      <point x="424" y="884"/>
      <point x="397" y="884" type="curve" smooth="yes"/>
      <point x="370" y="884"/>
      <point x="347" y="875"/>
      <point x="330" y="858" type="curve" smooth="yes"/>
      <point x="313" y="840"/>
      <point x="304" y="817"/>
      <point x="304" y="790" type="curve" smooth="yes"/>
      <point x="304" y="771"/>
      <point x="308" y="755"/>
      <point x="317" y="740" type="curve" smooth="yes"/>
      <point x="326" y="725"/>
      <point x="338" y="713"/>
      <point x="354" y="706" type="curve"/>
    </contour>
    <contour>
      <point x="159" y="233" type="line"/>
      <point x="365" y="602" type="line"/>
      <point x="415" y="233" type="line"/>
    </contour>
    <contour>
      <point x="360" y="751" type="curve" smooth="yes"/>
      <point x="349" y="761"/>
      <point x="344" y="774"/>
      <point x="344" y="790" type="curve" smooth="yes"/>
      <point x="344" y="805"/>
      <point x="349" y="818"/>
      <point x="360" y="829" type="curve" smooth="yes"/>
      <point x="370" y="840"/>
      <point x="382" y="845"/>
      <point x="397" y="845" type="curve" smooth="yes"/>
      <point x="412" y="845"/>
      <point x="425" y="840"/>
      <point x="436" y="830" type="curve" smooth="yes"/>
      <point x="446" y="819"/>
      <point x="451" y="806"/>
      <point x="451" y="790" type="curve" smooth="yes"/>
      <point x="451" y="774"/>
      <point x="446" y="761"/>
      <point x="436" y="751" type="curve" smooth="yes"/>
      <point x="425" y="740"/>
      <point x="412" y="735"/>
      <point x="397" y="735" type="curve" smooth="yes"/>
      <point x="382" y="735"/>
      <point x="370" y="740"/>
    </contour>
  </outline>
</glyph>
<glyph name="Eth" format="2">
  <advance width="672"/>
  <unicode hex="00D0"/>
  <outline>
    <contour>
      <point x="653" y="525" type="curve" smooth="yes"/>
      <point x="653" y="498"/>
      <point x="650" y="468"/>
      <point x="643" y="437" type="curve" smooth="yes"/>
      <point x="607" y="269" type="line" smooth="yes"/>
      <point x="587" y="176"/>
      <point x="551" y="108"/>
      <point x="498" y="65" type="curve" smooth="yes"/>
      <point x="445" y="22"/>
      <point x="381" y="0"/>
      <point x="306" y="0" type="curve" smooth="yes"/>
      <point x="65" y="0" type="line"/>
      <point x="133" y="324" type="line"/>
      <point x="51" y="324" type="line"/>
      <point x="66" y="391" type="line"/>
      <point x="147" y="391" type="line"/>
      <point x="215" y="707" type="line"/>
      <point x="455" y="707" type="line" smooth="yes"/>
      <point x="516" y="707"/>
      <point x="565" y="693"/>
      <point x="600" y="664" type="curve" smooth="yes"/>
      <point x="635" y="635"/>
      <point x="653" y="588"/>
    </contour>
    <contour>
      <point x="578" y="515" type="curve" smooth="yes"/>
      <point x="578" y="558"/>
      <point x="567" y="590"/>
      <point x="544" y="610" type="curve" smooth="yes"/>
      <point x="521" y="629"/>
      <point x="488" y="639"/>
      <point x="445" y="639" type="curve" smooth="yes"/>
      <point x="275" y="639" type="line"/>
      <point x="223" y="391" type="line"/>
      <point x="377" y="391" type="line"/>
      <point x="364" y="324" type="line"/>
      <point x="209" y="324" type="line"/>
      <point x="155" y="68" type="line"/>
      <point x="321" y="68" type="line" smooth="yes"/>
      <point x="434" y="68"/>
      <point x="504" y="134"/>
      <point x="531" y="265" type="curve" smooth="yes"/>
      <point x="567" y="434" type="line" smooth="yes"/>
      <point x="574" y="468"/>
      <point x="578" y="495"/>
    </contour>
  </outline>
</glyph>
<glyph name="multiply" format="2">
  <advance width="524"/>
  <unicode hex="00D7"/>
  <outline>
    <contour>
      <point x="141" y="112" type="line"/>
      <point x="267" y="238" type="line"/>
      <point x="394" y="112" type="line"/>
      <point x="439" y="157" type="line"/>
      <point x="313" y="284" type="line"/>
      <point x="439" y="410" type="line"/>
      <point x="394" y="455" type="line"/>
      <point x="267" y="329" type="line"/>
      <point x="141" y="455" type="line"/>
      <point x="95" y="410" type="line"/>
      <point x="222" y="284" type="line"/>
      <point x="95" y="157" type="line"/>
    </contour>
  </outline>
</glyph>
<glyph name="Oslash" format="2">
  <advance width="623"/>
  <unicode hex="00D8"/>
  <anchor x="396" y="707" name="top"/>
  <outline>
    <contour>
      <point x="8" y="-20" type="line"/>
      <point x="68" y="-20" type="line"/>
      <point x="115" y="39" type="line"/>
      <point x="150" y="8"/>
      <point x="201" y="-8"/>
      <point x="268" y="-8" type="curve" smooth="yes"/>
      <point x="423" y="-8"/>
      <point x="519" y="82"/>
      <point x="557" y="262" type="curve" smooth="yes"/>
      <point x="596" y="445" type="line" smooth="yes"/>
      <point x="602" y="476"/>
      <point x="605" y="503"/>
      <point x="605" y="528" type="curve" smooth="yes"/>
      <point x="606" y="569"/>
      <point x="598" y="603"/>
      <point x="581" y="632" type="curve"/>
      <point x="655" y="727" type="line"/>
      <point x="596" y="727" type="line"/>
      <point x="550" y="669" type="line"/>
      <point x="514" y="700"/>
      <point x="463" y="716"/>
      <point x="398" y="716" type="curve" smooth="yes"/>
      <point x="243" y="715"/>
      <point x="146" y="625"/>
      <point x="108" y="445" type="curve" smooth="yes"/>
      <point x="69" y="262" type="line" smooth="yes"/>
      <point x="62" y="231"/>
      <point x="59" y="204"/>
      <point x="59" y="179" type="curve" smooth="yes"/>
      <point x="59" y="139"/>
      <point x="67" y="105"/>
      <point x="84" y="76" type="curve"/>
    </contour>
    <contour>
      <point x="139" y="146" type="line"/>
      <point x="136" y="161"/>
      <point x="134" y="176"/>
      <point x="134" y="190" type="curve" smooth="yes"/>
      <point x="134" y="209"/>
      <point x="137" y="232"/>
      <point x="142" y="258" type="curve" smooth="yes"/>
      <point x="182" y="442" type="line" smooth="yes"/>
      <point x="198" y="515"/>
      <point x="223" y="568"/>
      <point x="256" y="600" type="curve" smooth="yes"/>
      <point x="289" y="632"/>
      <point x="334" y="648"/>
      <point x="389" y="648" type="curve" smooth="yes"/>
      <point x="441" y="648"/>
      <point x="479" y="634"/>
      <point x="502" y="607" type="curve"/>
    </contour>
    <contour>
      <point x="163" y="100" type="curve"/>
      <point x="524" y="560" type="line"/>
      <point x="527" y="545"/>
      <point x="529" y="530"/>
      <point x="529" y="515" type="curve" smooth="yes"/>
      <point x="529" y="491"/>
      <point x="526" y="467"/>
      <point x="521" y="442" type="curve" smooth="yes"/>
      <point x="481" y="258" type="line" smooth="yes"/>
      <point x="466" y="189"/>
      <point x="442" y="139"/>
      <point x="409" y="108" type="curve" smooth="yes"/>
      <point x="376" y="76"/>
      <point x="332" y="60"/>
      <point x="279" y="60" type="curve" smooth="yes"/>
      <point x="226" y="60"/>
      <point x="187" y="73"/>
    </contour>
  </outline>
</glyph>
<glyph name="Thorn" format="2">
  <advance width="592"/>
  <unicode hex="00DE"/>
  <outline>
    <contour>
      <point x="577" y="426" type="curve" smooth="yes"/>
      <point x="577" y="413"/>
      <point x="575" y="397"/>
      <point x="571" y="378" type="curve" smooth="yes"/>
      <point x="560" y="312"/>
      <point x="530" y="260"/>
      <point x="483" y="221" type="curve" smooth="yes"/>
      <point x="436" y="182"/>
      <point x="376" y="163"/>
      <point x="305" y="163" type="curve" smooth="yes"/>
      <point x="136" y="163" type="line"/>
      <point x="101" y="0" type="line"/>
      <point x="27" y="0" type="line"/>
      <point x="177" y="707" type="line"/>
      <point x="252" y="707" type="line"/>
      <point x="224" y="578" type="line"/>
      <point x="393" y="578" type="line" smooth="yes"/>
      <point x="451" y="578"/>
      <point x="496" y="565"/>
      <point x="529" y="539" type="curve" smooth="yes"/>
      <point x="561" y="512"/>
      <point x="577" y="475"/>
    </contour>
    <contour>
      <point x="500" y="411" type="curve" smooth="yes"/>
      <point x="500" y="478"/>
      <point x="458" y="511"/>
      <point x="373" y="511" type="curve" smooth="yes"/>
      <point x="210" y="511" type="line"/>
      <point x="151" y="230" type="line"/>
      <point x="313" y="230" type="line" smooth="yes"/>
      <point x="364" y="230"/>
      <point x="405" y="242"/>
      <point x="437" y="266" type="curve" smooth="yes"/>
      <point x="468" y="290"/>
      <point x="488" y="327"/>
      <point x="497" y="376" type="curve" smooth="yes"/>
      <point x="499" y="389"/>
      <point x="500" y="400"/>
    </contour>
  </outline>
</glyph>
<glyph name="germandbls" format="2">
  <advance width="518"/>
  <unicode hex="00DF"/>
  <outline>
    <contour>
      <point x="215" y="59" type="line"/>
      <point x="243" y="59" type="line" smooth="yes"/>
      <point x="274" y="59"/>
      <point x="298" y="65"/>
      <point x="315" y="76" type="curve" smooth="yes"/>
      <point x="331" y="87"/>
      <point x="343" y="103"/>
      <point x="352" y="126" type="curve" smooth="yes"/>
      <point x="361" y="148"/>
      <point x="370" y="183"/>
      <point x="381" y="230" type="curve" smooth="yes"/>
      <point x="391" y="277"/>
      <point x="396" y="311"/>
      <point x="396" y="333" type="curve" smooth="yes"/>
      <point x="396" y="358"/>
      <point x="390" y="375"/>
      <point x="377" y="386" type="curve" smooth="yes"/>
      <point x="364" y="397"/>
      <point x="341" y="402"/>
      <point x="309" y="402" type="curve" smooth="yes"/>
      <point x="288" y="402" type="line"/>
      <point x="301" y="466" type="line"/>
      <point x="329" y="466" type="line" smooth="yes"/>
      <point x="367" y="466"/>
      <point x="396" y="476"/>
      <point x="415" y="497" type="curve" smooth="yes"/>
      <point x="434" y="517"/>
      <point x="444" y="545"/>
      <point x="444" y="581" type="curve" smooth="yes"/>
      <point x="444" y="604"/>
      <point x="436" y="621"/>
      <point x="420" y="633" type="curve" smooth="yes"/>
      <point x="404" y="644"/>
      <point x="380" y="650"/>
      <point x="349" y="650" type="curve" smooth="yes"/>
      <point x="308" y="650"/>
      <point x="276" y="640"/>
      <point x="253" y="621" type="curve" smooth="yes"/>
      <point x="230" y="602"/>
      <point x="214" y="570"/>
      <point x="205" y="527" type="curve" smooth="yes"/>
      <point x="92" y="0" type="line"/>
      <point x="23" y="0" type="line"/>
      <point x="132" y="518" type="line" smooth="yes"/>
      <point x="145" y="583"/>
      <point x="170" y="632"/>
      <point x="205" y="665" type="curve" smooth="yes"/>
      <point x="240" y="698"/>
      <point x="291" y="714"/>
      <point x="356" y="714" type="curve" smooth="yes"/>
      <point x="407" y="714"/>
      <point x="446" y="703"/>
      <point x="475" y="681" type="curve" smooth="yes"/>
      <point x="503" y="659"/>
      <point x="517" y="630"/>
      <point x="517" y="593" type="curve" smooth="yes"/>
      <point x="517" y="559"/>
      <point x="509" y="528"/>
      <point x="492" y="501" type="curve" smooth="yes"/>
      <point x="475" y="473"/>
      <point x="451" y="452"/>
      <point x="420" y="437" type="curve"/>
      <point x="438" y="428"/>
      <point x="451" y="417"/>
      <point x="458" y="404" type="curve" smooth="yes"/>
      <point x="465" y="390"/>
      <point x="469" y="372"/>
      <point x="469" y="351" type="curve" smooth="yes"/>
      <point x="469" y="323"/>
      <point x="463" y="283"/>
      <point x="452" y="230" type="curve" smooth="yes"/>
      <point x="439" y="169"/>
      <point x="424" y="123"/>
      <point x="409" y="91" type="curve" smooth="yes"/>
      <point x="394" y="58"/>
      <point x="372" y="34"/>
      <point x="345" y="19" type="curve" smooth="yes"/>
      <point x="318" y="4"/>
      <point x="280" y="-4"/>
      <point x="231" y="-4" type="curve" smooth="yes"/>
      <point x="202" y="-4" type="line"/>
    </contour>
  </outline>
</glyph>
<glyph name="ae" format="2">
  <advance width="831"/>
  <unicode hex="00E6"/>
  <outline>
    <contour>
      <point x="35" y="121" type="curve" smooth="yes"/>
      <point x="35" y="155"/>
      <point x="44" y="185"/>
      <point x="62" y="212" type="curve" smooth="yes"/>
      <point x="80" y="239"/>
      <point x="105" y="259"/>
      <point x="138" y="274" type="curve" smooth="yes"/>
      <point x="170" y="288"/>
      <point x="207" y="295"/>
      <point x="249" y="295" type="curve" smooth="yes"/>
      <point x="384" y="295" type="line"/>
      <point x="395" y="344"/>
      <point x="400" y="375"/>
      <point x="400" y="387" type="curve" smooth="yes"/>
      <point x="400" y="441"/>
      <point x="367" y="468"/>
      <point x="301" y="468" type="curve" smooth="yes"/>
      <point x="264" y="468"/>
      <point x="235" y="460"/>
      <point x="213" y="444" type="curve" smooth="yes"/>
      <point x="191" y="427"/>
      <point x="177" y="404"/>
      <point x="171" y="375" type="curve"/>
      <point x="102" y="375" type="line"/>
      <point x="111" y="423"/>
      <point x="135" y="460"/>
      <point x="172" y="487" type="curve" smooth="yes"/>
      <point x="209" y="513"/>
      <point x="255" y="526"/>
      <point x="312" y="526" type="curve" smooth="yes"/>
      <point x="385" y="526"/>
      <point x="434" y="502"/>
      <point x="458" y="455" type="curve"/>
      <point x="479" y="480"/>
      <point x="504" y="498"/>
      <point x="535" y="509" type="curve" smooth="yes"/>
      <point x="566" y="520"/>
      <point x="598" y="526"/>
      <point x="632" y="526" type="curve" smooth="yes"/>
      <point x="681" y="526"/>
      <point x="720" y="514"/>
      <point x="748" y="490" type="curve" smooth="yes"/>
      <point x="776" y="466"/>
      <point x="790" y="428"/>
      <point x="790" y="377" type="curve" smooth="yes"/>
      <point x="790" y="354"/>
      <point x="787" y="331"/>
      <point x="781" y="307" type="curve" smooth="yes"/>
      <point x="768" y="246" type="line"/>
      <point x="444" y="246" type="line"/>
      <point x="438" y="215" type="line" smooth="yes"/>
      <point x="435" y="204"/>
      <point x="433" y="193"/>
      <point x="432" y="182" type="curve" smooth="yes"/>
      <point x="431" y="171"/>
      <point x="430" y="160"/>
      <point x="430" y="147" type="curve" smooth="yes"/>
      <point x="430" y="115"/>
      <point x="440" y="92"/>
      <point x="459" y="78" type="curve" smooth="yes"/>
      <point x="478" y="63"/>
      <point x="503" y="56"/>
      <point x="536" y="56" type="curve" smooth="yes"/>
      <point x="572" y="56"/>
      <point x="602" y="65"/>
      <point x="625" y="82" type="curve" smooth="yes"/>
      <point x="648" y="99"/>
      <point x="666" y="125"/>
      <point x="678" y="160" type="curve"/>
      <point x="746" y="160" type="line"/>
      <point x="729" y="105"/>
      <point x="701" y="63"/>
      <point x="664" y="36" type="curve" smooth="yes"/>
      <point x="627" y="8"/>
      <point x="583" y="-6"/>
      <point x="532" y="-6" type="curve" smooth="yes"/>
      <point x="450" y="-6"/>
      <point x="397" y="21"/>
      <point x="374" y="76" type="curve"/>
      <point x="352" y="49"/>
      <point x="326" y="29"/>
      <point x="297" y="15" type="curve" smooth="yes"/>
      <point x="267" y="1"/>
      <point x="232" y="-6"/>
      <point x="191" y="-6" type="curve" smooth="yes"/>
      <point x="142" y="-6"/>
      <point x="103" y="5"/>
      <point x="76" y="26" type="curve" smooth="yes"/>
      <point x="49" y="47"/>
      <point x="35" y="79"/>
    </contour>
    <contour>
      <point x="364" y="202" type="curve" smooth="yes"/>
      <point x="373" y="244" type="line"/>
      <point x="249" y="244" type="line" smooth="yes"/>
      <point x="203" y="244"/>
      <point x="167" y="233"/>
      <point x="142" y="212" type="curve" smooth="yes"/>
      <point x="117" y="191"/>
      <point x="104" y="163"/>
      <point x="104" y="129" type="curve" smooth="yes"/>
      <point x="104" y="103"/>
      <point x="112" y="83"/>
      <point x="129" y="70" type="curve" smooth="yes"/>
      <point x="145" y="57"/>
      <point x="170" y="50"/>
      <point x="204" y="50" type="curve" smooth="yes"/>
      <point x="249" y="50"/>
      <point x="285" y="62"/>
      <point x="310" y="87" type="curve" smooth="yes"/>
      <point x="335" y="112"/>
      <point x="353" y="150"/>
    </contour>
    <contour>
      <point x="709" y="298" type="line"/>
      <point x="716" y="331"/>
      <point x="720" y="355"/>
      <point x="720" y="372" type="curve" smooth="yes"/>
      <point x="720" y="433"/>
      <point x="686" y="463"/>
      <point x="617" y="463" type="curve" smooth="yes"/>
      <point x="531" y="463"/>
      <point x="479" y="416"/>
      <point x="460" y="323" type="curve" smooth="yes"/>
      <point x="455" y="298" type="line"/>
    </contour>
  </outline>
</glyph>
<glyph name="ccedilla" format="2">
  <advance width="516"/>
  <unicode hex="00E7"/>
  <outline>
    <contour>
      <point x="94" y="-154" type="line"/>
      <point x="168" y="-154" type="line"/>
      <point x="247" y="-5" type="line"/>
      <point x="300" y="0"/>
      <point x="344" y="18"/>
      <point x="377" y="49" type="curve" smooth="yes"/>
      <point x="410" y="80"/>
      <point x="429" y="120"/>
      <point x="434" y="171" type="curve"/>
      <point x="368" y="171" type="line"/>
      <point x="361" y="134"/>
      <point x="346" y="106"/>
      <point x="322" y="86" type="curve" smooth="yes"/>
      <point x="298" y="66"/>
      <point x="266" y="56"/>
      <point x="225" y="56" type="curve" smooth="yes"/>
      <point x="190" y="56"/>
      <point x="163" y="64"/>
      <point x="144" y="79" type="curve" smooth="yes"/>
      <point x="124" y="94"/>
      <point x="114" y="121"/>
      <point x="114" y="158" type="curve" smooth="yes"/>
      <point x="114" y="176"/>
      <point x="116" y="196"/>
      <point x="121" y="217" type="curve" smooth="yes"/>
      <point x="140" y="309" type="line" smooth="yes"/>
      <point x="153" y="366"/>
      <point x="173" y="406"/>
      <point x="201" y="429" type="curve" smooth="yes"/>
      <point x="229" y="452"/>
      <point x="264" y="463"/>
      <point x="306" y="463" type="curve" smooth="yes"/>
      <point x="340" y="463"/>
      <point x="366" y="455"/>
      <point x="383" y="439" type="curve" smooth="yes"/>
      <point x="400" y="423"/>
      <point x="408" y="399"/>
      <point x="408" y="366" type="curve" smooth="yes"/>
      <point x="407" y="348" type="line"/>
      <point x="474" y="348" type="line"/>
      <point x="475" y="354"/>
      <point x="475" y="363"/>
      <point x="475" y="374" type="curve" smooth="yes"/>
      <point x="475" y="424"/>
      <point x="461" y="462"/>
      <point x="433" y="488" type="curve" smooth="yes"/>
      <point x="405" y="513"/>
      <point x="364" y="526"/>
      <point x="310" y="526" type="curve" smooth="yes"/>
      <point x="182" y="526"/>
      <point x="103" y="455"/>
      <point x="72" y="313" type="curve" smooth="yes"/>
      <point x="50" y="213" type="line" smooth="yes"/>
      <point x="45" y="190"/>
      <point x="43" y="168"/>
      <point x="43" y="147" type="curve" smooth="yes"/>
      <point x="43" y="100"/>
      <point x="56" y="65"/>
      <point x="81" y="40" type="curve" smooth="yes"/>
      <point x="106" y="15"/>
      <point x="140" y="1"/>
      <point x="184" y="-4" type="curve"/>
    </contour>
  </outline>
</glyph>
<glyph name="eth" format="2">
  <advance width="508"/>
  <unicode hex="00F0"/>
  <outline>
    <contour>
      <point x="197" y="-9" type="curve" smooth="yes"/>
      <point x="259" y="-9"/>
      <point x="311" y="10"/>
      <point x="353" y="48" type="curve" smooth="yes"/>
      <point x="395" y="85"/>
      <point x="424" y="142"/>
      <point x="439" y="217" type="curve" smooth="yes"/>
      <point x="451" y="273" type="line" smooth="yes"/>
      <point x="456" y="302"/>
      <point x="459" y="327"/>
      <point x="459" y="350" type="curve" smooth="yes"/>
      <point x="459" y="402"/>
      <point x="446" y="455"/>
      <point x="419" y="508" type="curve" smooth="yes"/>
      <point x="378" y="588" type="line"/>
      <point x="465" y="612" type="line"/>
      <point x="462" y="668" type="line"/>
      <point x="353" y="637" type="line"/>
      <point x="317" y="707" type="line"/>
      <point x="232" y="707" type="line"/>
      <point x="280" y="615" type="line"/>
      <point x="189" y="590" type="line"/>
      <point x="193" y="535" type="line"/>
      <point x="304" y="566" type="line"/>
      <point x="353" y="471" type="line"/>
      <point x="336" y="480"/>
      <point x="313" y="485"/>
      <point x="285" y="485" type="curve" smooth="yes"/>
      <point x="230" y="485"/>
      <point x="183" y="466"/>
      <point x="144" y="429" type="curve" smooth="yes"/>
      <point x="105" y="391"/>
      <point x="77" y="337"/>
      <point x="62" y="268" type="curve" smooth="yes"/>
      <point x="50" y="212" type="line" smooth="yes"/>
      <point x="45" y="188"/>
      <point x="42" y="164"/>
      <point x="42" y="140" type="curve" smooth="yes"/>
      <point x="42" y="91"/>
      <point x="55" y="54"/>
      <point x="82" y="29" type="curve" smooth="yes"/>
      <point x="108" y="4"/>
      <point x="146" y="-9"/>
    </contour>
    <contour>
      <point x="212" y="57" type="curve" smooth="yes"/>
      <point x="147" y="58"/>
      <point x="114" y="90"/>
      <point x="114" y="155" type="curve" smooth="yes"/>
      <point x="114" y="168"/>
      <point x="116" y="187"/>
      <point x="121" y="212" type="curve" smooth="yes"/>
      <point x="133" y="270" type="line" smooth="yes"/>
      <point x="154" y="371"/>
      <point x="207" y="421"/>
      <point x="290" y="421" type="curve" smooth="yes"/>
      <point x="354" y="421"/>
      <point x="386" y="390"/>
      <point x="386" y="327" type="curve" smooth="yes"/>
      <point x="386" y="314"/>
      <point x="384" y="294"/>
      <point x="379" y="268" type="curve" smooth="yes"/>
      <point x="368" y="211" type="line" smooth="yes"/>
      <point x="357" y="160"/>
      <point x="339" y="121"/>
      <point x="312" y="96" type="curve" smooth="yes"/>
      <point x="285" y="70"/>
      <point x="252" y="57"/>
    </contour>
  </outline>
</glyph>
<glyph name="divide" format="2">
  <advance width="524"/>
  <unicode hex="00F7"/>
  <outline>
    <contour>
      <point x="63" y="249" type="line"/>
      <point x="471" y="249" type="line"/>
      <point x="471" y="316" type="line"/>
      <point x="63" y="316" type="line"/>
    </contour>
    <contour>
      <point x="267" y="90" type="curve" smooth="yes"/>
      <point x="281" y="90"/>
      <point x="293" y="95"/>
      <point x="302" y="105" type="curve" smooth="yes"/>
      <point x="311" y="114"/>
      <point x="316" y="126"/>
      <point x="316" y="139" type="curve" smooth="yes"/>
      <point x="316" y="153"/>
      <point x="311" y="165"/>
      <point x="302" y="174" type="curve" smooth="yes"/>
      <point x="292" y="183"/>
      <point x="280" y="188"/>
      <point x="267" y="188" type="curve" smooth="yes"/>
      <point x="254" y="188"/>
      <point x="242" y="183"/>
      <point x="233" y="174" type="curve" smooth="yes"/>
      <point x="223" y="164"/>
      <point x="218" y="152"/>
      <point x="218" y="139" type="curve" smooth="yes"/>
      <point x="218" y="126"/>
      <point x="223" y="114"/>
      <point x="233" y="105" type="curve" smooth="yes"/>
      <point x="242" y="95"/>
      <point x="254" y="90"/>
    </contour>
    <contour>
      <point x="267" y="379" type="curve" smooth="yes"/>
      <point x="281" y="379"/>
      <point x="293" y="384"/>
      <point x="302" y="394" type="curve" smooth="yes"/>
      <point x="311" y="403"/>
      <point x="316" y="415"/>
      <point x="316" y="428" type="curve" smooth="yes"/>
      <point x="316" y="442"/>
      <point x="311" y="454"/>
      <point x="302" y="463" type="curve" smooth="yes"/>
      <point x="292" y="472"/>
      <point x="280" y="477"/>
      <point x="267" y="477" type="curve" smooth="yes"/>
      <point x="254" y="477"/>
      <point x="242" y="472"/>
      <point x="233" y="463" type="curve" smooth="yes"/>
      <point x="223" y="453"/>
      <point x="218" y="441"/>
      <point x="218" y="428" type="curve" smooth="yes"/>
      <point x="218" y="415"/>
      <point x="223" y="403"/>
      <point x="233" y="394" type="curve" smooth="yes"/>
      <point x="242" y="384"/>
      <point x="254" y="379"/>
    </contour>
  </outline>
</glyph>
<glyph name="oslash" format="2">
  <advance width="517"/>
  <unicode hex="00F8"/>
  <outline>
    <contour>
      <point x="0" y="-31" type="line"/>
      <point x="44" y="-31" type="line"/>
      <point x="91" y="28" type="line"/>
      <point x="121" y="5"/>
      <point x="162" y="-6"/>
      <point x="214" y="-6" type="curve" smooth="yes"/>
      <point x="339" y="-6"/>
      <point x="416" y="65"/>
      <point x="446" y="207" type="curve" smooth="yes"/>
      <point x="469" y="313" type="line" smooth="yes"/>
      <point x="474" y="340"/>
      <point x="477" y="363"/>
      <point x="477" y="382" type="curve" smooth="yes"/>
      <point x="478" y="415"/>
      <point x="470" y="444"/>
      <point x="453" y="467" type="curve"/>
      <point x="517" y="546" type="line"/>
      <point x="473" y="546" type="line"/>
      <point x="429" y="492" type="line"/>
      <point x="399" y="515"/>
      <point x="358" y="526"/>
      <point x="307" y="526" type="curve" smooth="yes"/>
      <point x="183" y="526"/>
      <point x="105" y="455"/>
      <point x="73" y="313" type="curve" smooth="yes"/>
      <point x="49" y="207" type="line" smooth="yes"/>
      <point x="44" y="184"/>
      <point x="41" y="162"/>
      <point x="41" y="139" type="curve" smooth="yes"/>
      <point x="41" y="102"/>
      <point x="50" y="73"/>
      <point x="68" y="51" type="curve"/>
    </contour>
    <contour>
      <point x="119" y="114" type="line"/>
      <point x="116" y="126"/>
      <point x="114" y="139"/>
      <point x="114" y="153" type="curve" smooth="yes"/>
      <point x="114" y="170"/>
      <point x="116" y="190"/>
      <point x="121" y="211" type="curve" smooth="yes"/>
      <point x="141" y="309" type="line" smooth="yes"/>
      <point x="153" y="366"/>
      <point x="173" y="406"/>
      <point x="202" y="429" type="curve" smooth="yes"/>
      <point x="230" y="452"/>
      <point x="264" y="463"/>
      <point x="304" y="463" type="curve" smooth="yes"/>
      <point x="339" y="463"/>
      <point x="366" y="454"/>
      <point x="383" y="436" type="curve"/>
    </contour>
    <contour>
      <point x="137" y="82" type="curve"/>
      <point x="400" y="403" type="line"/>
      <point x="403" y="394"/>
      <point x="404" y="383"/>
      <point x="404" y="369" type="curve" smooth="yes"/>
      <point x="404" y="350"/>
      <point x="402" y="330"/>
      <point x="397" y="309" type="curve" smooth="yes"/>
      <point x="377" y="211" type="line" smooth="yes"/>
      <point x="365" y="154"/>
      <point x="345" y="114"/>
      <point x="317" y="91" type="curve" smooth="yes"/>
      <point x="289" y="68"/>
      <point x="256" y="56"/>
      <point x="217" y="56" type="curve" smooth="yes"/>
      <point x="181" y="56"/>
      <point x="154" y="65"/>
    </contour>
  </outline>
</glyph>
<glyph name="thorn" format="2">
  <advance width="524"/>
  <unicode hex="00FE"/>
  <outline>
    <contour>
      <point x="172" y="707" type="line"/>
      <point x="242" y="707" type="line"/>
      <point x="186" y="446" type="line"/>
      <point x="206" y="472"/>
      <point x="229" y="492"/>
      <point x="255" y="506" type="curve" smooth="yes"/>
      <point x="280" y="519"/>
      <point x="308" y="526"/>
      <point x="338" y="526" type="curve" smooth="yes"/>
      <point x="382" y="526"/>
      <point x="417" y="515"/>
      <point x="443" y="492" type="curve" smooth="yes"/>
      <point x="469" y="469"/>
      <point x="482" y="432"/>
      <point x="482" y="383" type="curve" smooth="yes"/>
      <point x="482" y="362"/>
      <point x="479" y="335"/>
      <point x="472" y="304" type="curve" smooth="yes"/>
      <point x="451" y="207" type="line" smooth="yes"/>
      <point x="434" y="133"/>
      <point x="406" y="79"/>
      <point x="366" y="45" type="curve" smooth="yes"/>
      <point x="326" y="11"/>
      <point x="281" y="-6"/>
      <point x="230" y="-6" type="curve" smooth="yes"/>
      <point x="165" y="-6"/>
      <point x="123" y="19"/>
      <point x="105" y="69" type="curve"/>
      <point x="58" y="-156" type="line"/>
      <point x="-11" y="-156" type="line"/>
    </contour>
    <contour>
      <point x="382" y="213" type="curve" smooth="yes"/>
      <point x="402" y="309" type="line" smooth="yes"/>
      <point x="407" y="330"/>
      <point x="409" y="350"/>
      <point x="410" y="368" type="curve" smooth="yes"/>
      <point x="410" y="431"/>
      <point x="379" y="463"/>
      <point x="316" y="463" type="curve" smooth="yes"/>
      <point x="275" y="463"/>
      <point x="240" y="448"/>
      <point x="213" y="419" type="curve" smooth="yes"/>
      <point x="185" y="390"/>
      <point x="166" y="351"/>
      <point x="156" y="303" type="curve" smooth="yes"/>
      <point x="140" y="232" type="line" smooth="yes"/>
      <point x="134" y="203"/>
      <point x="131" y="180"/>
      <point x="131" y="163" type="curve" smooth="yes"/>
      <point x="131" y="130"/>
      <point x="140" y="104"/>
      <point x="157" y="85" type="curve" smooth="yes"/>
      <point x="174" y="66"/>
      <point x="199" y="56"/>
      <point x="233" y="56" type="curve" smooth="yes"/>
      <point x="268" y="56"/>
      <point x="299" y="68"/>
      <point x="325" y="93" type="curve" smooth="yes"/>
      <point x="351" y="117"/>
      <point x="370" y="157"/>
    </contour>
  </outline>
</glyph>
<glyph name="dcroat" format="2">
  <advance width="523"/>
  <unicode hex="0111"/>
  <outline>
    <component base="d"/>
    <contour>
      <point x="325" y="591" type="line"/>
      <point x="591" y="591" type="line"/>
      <point x="600" y="635" type="line"/>
      <point x="334" y="635" type="line"/>
    </contour>
  </outline>
</glyph>
<glyph name="Hbar" format="2">
  <advance width="644"/>
  <unicode hex="0126"/>
  <outline>
    <component base="H"/>
    <contour>
      <point x="89" y="502" type="line"/>
      <point x="651" y="502" type="line"/>
      <point x="665" y="569" type="line"/>
      <point x="103" y="569" type="line"/>
    </contour>
  </outline>
</glyph>
<glyph name="hbar" format="2">
  <advance width="534"/>
  <unicode hex="0127"/>
  <outline>
    <component base="h"/>
    <contour>
      <point x="78" y="582" type="line"/>
      <point x="359" y="582" type="line"/>
      <point x="372" y="639" type="line"/>
      <point x="90" y="639" type="line"/>
    </contour>
  </outline>
</glyph>
<glyph name="ij" format="2">
  <advance width="499"/>
  <unicode hex="0133"/>
  <outline>
    <contour>
      <point x="430" y="614" type="line"/>
      <point x="500" y="614" type="line"/>
      <point x="519" y="707" type="line"/>
      <point x="449" y="707" type="line"/>
    </contour>
    <contour>
      <point x="158" y="615" type="line"/>
      <point x="227" y="615" type="line"/>
      <point x="246" y="707" type="line"/>
      <point x="177" y="707" type="line"/>
    </contour>
    <contour>
      <point x="173" y="-162" type="curve" smooth="yes"/>
      <point x="305" y="-162"/>
      <point x="363" y="-74"/>
      <point x="388" y="41" type="curve" smooth="yes"/>
      <point x="489" y="519" type="line"/>
      <point x="419" y="519" type="line"/>
      <point x="362" y="251" type="line" smooth="yes"/>
      <point x="345" y="169"/>
      <point x="313" y="95"/>
      <point x="219" y="95" type="curve" smooth="yes"/>
      <point x="163" y="95"/>
      <point x="135" y="147"/>
      <point x="157" y="250" type="curve" smooth="yes"/>
      <point x="214" y="519" type="line"/>
      <point x="143" y="519" type="line"/>
      <point x="85" y="246" type="line" smooth="yes"/>
      <point x="69" y="172"/>
      <point x="75" y="117"/>
      <point x="101" y="83" type="curve" smooth="yes"/>
      <point x="126" y="49"/>
      <point x="165" y="32"/>
      <point x="196" y="32" type="curve" smooth="yes"/>
      <point x="269" y="32"/>
      <point x="298" y="64"/>
      <point x="332" y="108" type="curve"/>
      <point x="316" y="35" type="line" smooth="yes"/>
      <point x="297" y="-56"/>
      <point x="267" y="-101"/>
      <point x="186" y="-101" type="curve" smooth="yes"/>
      <point x="151" y="-101"/>
      <point x="102" y="-77"/>
      <point x="106" y="-26" type="curve"/>
      <point x="37" y="-26" type="line"/>
      <point x="24" y="-120"/>
      <point x="97" y="-162"/>
    </contour>
  </outline>
</glyph>
<glyph name="Eng" format="2">
  <advance width="678"/>
  <unicode hex="014A"/>
  <outline>
    <contour>
      <point x="174" y="707" type="line"/>
      <point x="249" y="707" type="line"/>
      <point x="496" y="139" type="line"/>
      <point x="614" y="707" type="line"/>
      <point x="689" y="707" type="line"/>
      <point x="534" y="-37" type="line" smooth="yes"/>
      <point x="525" y="-81"/>
      <point x="507" y="-115"/>
      <point x="480" y="-138" type="curve" smooth="yes"/>
      <point x="454" y="-161"/>
      <point x="420" y="-173"/>
      <point x="378" y="-173" type="curve" smooth="yes"/>
      <point x="329" y="-173" type="line"/>
      <point x="342" y="-110" type="line"/>
      <point x="384" y="-110" type="line" smooth="yes"/>
      <point x="407" y="-110"/>
      <point x="426" y="-103"/>
      <point x="438" y="-91" type="curve" smooth="yes"/>
      <point x="451" y="-79"/>
      <point x="455" y="-60"/>
      <point x="460" y="-33" type="curve" smooth="yes"/>
      <point x="467" y="0" type="line"/>
      <point x="220" y="569" type="line"/>
      <point x="102" y="0" type="line"/>
      <point x="27" y="0" type="line"/>
    </contour>
  </outline>
</glyph>
<glyph name="eng" format="2">
  <advance width="534"/>
  <unicode hex="014B"/>
  <outline>
    <contour>
      <point x="192" y="-173" type="line"/>
      <point x="241" y="-173" type="line" smooth="yes"/>
      <point x="283" y="-173"/>
      <point x="317" y="-161"/>
      <point x="343" y="-138" type="curve" smooth="yes"/>
      <point x="370" y="-115"/>
      <point x="389" y="-81"/>
      <point x="397" y="-37" type="curve" smooth="yes"/>
      <point x="474" y="341" type="line" smooth="yes"/>
      <point x="486" y="399"/>
      <point x="481" y="445"/>
      <point x="457" y="477" type="curve" smooth="yes"/>
      <point x="434" y="509"/>
      <point x="395" y="525"/>
      <point x="340" y="525" type="curve" smooth="yes"/>
      <point x="310" y="525"/>
      <point x="281" y="520"/>
      <point x="255" y="508" type="curve" smooth="yes"/>
      <point x="228" y="496"/>
      <point x="205" y="479"/>
      <point x="185" y="456" type="curve"/>
      <point x="198" y="519" type="line"/>
      <point x="130" y="519" type="line"/>
      <point x="22" y="0" type="line"/>
      <point x="91" y="0" type="line"/>
      <point x="160" y="331" type="line" smooth="yes"/>
      <point x="169" y="373"/>
      <point x="187" y="406"/>
      <point x="214" y="429" type="curve" smooth="yes"/>
      <point x="241" y="452"/>
      <point x="272" y="463"/>
      <point x="309" y="463" type="curve" smooth="yes"/>
      <point x="347" y="463"/>
      <point x="374" y="452"/>
      <point x="390" y="429" type="curve" smooth="yes"/>
      <point x="406" y="406"/>
      <point x="411" y="374"/>
      <point x="402" y="331" type="curve" smooth="yes"/>
      <point x="326" y="-33" type="line" smooth="yes"/>
      <point x="321" y="-60"/>
      <point x="314" y="-79"/>
      <point x="301" y="-91" type="curve" smooth="yes"/>
      <point x="289" y="-103"/>
      <point x="270" y="-110"/>
      <point x="247" y="-110" type="curve" smooth="yes"/>
      <point x="205" y="-110" type="line"/>
    </contour>
  </outline>
</glyph>
<glyph name="OE" format="2">
  <advance width="970"/>
  <unicode hex="0152"/>
  <outline>
    <contour>
      <point x="268" y="-8" type="curve" smooth="yes"/>
      <point x="336" y="-8"/>
      <point x="392" y="9"/>
      <point x="437" y="44" type="curve"/>
      <point x="428" y="0" type="line"/>
      <point x="857" y="0" type="line"/>
      <point x="872" y="68" type="line"/>
      <point x="517" y="68" type="line"/>
      <point x="572" y="326" type="line"/>
      <point x="876" y="326" type="line"/>
      <point x="890" y="393" type="line"/>
      <point x="587" y="393" type="line"/>
      <point x="639" y="639" type="line"/>
      <point x="993" y="639" type="line"/>
      <point x="1008" y="707" type="line"/>
      <point x="579" y="707" type="line"/>
      <point x="567" y="651" type="line"/>
      <point x="531" y="694"/>
      <point x="475" y="716"/>
      <point x="398" y="716" type="curve" smooth="yes"/>
      <point x="243" y="715"/>
      <point x="146" y="625"/>
      <point x="108" y="445" type="curve" smooth="yes"/>
      <point x="69" y="262" type="line" smooth="yes"/>
      <point x="62" y="231"/>
      <point x="59" y="204"/>
      <point x="59" y="179" type="curve" smooth="yes"/>
      <point x="59" y="115"/>
      <point x="78" y="68"/>
      <point x="116" y="38" type="curve" smooth="yes"/>
      <point x="153" y="7"/>
      <point x="204" y="-8"/>
    </contour>
    <contour>
      <point x="134" y="190" type="curve" smooth="yes"/>
      <point x="134" y="209"/>
      <point x="137" y="232"/>
      <point x="142" y="258" type="curve" smooth="yes"/>
      <point x="182" y="442" type="line" smooth="yes"/>
      <point x="198" y="515"/>
      <point x="223" y="568"/>
      <point x="256" y="600" type="curve" smooth="yes"/>
      <point x="289" y="632"/>
      <point x="334" y="648"/>
      <point x="389" y="648" type="curve" smooth="yes"/>
      <point x="482" y="648"/>
      <point x="529" y="604"/>
      <point x="529" y="515" type="curve" smooth="yes"/>
      <point x="529" y="491"/>
      <point x="526" y="467"/>
      <point x="521" y="442" type="curve" smooth="yes"/>
      <point x="481" y="258" type="line" smooth="yes"/>
      <point x="466" y="189"/>
      <point x="442" y="139"/>
      <point x="409" y="108" type="curve" smooth="yes"/>
      <point x="375" y="76"/>
      <point x="332" y="60"/>
      <point x="279" y="60" type="curve" smooth="yes"/>
      <point x="182" y="60"/>
      <point x="134" y="103"/>
    </contour>
  </outline>
</glyph>
<glyph name="oe" format="2">
  <advance width="842"/>
  <unicode hex="0153"/>
  <anchor x="824" y="519" name="top"/>
  <outline>
    <contour>
      <point x="800" y="375" type="curve" smooth="yes"/>
      <point x="800" y="356"/>
      <point x="797" y="332"/>
      <point x="792" y="305" type="curve" smooth="yes"/>
      <point x="779" y="246" type="line"/>
      <point x="455" y="246" type="line"/>
      <point x="449" y="214" type="line" smooth="yes"/>
      <point x="444" y="193"/>
      <point x="442" y="173"/>
      <point x="441" y="155" type="curve" smooth="yes"/>
      <point x="441" y="119"/>
      <point x="451" y="94"/>
      <point x="471" y="79" type="curve" smooth="yes"/>
      <point x="490" y="64"/>
      <point x="517" y="56"/>
      <point x="551" y="56" type="curve" smooth="yes"/>
      <point x="586" y="56"/>
      <point x="616" y="65"/>
      <point x="640" y="83" type="curve" smooth="yes"/>
      <point x="664" y="101"/>
      <point x="680" y="127"/>
      <point x="689" y="160" type="curve"/>
      <point x="757" y="160" type="line"/>
      <point x="746" y="107"/>
      <point x="722" y="66"/>
      <point x="685" y="37" type="curve" smooth="yes"/>
      <point x="648" y="8"/>
      <point x="600" y="-6"/>
      <point x="542" y="-6" type="curve" smooth="yes"/>
      <point x="506" y="-6"/>
      <point x="475" y="1"/>
      <point x="448" y="14" type="curve" smooth="yes"/>
      <point x="421" y="27"/>
      <point x="400" y="46"/>
      <point x="386" y="73" type="curve"/>
      <point x="344" y="20"/>
      <point x="285" y="-6"/>
      <point x="209" y="-6" type="curve" smooth="yes"/>
      <point x="158" y="-6"/>
      <point x="117" y="6"/>
      <point x="87" y="30" type="curve" smooth="yes"/>
      <point x="57" y="53"/>
      <point x="42" y="90"/>
      <point x="42" y="141" type="curve" smooth="yes"/>
      <point x="42" y="162"/>
      <point x="44" y="184"/>
      <point x="49" y="207" type="curve" smooth="yes"/>
      <point x="72" y="313" type="line" smooth="yes"/>
      <point x="88" y="387"/>
      <point x="117" y="441"/>
      <point x="159" y="475" type="curve" smooth="yes"/>
      <point x="200" y="509"/>
      <point x="251" y="526"/>
      <point x="311" y="526" type="curve" smooth="yes"/>
      <point x="346" y="526"/>
      <point x="377" y="520"/>
      <point x="404" y="508" type="curve" smooth="yes"/>
      <point x="430" y="495"/>
      <point x="449" y="476"/>
      <point x="462" y="451" type="curve"/>
      <point x="505" y="502"/>
      <point x="563" y="527"/>
      <point x="635" y="526" type="curve" smooth="yes"/>
      <point x="685" y="526"/>
      <point x="725" y="514"/>
      <point x="755" y="489" type="curve" smooth="yes"/>
      <point x="785" y="464"/>
      <point x="800" y="426"/>
    </contour>
    <contour>
      <point x="376" y="211" type="curve" smooth="yes"/>
      <point x="396" y="309" type="line" smooth="yes"/>
      <point x="401" y="330"/>
      <point x="403" y="350"/>
      <point x="403" y="367" type="curve" smooth="yes"/>
      <point x="403" y="431"/>
      <point x="369" y="463"/>
      <point x="301" y="463" type="curve" smooth="yes"/>
      <point x="261" y="463"/>
      <point x="227" y="452"/>
      <point x="200" y="429" type="curve" smooth="yes"/>
      <point x="173" y="406"/>
      <point x="153" y="366"/>
      <point x="140" y="309" type="curve" smooth="yes"/>
      <point x="120" y="210" type="line" smooth="yes"/>
      <point x="116" y="189"/>
      <point x="114" y="170"/>
      <point x="114" y="155" type="curve" smooth="yes"/>
      <point x="114" y="119"/>
      <point x="123" y="94"/>
      <point x="142" y="79" type="curve" smooth="yes"/>
      <point x="161" y="64"/>
      <point x="186" y="56"/>
      <point x="219" y="56" type="curve" smooth="yes"/>
      <point x="258" y="56"/>
      <point x="291" y="68"/>
      <point x="318" y="91" type="curve" smooth="yes"/>
      <point x="345" y="114"/>
      <point x="364" y="154"/>
    </contour>
    <contour>
      <point x="730" y="370" type="curve" smooth="yes"/>
      <point x="730" y="403"/>
      <point x="721" y="427"/>
      <point x="704" y="442" type="curve" smooth="yes"/>
      <point x="686" y="456"/>
      <point x="661" y="463"/>
      <point x="629" y="463" type="curve" smooth="yes"/>
      <point x="590" y="463"/>
      <point x="556" y="452"/>
      <point x="528" y="429" type="curve" smooth="yes"/>
      <point x="499" y="406"/>
      <point x="479" y="366"/>
      <point x="468" y="309" type="curve" smooth="yes"/>
      <point x="466" y="298" type="line"/>
      <point x="720" y="298" type="line"/>
      <point x="724" y="316" type="line" smooth="yes"/>
      <point x="728" y="337"/>
      <point x="730" y="355"/>
    </contour>
  </outline>
</glyph>
<glyph name="Scaron" format="2">
  <advance width="559"/>
  <unicode hex="0160"/>
  <outline>
    <contour>
      <point x="58" y="46" type="curve" smooth="yes"/>
      <point x="25" y="81"/>
      <point x="12" y="132"/>
      <point x="21" y="200" type="curve"/>
      <point x="95" y="200" type="line"/>
      <point x="85" y="106"/>
      <point x="130" y="59"/>
      <point x="232" y="59" type="curve" smooth="yes"/>
      <point x="285" y="59"/>
      <point x="329" y="70"/>
      <point x="361" y="93" type="curve" smooth="yes"/>
      <point x="394" y="116"/>
      <point x="414" y="148"/>
      <point x="423" y="191" type="curve" smooth="yes"/>
      <point x="431" y="230"/>
      <point x="427" y="260"/>
      <point x="409" y="280" type="curve" smooth="yes"/>
      <point x="391" y="300"/>
      <point x="360" y="313"/>
      <point x="318" y="321" type="curve" smooth="yes"/>
      <point x="240" y="334" type="line" smooth="yes"/>
      <point x="186" y="344"/>
      <point x="145" y="363"/>
      <point x="121" y="393" type="curve" smooth="yes"/>
      <point x="96" y="423"/>
      <point x="89" y="464"/>
      <point x="101" y="518" type="curve" smooth="yes"/>
      <point x="114" y="580"/>
      <point x="145" y="629"/>
      <point x="194" y="664" type="curve" smooth="yes"/>
      <point x="243" y="699"/>
      <point x="301" y="716"/>
      <point x="369" y="716" type="curve" smooth="yes"/>
      <point x="432" y="716"/>
      <point x="480" y="699"/>
      <point x="514" y="667" type="curve" smooth="yes"/>
      <point x="547" y="635"/>
      <point x="560" y="585"/>
      <point x="554" y="519" type="curve"/>
      <point x="480" y="519" type="line"/>
      <point x="490" y="607"/>
      <point x="448" y="651"/>
      <point x="354" y="651" type="curve" smooth="yes"/>
      <point x="306" y="651"/>
      <point x="266" y="640"/>
      <point x="234" y="617" type="curve" smooth="yes"/>
      <point x="203" y="594"/>
      <point x="183" y="563"/>
      <point x="175" y="523" type="curve" smooth="yes"/>
      <point x="167" y="488"/>
      <point x="172" y="461"/>
      <point x="189" y="442" type="curve" smooth="yes"/>
      <point x="206" y="423"/>
      <point x="235" y="409"/>
      <point x="275" y="401" type="curve" smooth="yes"/>
      <point x="354" y="387" type="line" smooth="yes"/>
      <point x="411" y="377"/>
      <point x="453" y="357"/>
      <point x="478" y="326" type="curve" smooth="yes"/>
      <point x="502" y="295"/>
      <point x="509" y="252"/>
      <point x="498" y="196" type="curve" smooth="yes"/>
      <point x="484" y="132"/>
      <point x="452" y="82"/>
      <point x="402" y="47" type="curve" smooth="yes"/>
      <point x="352" y="12"/>
      <point x="289" y="-6"/>
      <point x="214" y="-6" type="curve" smooth="yes"/>
      <point x="143" y="-6"/>
      <point x="90" y="11"/>
    </contour>
    <contour>
      <point x="275" y="911" type="line"/>
      <point x="339" y="911" type="line"/>
      <point x="394" y="814" type="line"/>
      <point x="487" y="911" type="line"/>
      <point x="551" y="911" type="line"/>
      <point x="411" y="764" type="line"/>
      <point x="355" y="764" type="line"/>
    </contour>
  </outline>
</glyph>
<glyph name="Tbar" format="2">
  <advance width="493"/>
  <unicode hex="0166"/>
  <outline>
    <component base="T"/>
    <contour>
      <point x="123" y="314" type="line"/>
      <point x="389" y="314" type="line"/>
      <point x="403" y="378" type="line"/>
      <point x="137" y="378" type="line"/>
    </contour>
  </outline>
</glyph>
<glyph name="Uogonek" format="2">
  <advance width="650"/>
  <unicode hex="0172"/>
  <outline>
    <component base="U"/>
    <contour>
      <point x="324" y="-1" type="line"/>
      <point x="459" y="61" type="line"/>
      <point x="250" y="-106" type="line"/>
      <point x="275" y="-153"/>
      <point x="301" y="-156"/>
      <point x="357" y="-156" type="curve"/>
      <point x="344" y="-218" type="line"/>
      <point x="267" y="-217"/>
      <point x="238" y="-200"/>
      <point x="209" y="-167" type="curve" smooth="yes"/>
      <point x="194" y="-150"/>
      <point x="185" y="-128"/>
      <point x="182" y="-101" type="curve"/>
    </contour>
  </outline>
</glyph>
<glyph name="uogonek" format="2">
  <advance width="534"/>
  <unicode hex="0173"/>
  <outline>
    <component base="u"/>
    <contour>
      <point x="266" y="-218" type="curve"/>
      <point x="279" y="-156" type="line"/>
      <point x="223" y="-156"/>
      <point x="197" y="-153"/>
      <point x="172" y="-106" type="curve"/>
      <point x="361" y="42" type="line"/>
      <point x="249" y="9" type="line"/>
      <point x="104" y="-101" type="line"/>
      <point x="107" y="-128"/>
      <point x="116" y="-150"/>
      <point x="131" y="-167" type="curve" smooth="yes"/>
      <point x="160" y="-200"/>
      <point x="189" y="-217"/>
    </contour>
  </outline>
</glyph>
<glyph name="florin" format="2">
  <advance width="416"/>
  <unicode hex="0192"/>
  <outline>
    <contour>
      <point x="-59" y="-88" type="line"/>
      <point x="-31" y="-88" type="line" smooth="yes"/>
      <point x="-4" y="-88"/>
      <point x="17" y="-82"/>
      <point x="32" y="-70" type="curve" smooth="yes"/>
      <point x="47" y="-59"/>
      <point x="60" y="-37"/>
      <point x="73" y="-4" type="curve" smooth="yes"/>
      <point x="203" y="355" type="line"/>
      <point x="116" y="355" type="line"/>
      <point x="129" y="420" type="line"/>
      <point x="226" y="420" type="line"/>
      <point x="275" y="555" type="line" smooth="yes"/>
      <point x="295" y="609"/>
      <point x="320" y="648"/>
      <point x="349" y="672" type="curve" smooth="yes"/>
      <point x="378" y="695"/>
      <point x="417" y="707"/>
      <point x="466" y="707" type="curve" smooth="yes"/>
      <point x="499" y="707" type="line"/>
      <point x="484" y="639" type="line"/>
      <point x="450" y="639" type="line" smooth="yes"/>
      <point x="424" y="639"/>
      <point x="403" y="633"/>
      <point x="388" y="621" type="curve" smooth="yes"/>
      <point x="373" y="608"/>
      <point x="359" y="587"/>
      <point x="348" y="556" type="curve" smooth="yes"/>
      <point x="298" y="420" type="line"/>
      <point x="406" y="420" type="line"/>
      <point x="392" y="355" type="line"/>
      <point x="274" y="355" type="line"/>
      <point x="144" y="-2" type="line" smooth="yes"/>
      <point x="123" y="-59"/>
      <point x="99" y="-98"/>
      <point x="71" y="-121" type="curve" smooth="yes"/>
      <point x="43" y="-144"/>
      <point x="4" y="-156"/>
      <point x="-45" y="-156" type="curve" smooth="yes"/>
      <point x="-75" y="-156" type="line"/>
    </contour>
  </outline>
</glyph>
<glyph name="lbar" format="2">
  <advance width="279"/>
  <unicode hex="019A"/>
  <outline>
    <component base="l"/>
    <contour>
      <point x="32" y="322" type="line"/>
      <point x="264" y="322" type="line"/>
      <point x="278" y="389" type="line"/>
      <point x="46" y="389" type="line"/>
    </contour>
  </outline>
</glyph>
<glyph name="oogonek" format="2">
  <advance width="517"/>
  <unicode hex="01EB"/>
  <outline>
    <contour>
      <point x="69" y="45" type="curve" smooth="yes"/>
      <point x="40" y="79"/>
      <point x="33" y="133"/>
      <point x="48" y="207" type="curve" smooth="yes"/>
      <point x="70" y="313" type="line" smooth="yes"/>
      <point x="85" y="387"/>
      <point x="116" y="441"/>
      <point x="159" y="475" type="curve" smooth="yes"/>
      <point x="202" y="509"/>
      <point x="253" y="526"/>
      <point x="314" y="526" type="curve" smooth="yes"/>
      <point x="373" y="526"/>
      <point x="418" y="509"/>
      <point x="447" y="475" type="curve" smooth="yes"/>
      <point x="476" y="441"/>
      <point x="482" y="387"/>
      <point x="467" y="313" type="curve" smooth="yes"/>
      <point x="445" y="207" type="line" smooth="yes"/>
      <point x="430" y="133"/>
      <point x="400" y="79"/>
      <point x="357" y="45" type="curve" smooth="yes"/>
      <point x="326" y="21"/>
      <point x="292" y="5"/>
      <point x="253" y="-2" type="curve"/>
      <point x="116" y="-105" type="line"/>
      <point x="141" y="-152"/>
      <point x="167" y="-155"/>
      <point x="223" y="-155" type="curve"/>
      <point x="210" y="-217" type="line"/>
      <point x="133" y="-216"/>
      <point x="105" y="-199"/>
      <point x="75" y="-166" type="curve" smooth="yes"/>
      <point x="60" y="-149"/>
      <point x="52" y="-127"/>
      <point x="48" y="-100" type="curve"/>
      <point x="183" y="-5" type="line"/>
      <point x="133" y="-2"/>
      <point x="95" y="15"/>
    </contour>
    <contour>
      <point x="317" y="91" type="curve" smooth="yes"/>
      <point x="345" y="114"/>
      <point x="364" y="154"/>
      <point x="376" y="211" type="curve" smooth="yes"/>
      <point x="396" y="309" type="line" smooth="yes"/>
      <point x="408" y="366"/>
      <point x="405" y="406"/>
      <point x="387" y="429" type="curve" smooth="yes"/>
      <point x="369" y="452"/>
      <point x="340" y="463"/>
      <point x="301" y="463" type="curve" smooth="yes"/>
      <point x="261" y="463"/>
      <point x="227" y="452"/>
      <point x="199" y="429" type="curve" smooth="yes"/>
      <point x="171" y="406"/>
      <point x="151" y="366"/>
      <point x="139" y="309" type="curve" smooth="yes"/>
      <point x="119" y="211" type="line" smooth="yes"/>
      <point x="107" y="154"/>
      <point x="111" y="114"/>
      <point x="129" y="91" type="curve" smooth="yes"/>
      <point x="147" y="68"/>
      <point x="177" y="56"/>
      <point x="217" y="56" type="curve" smooth="yes"/>
      <point x="256" y="56"/>
      <point x="289" y="68"/>
    </contour>
  </outline>
</glyph>
<glyph name="jcaron" format="2">
  <advance width="231"/>
  <unicode hex="01F0"/>
  <outline>
    <component base="caroncmb" xOffset="116"/>
    <contour>
      <point x="-118" y="-156" type="line"/>
      <point x="-69" y="-156" type="line" smooth="yes"/>
      <point x="-27" y="-156"/>
      <point x="7" y="-144"/>
      <point x="34" y="-121" type="curve" smooth="yes"/>
      <point x="61" y="-98"/>
      <point x="78" y="-63"/>
      <point x="87" y="-19" type="curve" smooth="yes"/>
      <point x="199" y="519" type="line"/>
      <point x="130" y="519" type="line"/>
      <point x="19" y="-15" type="line" smooth="yes"/>
      <point x="13" y="-42"/>
      <point x="3" y="-62"/>
      <point x="-9" y="-74" type="curve" smooth="yes"/>
      <point x="-22" y="-86"/>
      <point x="-40" y="-92"/>
      <point x="-63" y="-92" type="curve" smooth="yes"/>
      <point x="-105" y="-92" type="line"/>
    </contour>
  </outline>
</glyph>
<glyph name="circumflex" format="2">
  <advance width="498"/>
  <unicode hex="02C6"/>
  <outline>
    <contour>
      <point x="185" y="575" type="line"/>
      <point x="248" y="575" type="line"/>
      <point x="344" y="673" type="line"/>
      <point x="396" y="575" type="line"/>
      <point x="460" y="575" type="line"/>
      <point x="382" y="723" type="line"/>
      <point x="326" y="723" type="line"/>
    </contour>
  </outline>
</glyph>
<glyph name="caron" format="2">
  <advance width="512"/>
  <unicode hex="02C7"/>
  <outline>
    <contour>
      <point x="292" y="577" type="line"/>
      <point x="349" y="577" type="line"/>
      <point x="489" y="724" type="line"/>
      <point x="426" y="724" type="line"/>
      <point x="331" y="627" type="line"/>
      <point x="277" y="724" type="line"/>
      <point x="214" y="724" type="line"/>
    </contour>
  </outline>
</glyph>
<glyph name="ring" format="2">
  <advance width="512"/>
  <unicode hex="02DA"/>
  <outline>
    <contour>
      <point x="249" y="666" type="curve" smooth="yes"/>
      <point x="249" y="693"/>
      <point x="258" y="716"/>
      <point x="275" y="734" type="curve" smooth="yes"/>
      <point x="292" y="751"/>
      <point x="315" y="760"/>
      <point x="342" y="760" type="curve" smooth="yes"/>
      <point x="369" y="760"/>
      <point x="391" y="751"/>
      <point x="409" y="734" type="curve" smooth="yes"/>
      <point x="426" y="716"/>
      <point x="435" y="693"/>
      <point x="435" y="666" type="curve" smooth="yes"/>
      <point x="435" y="639"/>
      <point x="426" y="617"/>
      <point x="409" y="599" type="curve" smooth="yes"/>
      <point x="391" y="581"/>
      <point x="369" y="572"/>
      <point x="342" y="572" type="curve" smooth="yes"/>
      <point x="315" y="572"/>
      <point x="292" y="581"/>
      <point x="275" y="599" type="curve" smooth="yes"/>
      <point x="258" y="617"/>
      <point x="249" y="639"/>
    </contour>
    <contour>
      <point x="394" y="666" type="curve" smooth="yes"/>
      <point x="394" y="682"/>
      <point x="389" y="695"/>
      <point x="380" y="706" type="curve" smooth="yes"/>
      <point x="370" y="716"/>
      <point x="357" y="721"/>
      <point x="342" y="721" type="curve" smooth="yes"/>
      <point x="327" y="721"/>
      <point x="314" y="716"/>
      <point x="304" y="705" type="curve" smooth="yes"/>
      <point x="294" y="694"/>
      <point x="289" y="681"/>
      <point x="289" y="666" type="curve" smooth="yes"/>
      <point x="289" y="650"/>
      <point x="294" y="637"/>
      <point x="304" y="627" type="curve" smooth="yes"/>
      <point x="314" y="616"/>
      <point x="327" y="611"/>
      <point x="342" y="611" type="curve" smooth="yes"/>
      <point x="357" y="611"/>
      <point x="370" y="616"/>
      <point x="380" y="627" type="curve" smooth="yes"/>
      <point x="389" y="637"/>
      <point x="394" y="650"/>
    </contour>
  </outline>
</glyph>
<glyph name="ogonek" format="2">
  <advance width="512"/>
  <unicode hex="02DB"/>
  <outline>
    <contour>
      <point x="323" y="-217" type="curve"/>
      <point x="336" y="-155" type="line"/>
      <point x="280" y="-155"/>
      <point x="254" y="-152"/>
      <point x="229" y="-105" type="curve"/>
      <point x="368" y="0" type="line"/>
      <point x="303" y="0" type="line"/>
      <point x="161" y="-100" type="line"/>
      <point x="165" y="-127"/>
      <point x="173" y="-149"/>
      <point x="188" y="-166" type="curve" smooth="yes"/>
      <point x="218" y="-199"/>
      <point x="246" y="-216"/>
    </contour>
  </outline>
</glyph>
<glyph name="tilde" format="2">
  <advance width="498"/>
  <unicode hex="02DC"/>
  <outline>
    <contour>
      <point x="198" y="583" type="line"/>
      <point x="215" y="598"/>
      <point x="228" y="608"/>
      <point x="239" y="614" type="curve" smooth="yes"/>
      <point x="250" y="620"/>
      <point x="261" y="623"/>
      <point x="273" y="623" type="curve" smooth="yes"/>
      <point x="282" y="623"/>
      <point x="289" y="622"/>
      <point x="296" y="619" type="curve" smooth="yes"/>
      <point x="303" y="616"/>
      <point x="311" y="611"/>
      <point x="322" y="604" type="curve" smooth="yes"/>
      <point x="333" y="597"/>
      <point x="342" y="592"/>
      <point x="351" y="589" type="curve" smooth="yes"/>
      <point x="359" y="586"/>
      <point x="369" y="584"/>
      <point x="380" y="584" type="curve" smooth="yes"/>
      <point x="405" y="584"/>
      <point x="432" y="597"/>
      <point x="459" y="622" type="curve"/>
      <point x="472" y="684" type="line"/>
      <point x="455" y="669"/>
      <point x="441" y="659"/>
      <point x="430" y="653" type="curve" smooth="yes"/>
      <point x="419" y="647"/>
      <point x="408" y="644"/>
      <point x="396" y="644" type="curve" smooth="yes"/>
      <point x="387" y="644"/>
      <point x="379" y="646"/>
      <point x="372" y="649" type="curve" smooth="yes"/>
      <point x="364" y="652"/>
      <point x="355" y="657"/>
      <point x="346" y="664" type="curve" smooth="yes"/>
      <point x="336" y="671"/>
      <point x="327" y="676"/>
      <point x="319" y="679" type="curve" smooth="yes"/>
      <point x="310" y="682"/>
      <point x="301" y="684"/>
      <point x="290" y="684" type="curve" smooth="yes"/>
      <point x="276" y="684"/>
      <point x="263" y="681"/>
      <point x="251" y="674" type="curve" smooth="yes"/>
      <point x="239" y="667"/>
      <point x="226" y="658"/>
      <point x="211" y="645" type="curve"/>
    </contour>
  </outline>
</glyph>
<glyph name="gravecomb" format="2">
  <unicode hex="0300"/>
  <anchor x="55" y="519" name="_top"/>
  <outline>
    <contour>
      <point x="71" y="586" type="line"/>
      <point x="129" y="586" type="line"/>
      <point x="54" y="714" type="line"/>
      <point x="-26" y="714" type="line"/>
    </contour>
  </outline>
</glyph>
<glyph name="acutecomb" format="2">
  <unicode hex="0301"/>
  <anchor x="108" y="519" name="_top"/>
  <outline>
    <contour>
      <point x="138" y="714" type="line"/>
      <point x="224" y="714" type="line"/>
      <point x="75" y="586" type="line"/>
      <point x="10" y="586" type="line"/>
    </contour>
  </outline>
</glyph>
<glyph name="tildecomb" format="2">
  <unicode hex="0303"/>
  <anchor x="55" y="519" name="_top"/>
  <outline>
    <contour>
      <point x="-58" y="583" type="line"/>
      <point x="-41" y="598"/>
      <point x="-28" y="608"/>
      <point x="-17" y="614" type="curve" smooth="yes"/>
      <point x="-6" y="620"/>
      <point x="5" y="623"/>
      <point x="17" y="623" type="curve" smooth="yes"/>
      <point x="26" y="623"/>
      <point x="33" y="622"/>
      <point x="40" y="619" type="curve" smooth="yes"/>
      <point x="47" y="616"/>
      <point x="55" y="611"/>
      <point x="66" y="604" type="curve" smooth="yes"/>
      <point x="77" y="597"/>
      <point x="86" y="592"/>
      <point x="95" y="589" type="curve" smooth="yes"/>
      <point x="103" y="586"/>
      <point x="113" y="584"/>
      <point x="124" y="584" type="curve" smooth="yes"/>
      <point x="149" y="584"/>
      <point x="176" y="597"/>
      <point x="203" y="622" type="curve"/>
      <point x="216" y="684" type="line"/>
      <point x="199" y="669"/>
      <point x="185" y="659"/>
      <point x="174" y="653" type="curve" smooth="yes"/>
      <point x="163" y="647"/>
      <point x="152" y="644"/>
      <point x="140" y="644" type="curve" smooth="yes"/>
      <point x="131" y="644"/>
      <point x="123" y="646"/>
      <point x="116" y="649" type="curve" smooth="yes"/>
      <point x="108" y="652"/>
      <point x="99" y="657"/>
      <point x="90" y="664" type="curve" smooth="yes"/>
      <point x="80" y="671"/>
      <point x="71" y="676"/>
      <point x="63" y="679" type="curve" smooth="yes"/>
      <point x="54" y="682"/>
      <point x="45" y="684"/>
      <point x="34" y="684" type="curve" smooth="yes"/>
      <point x="20" y="684"/>
      <point x="7" y="681"/>
      <point x="-5" y="674" type="curve" smooth="yes"/>
      <point x="-17" y="667"/>
      <point x="-30" y="658"/>
      <point x="-45" y="645" type="curve"/>
    </contour>
  </outline>
</glyph>
<glyph name="macroncmb" format="2">
  <unicode hex="0304"/>
  <outline>
    <contour>
      <point x="-65" y="604" type="line"/>
      <point x="201" y="604" type="line"/>
      <point x="214" y="668" type="line"/>
      <point x="-52" y="668" type="line"/>
    </contour>
  </outline>
</glyph>
<glyph name="dotaccentcmb" format="2">
  <unicode hex="0307"/>
  <outline>
    <contour>
      <point x="19" y="604" type="line"/>
      <point x="93" y="604" type="line"/>
      <point x="113" y="696" type="line"/>
      <point x="39" y="696" type="line"/>
    </contour>
  </outline>
</glyph>
<glyph name="ringcmb" format="2">
  <unicode hex="030A"/>
  <anchor x="55" y="519" name="_top"/>
  <outline>
    <contour>
      <point x="86" y="572" type="curve" smooth="yes"/>
      <point x="113" y="572"/>
      <point x="135" y="581"/>
      <point x="153" y="599" type="curve" smooth="yes"/>
      <point x="170" y="617"/>
      <point x="179" y="639"/>
      <point x="179" y="666" type="curve" smooth="yes"/>
      <point x="179" y="693"/>
      <point x="170" y="716"/>
      <point x="153" y="734" type="curve" smooth="yes"/>
      <point x="135" y="751"/>
      <point x="113" y="760"/>
      <point x="86" y="760" type="curve" smooth="yes"/>
      <point x="59" y="760"/>
      <point x="36" y="751"/>
      <point x="19" y="734" type="curve" smooth="yes"/>
      <point x="2" y="716"/>
      <point x="-7" y="693"/>
      <point x="-7" y="666" type="curve" smooth="yes"/>
      <point x="-7" y="639"/>
      <point x="2" y="617"/>
      <point x="19" y="599" type="curve" smooth="yes"/>
      <point x="36" y="581"/>
      <point x="59" y="572"/>
    </contour>
    <contour>
      <point x="48" y="627" type="curve" smooth="yes"/>
      <point x="38" y="637"/>
      <point x="33" y="650"/>
      <point x="33" y="666" type="curve" smooth="yes"/>
      <point x="33" y="681"/>
      <point x="38" y="694"/>
      <point x="48" y="705" type="curve" smooth="yes"/>
      <point x="58" y="716"/>
      <point x="71" y="721"/>
      <point x="86" y="721" type="curve" smooth="yes"/>
      <point x="101" y="721"/>
      <point x="114" y="716"/>
      <point x="124" y="706" type="curve" smooth="yes"/>
      <point x="134" y="695"/>
      <point x="139" y="682"/>
      <point x="139" y="666" type="curve" smooth="yes"/>
      <point x="139" y="650"/>
      <point x="134" y="637"/>
      <point x="124" y="627" type="curve" smooth="yes"/>
      <point x="114" y="616"/>
      <point x="101" y="611"/>
      <point x="86" y="611" type="curve" smooth="yes"/>
      <point x="71" y="611"/>
      <point x="58" y="616"/>
    </contour>
  </outline>
</glyph>
<glyph name="caroncmb" format="2">
  <unicode hex="030C"/>
  <outline>
    <contour>
      <point x="-42" y="724" type="line"/>
      <point x="21" y="724" type="line"/>
      <point x="75" y="627" type="line"/>
      <point x="170" y="724" type="line"/>
      <point x="233" y="724" type="line"/>
      <point x="93" y="577" type="line"/>
      <point x="36" y="577" type="line"/>
    </contour>
  </outline>
</glyph>
